SplineFontDB: 3.0
FontName: boon-500-oblique
FullName: Boon Medium Oblique
FamilyName: Boon
Weight: 500
Copyright: Copyright (C) 2013 Sungsit Sawaiwan <http://sungsit.com/>
UComments: "Created with FontForge 2.0 <http://fontforge.org/>" 
FontLog: "##  Boon v0.6, 2013-09-24+AAoA  - Redesigned Long S, Small Ezh & Small German Eszett+AAoA  - Improved some Latin diacritics compositions+AAoA  - Added **boon-300**, **boon-300-oblique**, **boon-500** & **boon-500-oblique**+AAoACgAA##  Boon v0.5, 2013-09-17+AAoA  - Redraw all glyphs+AAoA  - Match Latin x-height with Thai +DhoA--height+AAoA  - Reduce Latin cap-height+AAoA  - Add more character spacing+AAoA  - Complete **Basic Latin**, **Latin-1 supplement** & **Thai**+AAoA  - Rename all font files+AAoA      1. Boon-Book +AD0A> **boon-400**+AAoA      2. Boon-Book-Italic +AD0A> **boon-400-oblique**+AAoA      3. Boon-Bold +AD0A> **boon-700**+AAoA      4. Boon-Bold-italic +AD0A> **boon-700-oblique**+AAoA  - Move source files to **boon-dev** repository <https://github.com/sungsit/boon-dev>+AAoACgAA##  Boon v0.4, 2013-07-15+AAoA  - Improve kerning+AAoACgAA##  Boon v0.3.1, 2013-07-01+AAoA  - Corrected font version+AAoACgAA##  Boon v0.3, 2013-07-01+AAoA  - Improved Latin kerning+AAoA  - Added HTML/CSS and project page+AAoACgAA##  Boon v0.2, 2013-06-30+AAoA  - Included Boon-Bold and Boon-Bold-Italic (auto-generated)+AAoA  - Renamed Boon-Italic to Boon-Book-Italic+AAoACgAA##  Boon v0.1, 2013-06-27+AAoA  - Released Boon-Book and Boon-Italic (auto-generated)" 
Version: 0.6
ItalicAngle: -13
UnderlinePosition: -60
UnderlineWidth: 20
Ascent: 840
Descent: 360
woffMajor: 0
woffMinor: 6
LayerCount: 2
Layer: 0 0 "Back"  1
Layer: 1 0 "Fore"  0
FSType: 8
OS2Version: 0
OS2_WeightWidthSlopeOnly: 0
OS2_UseTypoMetrics: 1
CreationTime: 1369324892
ModificationTime: 1379946551
PfmFamily: 33
TTFWeight: 500
TTFWidth: 5
LineGap: 108
VLineGap: 0
OS2TypoAscent: 0
OS2TypoAOffset: 1
OS2TypoDescent: 0
OS2TypoDOffset: 1
OS2TypoLinegap: 108
OS2WinAscent: 0

StartChar: uni0E04
Encoding: 3588 3588 0
Width: 670
VWidth: 0
Flags: W
HStem: 0 21G<470 594.617> 230 45<360.164 437.037> 365 45<371.476 447.198> 525 95<348.409 539.95>
LayerCount: 2
Fore
SplineSet
424.656 410 m 0
 474.656 410 505.421 370 493.878 320 c 0
 482.334 270 433.1 230 383.1 230 c 0
 346.1 230 319.179 252 312.566 284 c 1
 282.178 239 260.863 177 247.704 120 c 2
 217.691 -10 l 1
 217.691 -10 79.6152 -6 86.9258 30 c 1
 86.9258 30 118.238 79 132.321 140 c 0
 155.87 242 131.18 265 162.348 400 c 0
 193.977 537 327.139 620 473.139 620 c 0
 619.139 620 713.977 537 682.348 400 c 2
 590 0 l 1
 470 0 l 1
 562.348 400 l 2
 581.278 482 542.206 525 451.206 525 c 0
 360.206 525 301.278 482 282.348 400 c 0
 271.266 352 267.186 317 265.259 287 c 1
 303.958 355 359.656 410 424.656 410 c 0
414.267 365 m 0
 389.267 365 364.649 345 358.878 320 c 0
 353.106 295 368.488 275 393.488 275 c 0
 418.488 275 443.106 295 448.878 320 c 0
 454.649 345 439.267 365 414.267 365 c 0
EndSplineSet
EndChar

StartChar: uni0E05
Encoding: 3589 3589 2
Width: 670
VWidth: 0
Flags: W
HStem: 0 21G<470 594.617> 230 45<360.164 437.037> 365 45<370.45 447.198> 600 20G<353.639 406.214 530.829 592.639>
LayerCount: 2
Fore
SplineSet
424.656 410 m 0
 474.656 410 505.421 370 493.878 320 c 0
 482.334 270 433.1 230 383.1 230 c 0
 346.1 230 319.179 252 312.566 284 c 1
 282.178 239 260.863 177 247.704 120 c 2
 217.691 -10 l 1
 217.691 -10 79.6152 -6 86.9258 30 c 1
 86.9258 30 118.238 79 132.321 140 c 0
 155.87 242 133.488 275 164.656 410 c 0
 195.592 544 324.139 620 383.139 620 c 1
 458.132 555 l 1
 563.139 620 l 1
 622.139 620 715.592 544 684.656 410 c 2
 590 0 l 1
 470 0 l 1
 564.656 410 l 2
 584.279 495 546.206 525 546.206 525 c 1
 436.199 460 l 1
 356.206 525 l 1
 356.206 525 304.279 495 284.656 410 c 0
 273.112 360 268.34 322 266.952 290 c 1
 305.189 356 360.656 410 424.656 410 c 0
414.267 365 m 0
 389.267 365 364.649 345 358.878 320 c 0
 353.106 295 368.488 275 393.488 275 c 0
 418.488 275 443.106 295 448.878 320 c 0
 454.649 345 439.267 365 414.267 365 c 0
EndSplineSet
EndChar

StartChar: uni0E14
Encoding: 3604 3604 3
Width: 670
VWidth: 0
Flags: W
HStem: 0 21G<470 594.617> 230 45<361.159 383.1> 365 45<370.718 447.198> 525 95<348.409 539.95>
LayerCount: 2
Fore
SplineSet
424.656 410 m 0
 474.656 410 505.421 370 493.878 320 c 0
 459.479 171 244.703 107 217.691 -10 c 1
 217.691 -10 79.6152 -6 86.9258 30 c 1
 86.9258 30 118.238 79 132.321 140 c 0
 155.87 242 131.18 265 162.348 400 c 0
 193.977 537 327.139 620 473.139 620 c 0
 619.139 620 713.977 537 682.348 400 c 2
 590 0 l 1
 470 0 l 1
 562.348 400 l 2
 581.278 482 542.206 525 451.206 525 c 0
 360.206 525 301.278 482 282.348 400 c 0
 252.104 269 274.716 237 250.013 130 c 1
 293.324 166 343.788 194 383.1 230 c 1
 333.1 230 302.334 270 313.878 320 c 0
 325.421 370 374.656 410 424.656 410 c 0
414.267 365 m 0
 389.267 365 364.649 345 358.878 320 c 0
 353.106 295 368.488 275 393.488 275 c 0
 418.488 275 443.106 295 448.878 320 c 0
 454.649 345 439.267 365 414.267 365 c 0
EndSplineSet
EndChar

StartChar: uni0E15
Encoding: 3605 3605 4
Width: 670
VWidth: 0
Flags: W
HStem: 0 21G<470 594.617> 230 45<361.159 383.1> 365 45<370.718 447.198> 600 20G<353.639 406.214 530.829 592.639>
LayerCount: 2
Fore
SplineSet
424.656 410 m 0
 474.656 410 505.421 370 493.878 320 c 0
 459.479 171 244.703 107 217.691 -10 c 1
 217.691 -10 79.6152 -6 86.9258 30 c 1
 86.9258 30 118.238 79 132.321 140 c 0
 155.87 242 133.488 275 164.656 410 c 0
 195.592 544 324.139 620 383.139 620 c 1
 458.132 555 l 1
 563.139 620 l 1
 622.139 620 715.592 544 684.656 410 c 2
 590 0 l 1
 470 0 l 1
 564.656 410 l 2
 584.279 495 546.206 525 546.206 525 c 1
 436.199 460 l 1
 356.206 525 l 1
 356.206 525 304.279 495 284.656 410 c 0
 254.412 279 274.716 237 250.013 130 c 1
 293.324 166 343.788 194 383.1 230 c 1
 333.1 230 302.334 270 313.878 320 c 0
 325.421 370 374.656 410 424.656 410 c 0
414.267 365 m 0
 389.267 365 364.649 345 358.878 320 c 0
 353.106 295 368.488 275 393.488 275 c 0
 418.488 275 443.106 295 448.878 320 c 0
 454.649 345 439.267 365 414.267 365 c 0
EndSplineSet
EndChar

StartChar: uni0E01
Encoding: 3585 3585 5
Width: 670
VWidth: 0
Flags: W
HStem: 0 21G<120 244.617 470 594.617> 390 20<378.651 410.039> 525 95<359.13 541.071>
LayerCount: 2
Fore
SplineSet
240 0 m 1
 120 0 l 1
 184.644 280 l 2
 199.419 344 236.037 377 264.962 394 c 1
 166.965 420 l 1
 187.432 474 307.139 620 483.139 620 c 0
 624.139 620 713.515 535 682.348 400 c 2
 590 0 l 1
 470 0 l 1
 562.348 400 l 2
 581.278 482 539.206 525 461.206 525 c 0
 388.206 525 324.818 493 290.352 439 c 1
 414.656 410 l 1
 410.039 390 l 1
 410.039 390 329.115 386 304.644 280 c 2
 240 0 l 1
EndSplineSet
EndChar

StartChar: uni0E16
Encoding: 3606 3606 6
Width: 670
VWidth: 0
Flags: W
HStem: -10 65<209.783 297.05> 0 21G<470 594.617> 155 65<290.791 307.126> 390 20<378.651 410.039> 525 95<359.13 541.071>
LayerCount: 2
Fore
SplineSet
144.241 105 m 2xb8
 184.644 280 l 2
 199.419 344 236.037 377 264.962 394 c 1
 166.965 420 l 1
 187.432 474 307.139 620 483.139 620 c 0
 624.139 620 713.515 535 682.348 400 c 2
 590 0 l 1
 470 0 l 1x78
 562.348 400 l 2
 581.278 482 539.206 525 461.206 525 c 0
 388.206 525 324.818 493 290.352 439 c 1
 414.656 410 l 1
 410.039 390 l 1
 410.039 390 329.115 386 304.644 280 c 2
 290.791 220 l 1
 351.099 217 388.555 167 374.241 105 c 0
 359.466 41 296.691 -10 232.691 -10 c 0
 168.691 -10 129.466 41 144.241 105 c 2xb8
270.784 155 m 0
 242.784 155 215.705 133 209.241 105 c 0
 202.777 77 219.697 55 247.697 55 c 0xb8
 275.697 55 302.777 77 309.241 105 c 0
 315.705 133 298.784 155 270.784 155 c 0
EndSplineSet
EndChar

StartChar: uni0E28
Encoding: 3624 3624 7
Width: 680
VWidth: 0
Flags: W
HStem: 0 21G<470 594.617> 230 45<360.164 437.037> 365 45<371.476 447.198> 525 95<348.409 542.475>
VStem: 696.225 100<647.888 720>
LayerCount: 2
Fore
SplineSet
414.267 365 m 0
 389.267 365 364.649 345 358.878 320 c 0
 353.106 295 368.488 275 393.488 275 c 0
 418.488 275 443.106 295 448.878 320 c 0
 454.649 345 439.267 365 414.267 365 c 0
424.656 410 m 0
 474.656 410 505.421 370 493.878 320 c 0
 482.334 270 433.1 230 383.1 230 c 0
 346.1 230 319.179 252 312.566 284 c 1
 282.178 239 260.863 177 247.704 120 c 2
 217.691 -10 l 1
 217.691 -10 79.6152 -6 86.9258 30 c 1
 86.9258 30 118.238 79 132.321 140 c 0
 155.87 242 131.18 265 162.348 400 c 0
 193.977 537 327.139 620 473.139 620 c 0
 534.139 620 585.906 606 623.673 579 c 1
 650.521 600 676.602 635 696.225 720 c 1
 796.225 720 l 1
 774.523 626 721.979 563 671.975 524 c 1
 689.125 490 693.66 449 682.348 400 c 2
 590 0 l 1
 470 0 l 1
 562.348 400 l 2
 581.278 482 542.206 525 451.206 525 c 0
 360.206 525 301.278 482 282.348 400 c 0
 271.266 352 267.186 317 265.259 287 c 1
 303.958 355 359.656 410 424.656 410 c 0
EndSplineSet
Substitution2: "Ascent Substitute" uni0E28.alt
EndChar

StartChar: uni0E20
Encoding: 3616 3616 8
Width: 690
VWidth: 0
Flags: W
HStem: -10 65<149.783 237.05> 0 21G<490 614.617> 155 64<161.282 215.901> 525 95<379.13 561.071>
LayerCount: 2
Fore
SplineSet
702.348 400 m 2xb0
 610 0 l 1
 490 0 l 1x70
 582.348 400 l 2
 601.278 482 559.206 525 481.206 525 c 0
 408.206 525 344.818 493 310.352 439 c 1
 434.656 410 l 1
 430.039 390 l 1
 430.039 390 366.114 373 344.644 280 c 2
 335.408 240 l 2
 324.788 194 331.557 180 314.241 105 c 0
 299.466 41 236.691 -10 172.691 -10 c 0
 108.691 -10 69.4658 41 84.2412 105 c 0
 97.8623 164 152.944 212 211.561 219 c 1
 211.945 225 213.562 232 215.408 240 c 2
 224.644 280 l 2
 239.649 345 275.807 376 300.039 390 c 1
 186.965 420 l 1
 207.432 474 327.139 620 503.139 620 c 0
 644.139 620 733.515 535 702.348 400 c 2xb0
210.784 155 m 0
 182.784 155 155.705 133 149.241 105 c 0
 142.777 77 159.697 55 187.697 55 c 0xb0
 215.697 55 242.777 77 249.241 105 c 0
 255.705 133 238.784 155 210.784 155 c 0
EndSplineSet
EndChar

StartChar: uni0E48
Encoding: 3656 3656 9
Width: 0
VWidth: 0
Flags: W
HStem: 990 250<121.599 140.499>
VStem: 57.7939 138.482
LayerCount: 2
Fore
SplineSet
106.276 1240 m 1
 196.276 1240 l 1
 138.56 990 l 1
 57.7939 1030 l 1
 106.276 1240 l 1
EndSplineSet
Position2: "Nikhahit & Tone High-Left" dx=-240 dy=0 dh=0 dv=0
Position2: "Mai Han-Akat & Tone High-Left" dx=-300 dy=0 dh=0 dv=0
Position2: "Tone High-Left" dx=-180 dy=0 dh=0 dv=0
MultipleSubs2: "Tone High-Low" uni0E48.low
EndChar

StartChar: uni0E34
Encoding: 3636 3636 10
Width: 0
VWidth: 0
Flags: W
HStem: 880 80<-235.18 -69.4299>
AnchorPoint: "thai_above" 333.267 630 mark 0
LayerCount: 2
Fore
SplineSet
-263.303 826 m 1
 -182.227 822 -87.6895 807 4.38281 764 c 1
 -22.9951 823 -75.8359 880 -156.836 880 c 0
 -204.836 880 -244.839 854 -263.303 826 c 1
-375.306 800 m 1
 -364.455 847 -270.366 960 -138.366 960 c 0
 42.6338 960 90.7695 783 71.6074 700 c 1
 -93.6143 790 -254.306 800 -375.306 800 c 1
EndSplineSet
Substitution2: "Thai Tone & Vowel Above-Narrow" uni0E34.narrow
Position2: "Vowel Above-Left" dx=-140 dy=0 dh=0 dv=0
EndChar

StartChar: uni0E38
Encoding: 3640 3640 11
Width: 0
VWidth: 0
Flags: W
HStem: -340 135<-249.484 -188.697> -125 55<-256.565 -182.481>
VStem: -318.094 190.001
LayerCount: 2
Fore
SplineSet
-250.025 -260 m 1
 -299.333 -257 -329.867 -216 -318.094 -165 c 0
 -306.088 -113 -253.161 -70 -201.161 -70 c 0
 -149.161 -70 -116.088 -113 -128.093 -165 c 2
 -168.495 -340 l 1
 -268.495 -340 l 1
 -250.025 -260 l 1
-213.858 -125 m 0
 -235.858 -125 -258.014 -143 -263.094 -165 c 0
 -268.172 -187 -254.328 -205 -232.328 -205 c 0
 -210.328 -205 -188.172 -187 -183.093 -165 c 0
 -178.014 -143 -191.858 -125 -213.858 -125 c 0
EndSplineSet
Position2: "Vowel Below-Low" dx=0 dy=-200 dh=0 dv=0
EndChar

StartChar: uni0E35
Encoding: 3637 3637 12
Width: 0
VWidth: 0
Flags: W
HStem: 860 80<-239.797 -74.7782>
AnchorPoint: "thai_above" 333.267 630 mark 0
LayerCount: 2
Fore
SplineSet
-267.92 806 m 1
 -186.844 802 -92.3066 787 -0.234375 744 c 1
 -27.6133 803 -80.4531 860 -161.453 860 c 0
 -209.453 860 -249.456 834 -267.92 806 c 1
36.251 980 m 1
 129.325 950 l 1
 66.9902 680 l 1
 -98.2314 770 -258.923 780 -379.923 780 c 1
 -369.072 827 -274.984 940 -142.984 940 c 0
 -51.9844 940 -3.21973 887 23.082 832 c 1
 18.7012 865 17.0889 897 22.3984 920 c 2
 36.251 980 l 1
EndSplineSet
Substitution2: "Thai Tone & Vowel Above-Narrow" uni0E35.narrow
Position2: "Vowel Above-Left" dx=-140 dy=0 dh=0 dv=0
EndChar

StartChar: uni0E48.low
Encoding: 63237 63237 13
Width: 0
VWidth: 0
Flags: W
HStem: 700 260<21.6338 61.6074>
VStem: -38.3926 160.026
AnchorPoint: "thai_above" 333.267 630 mark 0
LayerCount: 2
Fore
SplineSet
21.6338 960 m 1
 121.634 960 l 1
 61.6074 700 l 1
 -38.3926 700 l 1
 21.6338 960 l 1
EndSplineSet
Position2: "Tone Low-Left" dx=-220 dy=0 dh=0 dv=0
Substitution2: "Tone Low-High" uni0E48
EndChar

StartChar: uni0E49.low
Encoding: 63238 63238 14
Width: 0
VWidth: 0
Flags: W
HStem: 700 70<-301.183 -193.358 -138.231 -36.552> 905 45<-183.616 -119.332>
VStem: 52.3984 110<856.768 920>
AnchorPoint: "thai_above" 333.267 630 mark 0
LayerCount: 2
Fore
SplineSet
-135.675 950 m 0
 -91.6748 950 -63.9863 914 -74.1445 870 c 0
 -84.7646 824 -119.307 787 -138.231 770 c 1
 -132.231 770 l 2
 -49.2314 770 28.3887 816 52.3984 920 c 1
 162.398 920 l 1
 132.386 790 11.6074 700 -148.393 700 c 2
 -283.393 700 l 2
 -321.393 700 -312.231 770 -312.231 770 c 1
 -221.231 770 l 1
 -211.847 776 -202.23 783 -192.922 793 c 1
 -224.844 802 -242.687 833 -234.145 870 c 0
 -223.986 914 -179.675 950 -135.675 950 c 0
-146.064 905 m 0
 -165.064 905 -184.758 889 -189.145 870 c 0
 -193.531 851 -181.225 835 -162.225 835 c 0
 -143.225 835 -123.531 851 -119.145 870 c 0
 -114.758 889 -127.064 905 -146.064 905 c 0
EndSplineSet
Substitution2: "Thai Tone & Vowel Above-Narrow" uni0E49.narrow
Substitution2: "Thai Special Tone for Asc" uni0E49
Position2: "Tone Low-Left" dx=-220 dy=0 dh=0 dv=0
Substitution2: "Tone Low-High" uni0E49
EndChar

StartChar: uni0E4A.low
Encoding: 63239 63239 15
Width: 0
VWidth: 0
Flags: W
HStem: 695 45<-227.507 -170.735> 700 50<-66.8486 -36.7548> 800 45<-209.812 -166.793> 885 55<-200.449 -128.29 -35.6816 -12.7689>
VStem: -280.688 158.457<729 835.627> 114.707 90<852.192 930>
AnchorPoint: "thai_above" 333.267 630 mark 0
LayerCount: 2
Fore
SplineSet
-35.6816 885 m 1x7c
 -74.916 845 l 1
 -124.916 845 l 1
 -124.991 862 -138.682 885 -160.682 885 c 0
 -182.682 885 -199.606 868 -210.302 839 c 1
 -200.378 843 -189.916 845 -179.916 845 c 0
 -138.916 845 -112.766 811 -122.231 770 c 0
 -131.697 729 -173.547 695 -214.547 695 c 0xbc
 -270.547 695 -296.387 752 -280.688 820 c 0
 -264.989 888 -203.984 940 -147.984 940 c 0
 -113.984 940 -92.4482 912 -85.0654 892 c 1
 -42.9844 940 l 1
 -22.9844 940 l 2
 33.0156 940 65.2422 889 49.3115 820 c 0
 45.8486 805 40.6172 791 33.8467 779 c 1
 61.7715 796 93.2363 837 114.707 930 c 1
 204.707 930 l 1
 165.69 761 75.6074 700 -78.3926 700 c 1
 -66.8486 750 l 1
 -44.8486 750 -25.6152 777 -15.6885 820 c 0
 -5.76074 863 -13.6816 885 -35.6816 885 c 1x7c
-190.306 800 m 0
 -207.306 800 -223.307 787 -227.231 770 c 0
 -231.156 753 -221.157 740 -204.157 740 c 0
 -187.157 740 -171.156 753 -167.231 770 c 0
 -163.307 787 -173.306 800 -190.306 800 c 0
EndSplineSet
Substitution2: "Thai Tone & Vowel Above-Narrow" uni0E4A.narrow
Substitution2: "Thai Special Tone for Asc" uni0E4A
Position2: "Tone Low-Left" dx=-200 dy=0 dh=0 dv=0
Substitution2: "Tone Low-High" uni0E4A
EndChar

StartChar: uni0E4B.low
Encoding: 63240 63240 16
Width: 0
VWidth: 0
Flags: W
HStem: 795 70<-130.299 -41.46 64.7012 153.54>
VStem: -146.46 316.161
AnchorPoint: "thai_above" 333.267 630 mark 0
LayerCount: 2
Fore
SplineSet
-3.36621 960 m 1
 86.6338 960 l 1
 64.7012 865 l 1
 169.701 865 l 1
 153.54 795 l 1
 48.54 795 l 1
 26.6074 700 l 1
 -63.3926 700 l 1
 -41.46 795 l 1
 -146.46 795 l 1
 -130.299 865 l 1
 -25.2988 865 l 1
 -3.36621 960 l 1
EndSplineSet
Position2: "Tone Low-Left" dx=-230 dy=0 dh=0 dv=0
Substitution2: "Tone Low-High" uni0E4B
EndChar

StartChar: uni0E4C.low
Encoding: 63241 63241 17
Width: 0
VWidth: 0
Flags: W
HStem: 700 45<-94.305 -29.7379>
VStem: 28.7881 104<926.358 965>
AnchorPoint: "thai_above" 333.267 630 mark 0
LayerCount: 2
Fore
SplineSet
-51.8428 815 m 0
 -70.8428 815 -89.5361 799 -93.9229 780 c 0
 -98.3096 761 -87.0029 745 -68.0029 745 c 0
 -48.0029 745 -28.3096 761 -23.9229 780 c 0
 -19.5361 799 -31.8428 815 -51.8428 815 c 0
28.7881 965 m 1
 132.788 965 l 1
 118.243 902 54.0098 875 4.62207 843 c 1
 20.1592 828 25.8486 805 20.0771 780 c 0
 9.91895 736 -33.3926 700 -78.3926 700 c 0
 -122.393 700 -150.081 736 -139.923 780 c 0
 -117.528 877 13.3193 898 28.7881 965 c 1
EndSplineSet
Position2: "Tone Low-Left" dx=-140 dy=0 dh=0 dv=0
Substitution2: "Tone Low-High" uni0E4C
EndChar

StartChar: uni0E10.descless
Encoding: 63232 63232 18
Width: 600
VWidth: 0
Flags: W
HStem: 120 60<196.936 277.843> 270 60<205.823 285.482> 390 50<292.582 407.51> 535 75<637.807 673.515> 540 80<356.128 547.69>
LayerCount: 2
Fore
SplineSet
608.132 555 m 1xe8
 619.364 569 659.83 610 690.83 610 c 1
 673.515 535 l 1xf0
 642.515 535 606.279 495 589.662 475 c 1
 561.128 516 513.669 540 444.669 540 c 0
 368.669 540 309.587 492 292.582 440 c 1
 481.12 438 587.427 422 561.569 310 c 2
 503.853 60 l 2
 493.463 15 391.691 -10 347.691 -10 c 1
 358.47 80 351.707 146 332.865 190 c 1
 308.399 149 263.704 120 217.704 120 c 0
 159.704 120 123.555 167 136.945 225 c 0
 150.336 283 208.187 330 266.187 330 c 0
 344.187 330 392.024 247 402.091 139 c 1
 441.569 310 l 2
 459.115 386 397.039 390 160.039 390 c 1
 194.669 540 329.139 620 463.139 620 c 0
 547.139 620 587.596 583 608.132 555 c 1xe8
252.334 270 m 0
 227.334 270 202.717 250 196.945 225 c 0
 191.174 200 206.557 180 231.557 180 c 0
 256.557 180 281.174 200 286.945 225 c 0
 292.717 250 277.334 270 252.334 270 c 0
EndSplineSet
EndChar

StartChar: uni0E0D.descless
Encoding: 63247 63247 19
Width: 930
VWidth: 0
Flags: W
HStem: -20 85<623.943 738.58> -10 65<209.783 297.05> 155 65<290.791 307.126> 390 20<378.651 410.039> 525 95<359.13 541.071> 580 20G<863.903 988.521>
LayerCount: 2
Fore
SplineSet
270.784 155 m 0x70
 242.784 155 215.705 133 209.241 105 c 0
 202.777 77 219.697 55 247.697 55 c 0
 275.697 55 302.777 77 309.241 105 c 0
 315.705 133 298.784 155 270.784 155 c 0x70
868.521 600 m 1xb4
 988.521 600 l 1
 880.013 130 l 2
 871.24 92 820.383 -20 655.383 -20 c 0xb4
 490.383 -20 491.24 92 500.013 130 c 2
 562.348 400 l 2
 581.278 482 539.206 525 461.206 525 c 0
 388.206 525 324.818 493 290.352 439 c 1
 414.656 410 l 1
 410.039 390 l 1
 410.039 390 329.115 386 304.644 280 c 2
 290.791 220 l 1
 351.099 217 388.555 167 374.241 105 c 0
 359.466 41 296.691 -10 232.691 -10 c 0
 168.691 -10 129.466 41 144.241 105 c 2
 184.644 280 l 2
 199.419 344 236.037 377 264.962 394 c 1
 166.965 420 l 1
 187.432 474 307.139 620 483.139 620 c 0x78
 624.139 620 713.515 535 682.348 400 c 2
 620.013 130 l 2
 612.395 97 622.007 65 675.007 65 c 0
 728.007 65 752.395 97 760.013 130 c 2
 868.521 600 l 1xb4
EndSplineSet
EndChar

StartChar: uni0E36
Encoding: 3638 3638 20
Width: 0
VWidth: 0
Flags: W
HStem: 860 80<-239.797 -74.3539> 920 50<0.38015 72.6695>
AnchorPoint: "thai_above" 333.267 630 mark 0
LayerCount: 2
Fore
SplineSet
-161.453 860 m 0x80
 -209.453 860 -249.456 834 -267.92 806 c 1
 -186.844 802 -92.3066 787 -0.234375 744 c 1
 -27.6133 803 -80.4531 860 -161.453 860 c 0x80
42.3984 920 m 0x40
 20.3984 920 -1.75684 902 -6.83594 880 c 0
 -11.915 858 1.92969 840 23.9297 840 c 0
 45.9297 840 68.085 858 73.1641 880 c 0
 78.2432 902 64.3984 920 42.3984 920 c 0x40
53.9424 970 m 0
 103.942 970 134.707 930 123.164 880 c 0
 115.084 845 88.1572 815 55.6943 800 c 1
 71.5361 756 74.1475 711 66.9902 680 c 1
 -98.2314 770 -258.923 780 -379.923 780 c 1
 -369.072 827 -274.984 940 -142.984 940 c 0x80
 -102.984 940 -69.0615 931 -40.5244 916 c 1
 -19.1367 948 16.9424 970 53.9424 970 c 0
EndSplineSet
Substitution2: "Thai Tone & Vowel Above-Narrow" uni0E36.narrow
Position2: "Vowel Above-Left" dx=-140 dy=0 dh=0 dv=0
EndChar

StartChar: uni0E37
Encoding: 3639 3639 21
Width: 0
VWidth: 0
Flags: W
HStem: 850 80<-242.106 -99.0319>
AnchorPoint: "thai_above" 333.267 630 mark 0
LayerCount: 2
Fore
SplineSet
-270.229 796 m 1
 -189.152 792 -94.6152 777 -2.54297 734 c 1
 -29.9219 793 -82.7617 850 -163.762 850 c 0
 -211.762 850 -251.765 824 -270.229 796 c 1
48.9424 970 m 1
 127.016 940 l 1
 64.6816 670 l 1
 -100.54 760 -261.231 770 -382.231 770 c 1
 -371.381 817 -277.293 930 -145.293 930 c 0
 -129.293 930 -114.754 928 -101.447 925 c 1
 -81.8232 1010 l 1
 -13.749 980 l 1
 -33.835 893 l 1
 -3.37598 869 16.0059 836 28.3867 803 c 1
 25.7754 835 24.9316 866 30.4727 890 c 2
 48.9424 970 l 1
EndSplineSet
Substitution2: "Thai Tone & Vowel Above-Narrow" uni0E37.narrow
Position2: "Vowel Above-Left" dx=-140 dy=0 dh=0 dv=0
EndChar

StartChar: uni0E2D
Encoding: 3629 3629 22
Width: 650
VWidth: 0
Flags: W
HStem: -20 100<246.023 443.85> 325 55<209.933 296.949> 525 95<334.234 523.57>
VStem: 156.965 120<420 471.383>
LayerCount: 2
Fore
SplineSet
272.729 380 m 0
 330.729 380 366.879 333 353.488 275 c 0
 341.253 222 292.095 178 239.479 171 c 1
 236.938 160 l 2
 221.933 95 274.47 80 343.47 80 c 0
 412.47 80 474.241 105 489.248 170 c 2
 546.965 420 l 2
 561.048 481 524.206 525 436.206 525 c 0
 348.206 525 291.048 481 276.965 420 c 1
 156.965 420 l 1
 183.515 535 297.139 620 458.139 620 c 0
 619.139 620 693.515 535 666.965 420 c 2
 609.248 170 l 2
 577.85 34 462.383 -20 320.383 -20 c 0
 178.383 -20 85.541 24 116.938 160 c 2
 143.488 275 l 2
 156.879 333 214.729 380 272.729 380 c 0
260.032 325 m 0
 232.032 325 204.953 303 198.488 275 c 0
 192.024 247 208.945 225 236.945 225 c 0
 264.945 225 292.024 247 298.488 275 c 0
 304.953 303 288.032 325 260.032 325 c 0
EndSplineSet
EndChar

StartChar: uni0E4D
Encoding: 3661 3661 23
Width: 0
VWidth: 0
Flags: W
HStem: 700 75<-48.0216 48.3851> 895 75<-32.8352 63.5716>
VStem: -127.225 270
AnchorPoint: "thai_above" 333.267 630 mark 0
LayerCount: 2
Fore
SplineSet
21.627 895 m 0
 -11.373 895 -44.6064 868 -52.2246 835 c 0
 -59.8438 802 -39.0771 775 -6.07715 775 c 0
 26.9229 775 60.1562 802 67.7754 835 c 0
 75.3936 868 54.627 895 21.627 895 c 0
38.9424 970 m 0
 113.942 970 160.09 910 142.775 835 c 0
 125.46 760 51.6074 700 -23.3926 700 c 0
 -98.3926 700 -144.54 760 -127.225 835 c 0
 -109.91 910 -36.0576 970 38.9424 970 c 0
EndSplineSet
Position2: "Vowel Above-Left" dx=-220 dy=0 dh=0 dv=0
EndChar

StartChar: uni0E33
Encoding: 3635 3635 24
Width: 550
VWidth: 0
Flags: W
HStem: 0 21G<350 474.617> 525 95<297.548 431.577> 700 75<-48.0216 48.3851> 895 75<-32.8352 63.5716>
VStem: 122.348 120<400 465.708>
LayerCount: 2
Fore
SplineSet
442.348 400 m 2
 456.661 462 450.206 525 371.206 525 c 0
 292.206 525 256.661 462 242.348 400 c 1
 122.348 400 l 1
 153.977 537 257.139 620 393.139 620 c 0
 529.139 620 593.977 537 562.348 400 c 2
 470 0 l 1
 350 0 l 1
 442.348 400 l 2
21.627 895 m 0
 -11.373 895 -44.6064 868 -52.2246 835 c 0
 -59.8438 802 -39.0771 775 -6.07715 775 c 0
 26.9229 775 60.1562 802 67.7754 835 c 0
 75.3936 868 54.627 895 21.627 895 c 0
38.9424 970 m 0
 113.942 970 160.09 910 142.775 835 c 0
 125.46 760 51.6074 700 -23.3926 700 c 0
 -98.3926 700 -144.54 760 -127.225 835 c 0
 -109.91 910 -36.0576 970 38.9424 970 c 0
EndSplineSet
MultipleSubs2: "Sara Am Decomposite" uni0E4D uni0E32
EndChar

StartChar: uni0E32
Encoding: 3634 3634 25
Width: 550
VWidth: 0
Flags: W
HStem: 0 21G<350 474.617> 525 95<297.548 431.577>
VStem: 122.348 120<400 465.708>
LayerCount: 2
Fore
SplineSet
442.348 400 m 2
 456.661 462 450.206 525 371.206 525 c 0
 292.206 525 256.661 462 242.348 400 c 1
 122.348 400 l 1
 153.977 537 257.139 620 393.139 620 c 0
 529.139 620 593.977 537 562.348 400 c 2
 470 0 l 1
 350 0 l 1
 442.348 400 l 2
EndSplineSet
Substitution2: "Sara AA Substitute" uni0E45
EndChar

StartChar: uni0E25
Encoding: 3621 3621 26
Width: 650
VWidth: 0
Flags: W
HStem: -20 60<186.491 274.024> 140 60<214.895 285.404> 300 80<271.963 456.625> 525 95<343.899 527.302>
VStem: 166.965 120<420 471.499>
LayerCount: 2
Fore
SplineSet
261.174 200 m 0
 322.174 200 359.861 151 345.778 90 c 0
 331.695 29 271.383 -20 210.383 -20 c 0
 137.383 -20 71.082 48 101.557 180 c 0
 129.261 300 242.729 380 367.729 380 c 0
 441.729 380 492.573 349 520.184 304 c 1
 546.965 420 l 2
 561.048 481 529.206 525 441.206 525 c 0
 353.206 525 301.048 481 286.965 420 c 1
 166.965 420 l 1
 193.515 535 302.139 620 463.139 620 c 0
 624.139 620 693.515 535 666.965 420 c 2
 576.926 30 l 2
 568.615 -6 437.691 -10 437.691 -10 c 1
 488.021 208 l 1
 485.795 259 451.261 300 369.261 300 c 0
 289.261 300 234.949 264 214.096 191 c 1
 229.481 197 245.174 200 261.174 200 c 0
247.321 140 m 0
 219.321 140 192.242 118 185.778 90 c 0
 179.313 62 196.234 40 224.234 40 c 0
 252.234 40 279.313 62 285.778 90 c 0
 292.242 118 275.321 140 247.321 140 c 0
EndSplineSet
EndChar

StartChar: uni0E40
Encoding: 3648 3648 27
Width: 340
VWidth: 0
Flags: W
HStem: -10 65<169.783 257.05> 155 65<250.791 267.126> 580 20G<213.903 338.521>
VStem: 104.241 234.279
LayerCount: 2
Fore
SplineSet
104.241 105 m 2
 218.521 600 l 1
 338.521 600 l 1
 250.791 220 l 1
 311.099 217 348.555 167 334.241 105 c 0
 319.466 41 256.691 -10 192.691 -10 c 0
 128.691 -10 89.4658 41 104.241 105 c 2
230.784 155 m 0
 202.784 155 175.705 133 169.241 105 c 0
 162.777 77 179.697 55 207.697 55 c 0
 235.697 55 262.777 77 269.241 105 c 0
 275.705 133 258.784 155 230.784 155 c 0
EndSplineSet
EndChar

StartChar: uni0E41
Encoding: 3649 3649 28
Width: 630
VWidth: 0
Flags: W
HStem: -10 65<169.783 257.05 459.783 547.05> 155 65<250.791 267.126 540.791 557.126> 580 20G<213.903 338.521 503.903 628.521>
LayerCount: 2
Fore
SplineSet
394.241 105 m 2
 508.521 600 l 1
 628.521 600 l 1
 540.791 220 l 1
 601.099 217 638.555 167 624.241 105 c 0
 609.466 41 546.691 -10 482.691 -10 c 0
 418.691 -10 379.466 41 394.241 105 c 2
520.784 155 m 0
 492.784 155 465.705 133 459.241 105 c 0
 452.777 77 469.697 55 497.697 55 c 0
 525.697 55 552.777 77 559.241 105 c 0
 565.705 133 548.784 155 520.784 155 c 0
104.241 105 m 2
 218.521 600 l 1
 338.521 600 l 1
 250.791 220 l 1
 311.099 217 348.555 167 334.241 105 c 0
 319.466 41 256.691 -10 192.691 -10 c 0
 128.691 -10 89.4658 41 104.241 105 c 2
230.784 155 m 0
 202.784 155 175.705 133 169.241 105 c 0
 162.777 77 179.697 55 207.697 55 c 0
 235.697 55 262.777 77 269.241 105 c 0
 275.705 133 258.784 155 230.784 155 c 0
EndSplineSet
EndChar

StartChar: uni0E2A
Encoding: 3626 3626 29
Width: 660
VWidth: 0
Flags: W
HStem: -20 60<186.491 274.024> 140 60<214.895 285.404> 300 80<271.963 456.625> 525 95<343.899 528.541>
VStem: 166.965 120<420 471.499> 676.225 100<647.328 720>
LayerCount: 2
Fore
SplineSet
247.321 140 m 0
 219.321 140 192.242 118 185.778 90 c 0
 179.313 62 196.234 40 224.234 40 c 0
 252.234 40 279.313 62 285.778 90 c 0
 292.242 118 275.321 140 247.321 140 c 0
261.174 200 m 0
 322.174 200 359.861 151 345.778 90 c 0
 331.695 29 271.383 -20 210.383 -20 c 0
 137.383 -20 71.082 48 101.557 180 c 0
 129.261 300 242.729 380 367.729 380 c 0
 441.729 380 492.573 349 520.184 304 c 1
 546.965 420 l 2
 561.048 481 529.206 525 441.206 525 c 0
 353.206 525 301.048 481 286.965 420 c 1
 166.965 420 l 1
 193.515 535 302.139 620 463.139 620 c 0
 526.139 620 575.137 607 609.827 584 c 1
 634.906 606 657.986 641 676.225 720 c 1
 776.225 720 l 1
 755.447 630 706.364 569 658.36 530 c 1
 674.203 499 676.431 461 666.965 420 c 2
 576.926 30 l 2
 568.615 -6 437.691 -10 437.691 -10 c 1
 488.021 208 l 1
 485.795 259 451.261 300 369.261 300 c 0
 289.261 300 234.949 264 214.096 191 c 1
 229.481 197 245.174 200 261.174 200 c 0
EndSplineSet
Substitution2: "Ascent Substitute" uni0E2A.alt
EndChar

StartChar: uni0E2E
Encoding: 3630 3630 30
Width: 660
VWidth: 0
Flags: W
HStem: -20 100<246.023 443.85> 325 55<209.933 296.949> 525 95<334.234 525.358>
VStem: 156.965 120<420 471.383> 676.225 100<646.676 720>
LayerCount: 2
Fore
SplineSet
260.032 325 m 0
 232.032 325 204.953 303 198.488 275 c 0
 192.024 247 208.945 225 236.945 225 c 0
 264.945 225 292.024 247 298.488 275 c 0
 304.953 303 288.032 325 260.032 325 c 0
272.729 380 m 0
 330.729 380 366.879 333 353.488 275 c 0
 341.253 222 292.095 178 239.479 171 c 1
 236.938 160 l 2
 221.933 95 274.47 80 343.47 80 c 0
 412.47 80 474.241 105 489.248 170 c 2
 546.965 420 l 2
 561.048 481 524.206 525 436.206 525 c 0
 348.206 525 291.048 481 276.965 420 c 1
 156.965 420 l 1
 183.515 535 297.139 620 458.139 620 c 0
 522.139 620 572.906 606 608.596 583 c 1
 634.676 605 657.756 640 676.225 720 c 1
 776.225 720 l 1
 755.216 629 706.133 568 658.129 529 c 1
 672.973 498 676.431 461 666.965 420 c 2
 609.248 170 l 2
 577.85 34 462.383 -20 320.383 -20 c 0
 178.383 -20 85.541 24 116.938 160 c 2
 143.488 275 l 2
 156.879 333 214.729 380 272.729 380 c 0
EndSplineSet
Substitution2: "Ascent Substitute" uni0E2E.alt
EndChar

StartChar: uni0E1D
Encoding: 3613 3613 31
Width: 740
VWidth: 0
Flags: W
HStem: 395 55<290.874 378.989> 550 60<303.556 389.476>
LayerCount: 2
Fore
SplineSet
723.93 840 m 1
 843.93 840 l 1
 788.521 600 l 1
 675.396 110 l 2
 666.161 70 651.234 40 623.617 20 c 0
 596 0 546.691 -10 467.691 -10 c 1
 410.099 217 l 1
 247.691 -10 l 1
 168.691 -10 124 0 105.617 20 c 0
 87.2344 40 86.1611 70 95.3955 110 c 2
 171.582 440 l 2
 195.361 543 269.83 610 355.83 610 c 0
 426.83 610 458.594 557 445.434 500 c 0
 432.044 442 374.193 395 316.193 395 c 0
 304.193 395 292.654 397 282.578 401 c 1
 215.396 110 l 2
 211.009 91 209.238 79 212.392 71 c 1
 386.569 310 l 1
 476.569 310 l 1
 540.392 71 l 1
 547.238 79 550.778 90 555.396 110 c 2
 668.521 600 l 1
 723.93 840 l 1
351.978 550 m 0
 323.978 550 296.898 528 290.434 500 c 0
 283.97 472 300.891 450 328.891 450 c 0
 356.891 450 383.97 472 390.434 500 c 0
 396.898 528 379.978 550 351.978 550 c 0
EndSplineSet
EndChar

StartChar: uni0E1A
Encoding: 3610 3610 32
Width: 720
VWidth: 0
Flags: W
HStem: -20 100<330.101 519.047> 380 65<231.395 247.729> 545 65<241.471 328.738> 580 20G<653.903 778.521>
LayerCount: 2
Fore
SplineSet
290.823 545 m 0xe0
 262.823 545 235.744 523 229.279 495 c 0
 222.815 467 239.736 445 267.736 445 c 0
 295.736 445 322.815 467 329.279 495 c 0
 335.744 523 318.823 545 290.823 545 c 0xe0
658.521 600 m 1xd0
 778.521 600 l 1xd0
 679.248 170 l 2
 647.85 34 527.383 -20 395.383 -20 c 0
 263.383 -20 167.85 34 199.248 170 c 2
 247.729 380 l 1
 187.423 383 149.966 433 164.279 495 c 0
 179.056 559 241.83 610 305.83 610 c 0xe0
 369.83 610 409.056 559 394.279 495 c 2
 319.248 170 l 2
 304.241 105 339.47 80 418.47 80 c 0
 497.47 80 544.241 105 559.248 170 c 2
 658.521 600 l 1xd0
EndSplineSet
EndChar

StartChar: uni0E1B
Encoding: 3611 3611 33
Width: 730
VWidth: 0
Flags: W
HStem: -20 100<330.101 519.047> 380 65<231.395 247.729> 545 65<241.471 328.738>
LayerCount: 2
Fore
SplineSet
713.93 840 m 1
 833.93 840 l 1
 778.521 600 l 1
 679.248 170 l 2
 647.85 34 527.383 -20 395.383 -20 c 0
 263.383 -20 167.85 34 199.248 170 c 2
 247.729 380 l 1
 187.423 383 149.966 433 164.279 495 c 0
 179.056 559 241.83 610 305.83 610 c 0
 369.83 610 409.056 559 394.279 495 c 2
 319.248 170 l 2
 304.241 105 339.47 80 418.47 80 c 0
 497.47 80 544.241 105 559.248 170 c 2
 658.521 600 l 1
 713.93 840 l 1
290.823 545 m 0
 262.823 545 235.744 523 229.279 495 c 0
 222.815 467 239.736 445 267.736 445 c 0
 295.736 445 322.815 467 329.279 495 c 0
 335.744 523 318.823 545 290.823 545 c 0
EndSplineSet
EndChar

StartChar: uni0E49
Encoding: 3657 3657 34
Width: 0
VWidth: 0
Flags: W
HStem: 1020 65<-104.026 -21.6613> 1195 45<-7.90347 49.4411>
VStem: 193.968 100<1164.01 1230>
LayerCount: 2
Fore
SplineSet
36.2764 1240 m 0
 77.2764 1240 102.427 1206 92.9619 1165 c 0
 83.4961 1124 55.4932 1098 36.7227 1086 c 1
 111.877 1091 171.573 1133 193.968 1230 c 1
 293.968 1230 l 1
 263.955 1100 165.485 1020 5.48535 1020 c 2
 -84.5146 1020 l 2
 -122.515 1020 -119.508 1085 -119.508 1085 c 1
 -35.5078 1085 l 1
 -31.0459 1087 -26.3535 1090 -21.4307 1094 c 1
 -49.3525 1103 -64.6572 1132 -57.0381 1165 c 0
 -47.5732 1206 -5.72363 1240 36.2764 1240 c 0
25.8877 1195 m 0
 8.8877 1195 -7.11426 1182 -11.0381 1165 c 0
 -14.9629 1148 -4.96484 1135 12.0352 1135 c 0
 28.0352 1135 45.0371 1148 48.9619 1165 c 0
 52.8857 1182 41.8877 1195 25.8877 1195 c 0
EndSplineSet
Substitution2: "Thai Tone & Vowel Above-Narrow" uni0E49.narrow
Position2: "Nikhahit & Tone High-Left" dx=-210 dy=0 dh=0 dv=0
Position2: "Mai Han-Akat & Tone High-Left" dx=-260 dy=0 dh=0 dv=0
Position2: "Tone High-Left" dx=-180 dy=0 dh=0 dv=0
MultipleSubs2: "Tone High-Low" uni0E49.low
EndChar

StartChar: uni0E1C
Encoding: 3612 3612 35
Width: 730
VWidth: 0
Flags: W
HStem: 395 55<290.874 378.989> 550 60<303.556 389.476> 580 20G<663.903 788.521>
LayerCount: 2
Fore
SplineSet
355.83 610 m 0xc0
 426.83 610 458.594 557 445.434 500 c 0
 432.044 442 374.193 395 316.193 395 c 0
 304.193 395 292.654 397 282.578 401 c 1
 215.396 110 l 2
 211.009 91 209.238 79 212.392 71 c 1
 386.569 310 l 1
 476.569 310 l 1
 540.392 71 l 1
 547.238 79 550.778 90 555.396 110 c 2
 668.521 600 l 1
 788.521 600 l 1xa0
 675.396 110 l 2
 666.161 70 651.234 40 623.617 20 c 0
 596 0 546.691 -10 467.691 -10 c 1
 410.099 217 l 1
 247.691 -10 l 1
 168.691 -10 124 0 105.617 20 c 0
 87.2344 40 86.1611 70 95.3955 110 c 2
 171.582 440 l 2
 195.361 543 269.83 610 355.83 610 c 0xc0
351.978 550 m 0xc0
 323.978 550 296.898 528 290.434 500 c 0
 283.97 472 300.891 450 328.891 450 c 0
 356.891 450 383.97 472 390.434 500 c 0
 396.898 528 379.978 550 351.978 550 c 0xc0
EndSplineSet
EndChar

StartChar: uni0E1E
Encoding: 3614 3614 36
Width: 770
VWidth: 0
Flags: W
HStem: 380 65<241.395 257.729> 545 65<251.471 338.738> 580 20G<703.903 828.521>
LayerCount: 2
Fore
SplineSet
708.521 600 m 1xa0
 828.521 600 l 1xa0
 703.853 60 l 2
 698.542 37 675.925 17 646.154 5 c 0
 616.384 -7 568.691 -10 537.691 -10 c 1
 516.575 375 l 1
 317.691 -10 l 1
 286.691 -10 240.384 -7 216.154 5 c 0
 191.925 17 178.542 37 183.853 60 c 2
 257.729 380 l 1
 197.423 383 159.966 433 174.279 495 c 0
 189.056 559 251.83 610 315.83 610 c 0xc0
 379.83 610 419.056 559 404.279 495 c 2
 319.32 127 l 1
 510.125 490 l 1
 576.125 490 l 1
 599.32 127 l 1
 708.521 600 l 1xa0
300.823 545 m 0xc0
 272.823 545 245.744 523 239.279 495 c 0
 232.815 467 249.736 445 277.736 445 c 0
 305.736 445 332.815 467 339.279 495 c 0
 345.744 523 328.823 545 300.823 545 c 0xc0
EndSplineSet
EndChar

StartChar: uni0E1F
Encoding: 3615 3615 37
Width: 780
VWidth: 0
Flags: W
HStem: 380 65<241.395 257.729> 545 65<251.471 338.738>
LayerCount: 2
Fore
SplineSet
763.93 840 m 1
 883.93 840 l 1
 828.521 600 l 1
 703.853 60 l 2
 698.542 37 675.925 17 646.154 5 c 0
 616.384 -7 568.691 -10 537.691 -10 c 1
 516.575 375 l 1
 317.691 -10 l 1
 286.691 -10 240.384 -7 216.154 5 c 0
 191.925 17 178.542 37 183.853 60 c 2
 257.729 380 l 1
 197.423 383 159.966 433 174.279 495 c 0
 189.056 559 251.83 610 315.83 610 c 0
 379.83 610 419.056 559 404.279 495 c 2
 319.32 127 l 1
 510.125 490 l 1
 576.125 490 l 1
 599.32 127 l 1
 708.521 600 l 1
 763.93 840 l 1
300.823 545 m 0
 272.823 545 245.744 523 239.279 495 c 0
 232.815 467 249.736 445 277.736 445 c 0
 305.736 445 332.815 467 339.279 495 c 0
 345.744 523 328.823 545 300.823 545 c 0
EndSplineSet
EndChar

StartChar: uni0E30
Encoding: 3632 3632 38
Width: 540
VWidth: 0
Flags: W
HStem: 30 75<217.715 362.144> 225 50<149.481 222.216> 340 75<289.284 433.714> 535 50<221.05 293.785>
LayerCount: 2
Fore
SplineSet
275.058 585 m 0
 325.058 585 355.823 545 344.279 495 c 0
 337.123 464 314.658 436 286.965 420 c 1
 303.041 416 323.811 415 350.811 415 c 0
 437.811 415 490.586 479 509.286 560 c 1
 609.286 560 l 1
 582.506 444 490.495 340 333.495 340 c 0
 243.495 340 139.808 389 164.279 495 c 0
 175.823 545 225.058 585 275.058 585 c 0
263.515 535 m 0
 241.515 535 219.358 517 214.279 495 c 0
 209.2 473 223.045 455 245.045 455 c 0
 267.045 455 289.2 473 294.279 495 c 0
 299.358 517 285.515 535 263.515 535 c 0
203.488 275 m 0
 253.488 275 284.254 235 272.711 185 c 0
 265.554 154 243.09 126 215.396 110 c 1
 231.472 106 252.241 105 279.241 105 c 0
 366.241 105 419.017 169 437.717 250 c 1
 537.717 250 l 1
 510.937 134 418.926 30 261.926 30 c 0
 171.926 30 68.2383 79 92.7109 185 c 0
 104.254 235 153.488 275 203.488 275 c 0
191.945 225 m 0
 169.945 225 147.79 207 142.711 185 c 0
 137.632 163 151.476 145 173.476 145 c 0
 195.476 145 217.632 163 222.711 185 c 0
 227.79 207 213.945 225 191.945 225 c 0
EndSplineSet
EndChar

StartChar: uni0E43
Encoding: 3651 3651 39
Width: 400
VWidth: 0
Flags: W
HStem: -10 65<229.783 317.05> 155 65<310.791 327.126> 765 50<258.712 338.603> 955 65<362.546 482.571>
LayerCount: 2
Fore
SplineSet
278.521 600 m 2
 310.149 737 473.078 793 493.164 880 c 0
 503.784 926 472.479 955 410.479 955 c 0
 391.479 955 374.786 952 360.863 948 c 1
 391.4 933 407.551 899 398.547 860 c 0
 386.541 808 333.614 765 281.614 765 c 0
 229.614 765 196.541 808 208.547 860 c 0
 228.171 945 320.485 1020 425.485 1020 c 0
 534.485 1020 591.634 960 573.164 880 c 0
 547.307 768 428.072 728 398.521 600 c 2
 310.791 220 l 1
 371.099 217 408.555 167 394.241 105 c 0
 379.466 41 316.691 -10 252.691 -10 c 0
 188.691 -10 149.466 41 164.241 105 c 2
 278.521 600 l 2
313.936 905 m 0
 288.936 905 264.318 885 258.547 860 c 0
 252.775 835 268.157 815 293.157 815 c 0
 318.157 815 342.775 835 348.547 860 c 0
 354.318 885 338.936 905 313.936 905 c 0
290.784 155 m 0
 262.784 155 235.705 133 229.241 105 c 0
 222.777 77 239.697 55 267.697 55 c 0
 295.697 55 322.777 77 329.241 105 c 0
 335.705 133 318.784 155 290.784 155 c 0
EndSplineSet
EndChar

StartChar: uni0E44
Encoding: 3652 3652 40
Width: 400
VWidth: 0
Flags: W
HStem: -10 65<229.783 317.05> 155 65<310.791 327.126> 945 75<255.485 319.546>
LayerCount: 2
Fore
SplineSet
398.171 945 m 1
 575.485 1020 l 1
 591.485 1020 628.098 988 617.016 940 c 0
 591.621 830 437.307 768 398.521 600 c 2
 310.791 220 l 1
 371.099 217 408.555 167 394.241 105 c 0
 379.466 41 316.691 -10 252.691 -10 c 0
 188.691 -10 149.466 41 164.241 105 c 2
 278.521 600 l 2
 317.307 768 514.163 867 554.939 944 c 1
 380.855 870 l 1
 380.855 870 314.171 945 238.171 945 c 1
 255.485 1020 l 1
 354.485 1020 398.171 945 398.171 945 c 1
290.784 155 m 0
 262.784 155 235.705 133 229.241 105 c 0
 222.777 77 239.697 55 267.697 55 c 0
 295.697 55 322.777 77 329.241 105 c 0
 335.705 133 318.784 155 290.784 155 c 0
EndSplineSet
EndChar

StartChar: uni0E29
Encoding: 3625 3625 41
Width: 770
VWidth: 0
Flags: W
HStem: -20 100<330.101 519.047> 380 65<231.395 247.729> 405 40<454.89 522.659> 545 65<241.471 328.738> 580 20G<653.903 778.521>
VStem: 772.729 85<324.164 380>
AnchorPoint: "thai_above" 1073.27 630 basechar 0
LayerCount: 2
Fore
SplineSet
290.823 545 m 0xb4
 262.823 545 235.744 523 229.279 495 c 0
 222.815 467 239.736 445 267.736 445 c 0
 295.736 445 322.815 467 329.279 495 c 0
 335.744 523 318.823 545 290.823 545 c 0xb4
502.736 445 m 0
 546.736 445 574.425 409 564.267 365 c 0
 555.956 329 525.029 299 490.721 289 c 1
 505.642 267 535.333 257 578.871 255 c 1
 658.521 600 l 1
 778.521 600 l 1
 705.336 283 l 1
 734.723 302 759.879 333 772.729 380 c 1
 857.729 380 l 1
 839.877 307 772.101 243 688.713 211 c 1
 679.248 170 l 2
 647.85 34 527.383 -20 395.383 -20 c 0
 263.383 -20 167.85 34 199.248 170 c 2
 247.729 380 l 1xcc
 187.423 383 149.966 433 164.279 495 c 0
 179.056 559 241.83 610 305.83 610 c 0
 369.83 610 409.056 559 394.279 495 c 2
 319.248 170 l 2
 304.241 105 339.47 80 418.47 80 c 0
 497.47 80 544.241 105 559.248 170 c 2
 564.096 191 l 1
 494.481 197 377.024 247 404.267 365 c 0
 414.425 409 458.736 445 502.736 445 c 0
493.502 405 m 0xa4
 471.502 405 449.346 387 444.267 365 c 0
 439.188 343 453.032 325 475.032 325 c 0
 497.032 325 519.188 343 524.267 365 c 0
 529.346 387 515.502 405 493.502 405 c 0xa4
EndSplineSet
EndChar

StartChar: uni0E42
Encoding: 3650 3650 42
Width: 400
VWidth: 0
Flags: W
HStem: -10 65<229.783 317.05> 155 65<310.791 327.126> 955 65<318.003 475.009>
LayerCount: 2
Fore
SplineSet
188.547 860 m 1
 207.478 942 306.485 1020 415.485 1020 c 0
 473.485 1020 509.79 991 523.942 970 c 1
 545.328 989 584.177 1010 615.485 1020 c 1
 595.861 935 l 1
 557.553 925 524.936 905 504.318 885 c 1
 488.938 918 467.479 955 400.479 955 c 0
 341.479 955 302.092 923 289.551 899 c 1
 398.703 891 449.312 820 398.521 600 c 2
 310.791 220 l 1
 371.099 217 408.555 167 394.241 105 c 0
 379.466 41 316.691 -10 252.691 -10 c 0
 188.691 -10 149.466 41 164.241 105 c 2
 278.521 600 l 2
 327.696 813 324.547 860 188.547 860 c 1
290.784 155 m 0
 262.784 155 235.705 133 229.241 105 c 0
 222.777 77 239.697 55 267.697 55 c 0
 295.697 55 322.777 77 329.241 105 c 0
 335.705 133 318.784 155 290.784 155 c 0
EndSplineSet
EndChar

StartChar: uni0E21
Encoding: 3617 3617 43
Width: 660
VWidth: 0
Flags: W
HStem: -20 70<144.074 231.549> 150 70<154.663 220.791> 380 65<241.395 257.729> 545 65<251.471 338.738> 580 20G<593.903 718.521>
LayerCount: 2
Fore
SplineSet
598.521 600 m 1xe8
 718.521 600 l 1xe8
 593.853 60 l 2
 583.463 15 500.691 -10 437.691 -10 c 1
 437.691 -10 411.854 86 317.474 119 c 1
 313.087 100 l 2
 297.85 34 231.383 -20 165.383 -20 c 0
 99.3828 -20 57.8496 34 73.0869 100 c 0
 88.3242 166 154.791 220 220.791 220 c 1
 257.729 380 l 1
 197.423 383 159.966 433 174.279 495 c 0
 189.056 559 251.83 610 315.83 610 c 0xf0
 379.83 610 419.056 559 404.279 495 c 2
 337.559 206 l 1
 406.403 188 456.014 143 482.395 97 c 1
 598.521 600 l 1xe8
204.63 150 m 0
 176.63 150 149.551 128 143.087 100 c 0
 136.622 72 153.543 50 181.543 50 c 0
 209.543 50 236.622 72 243.087 100 c 0
 249.551 128 232.63 150 204.63 150 c 0
300.823 545 m 0xf0
 272.823 545 245.744 523 239.279 495 c 0
 232.815 467 249.736 445 277.736 445 c 0
 305.736 445 332.815 467 339.279 495 c 0
 345.744 523 328.823 545 300.823 545 c 0xf0
EndSplineSet
EndChar

StartChar: uni0E06
Encoding: 3590 3590 44
Width: 690
VWidth: 0
Flags: W
HStem: -20 70<174.074 261.549> 150 70<184.663 270.36> 320 45<211.508 287.815> 455 45<230.36 297.976> 550 60<250.646 337.31> 580 20G<623.903 748.521>
LayerCount: 2
Fore
SplineSet
265.045 455 m 0xf0
 240.045 455 215.428 435 209.656 410 c 0
 203.884 385 219.267 365 244.267 365 c 0
 269.267 365 293.884 385 299.656 410 c 0
 305.428 435 290.045 455 265.045 455 c 0xf0
628.521 600 m 1xf4
 748.521 600 l 1xf4
 623.853 60 l 2
 613.463 15 530.691 -10 467.691 -10 c 1
 467.691 -10 442.086 87 345.704 120 c 1
 345.088 113 344.703 107 343.087 100 c 0
 327.85 34 261.383 -20 195.383 -20 c 0
 129.383 -20 87.8496 34 103.087 100 c 0
 118.324 166 184.791 220 250.791 220 c 0
 254.791 220 257.791 220 261.791 220 c 1
 302.033 338 433.805 363 456.199 460 c 0
 464.279 495 457.59 518 440.823 545 c 1
 393.125 490 l 1
 388.125 490 l 1
 343.125 490 l 1
 343.514 522 331.978 550 301.978 550 c 0
 267.978 550 244.206 525 229.895 489 c 1
 244.511 496 260.434 500 275.434 500 c 0
 325.434 500 356.199 460 344.656 410 c 0
 333.112 360 283.878 320 233.878 320 c 0
 162.878 320 139.577 388 156.199 460 c 0
 168.436 513 222.83 610 310.83 610 c 0
 354.83 610 378.903 580 387.285 547 c 1
 435.83 610 l 1
 464.83 610 l 1xf8
 517.905 593 560.131 542 541.199 460 c 0
 513.265 339 403.338 309 377.097 204 c 1
 441.479 184 486.321 140 512.395 97 c 1
 628.521 600 l 1xf4
234.63 150 m 0
 206.63 150 179.551 128 173.087 100 c 0
 166.622 72 183.543 50 211.543 50 c 0
 239.543 50 266.622 72 273.087 100 c 0
 279.551 128 262.63 150 234.63 150 c 0
EndSplineSet
EndChar

StartChar: uni0E31
Encoding: 3633 3633 45
Width: 0
VWidth: 0
Flags: W
HStem: 710 75<-95.295 49.1347> 905 50<-163.529 -90.7933>
VStem: 124.707 100<866.622 930>
LayerCount: 2
Fore
SplineSet
-109.521 955 m 0
 -59.5205 955 -28.7559 915 -40.2988 865 c 0
 -47.4561 834 -69.9199 806 -97.6143 790 c 1
 -81.5371 786 -60.7686 785 -33.7686 785 c 0
 53.2314 785 106.007 849 124.707 930 c 1
 224.707 930 l 1
 197.927 814 105.916 710 -51.084 710 c 0
 -141.084 710 -244.771 759 -220.299 865 c 0
 -208.756 915 -159.521 955 -109.521 955 c 0
-121.064 905 m 0
 -143.064 905 -165.22 887 -170.299 865 c 0
 -175.378 843 -161.534 825 -139.534 825 c 0
 -117.534 825 -95.3779 843 -90.2988 865 c 0
 -85.2197 887 -99.0645 905 -121.064 905 c 0
EndSplineSet
Substitution2: "Thai Tone & Vowel Above-Narrow" uni0E31.narrow
Position2: "Vowel Above-Left" dx=-240 dy=0 dh=0 dv=0
EndChar

StartChar: uni0E4C
Encoding: 3660 3660 46
Width: 0
VWidth: 0
Flags: W
HStem: 980 45<0.338492 64.9056>
VStem: 123.431 104<1206.36 1245>
LayerCount: 2
Fore
SplineSet
42.8008 1095 m 0
 23.8008 1095 5.10645 1079 0.720703 1060 c 0
 -3.66602 1041 7.63965 1025 26.6396 1025 c 0
 46.6396 1025 66.334 1041 70.7207 1060 c 0
 75.1064 1079 62.8008 1095 42.8008 1095 c 0
123.431 1245 m 1
 227.431 1245 l 1
 212.886 1182 148.652 1155 99.2646 1123 c 1
 114.802 1108 120.492 1085 114.721 1060 c 0
 104.562 1016 61.251 980 16.251 980 c 0
 -27.749 980 -55.4375 1016 -45.2793 1060 c 0
 -22.8857 1157 107.963 1178 123.431 1245 c 1
EndSplineSet
Position2: "Tone High-Left" dx=-140 dy=0 dh=0 dv=0
MultipleSubs2: "Tone High-Low" uni0E4C.low
EndChar

StartChar: uni0E39
Encoding: 3641 3641 47
Width: 0
VWidth: 0
Flags: W
HStem: -350 60<-339.378 -242.695> -260 55<-453.587 -430.025> -125 55<-446.565 -372.482>
LayerCount: 2
Fore
SplineSet
-310.804 -350 m 0
 -420.804 -350 -439.338 -309 -430.025 -260 c 1
 -432.025 -260 -433.025 -260 -435.025 -260 c 0
 -487.025 -260 -520.099 -217 -508.094 -165 c 0
 -496.088 -113 -443.161 -70 -391.161 -70 c 0
 -339.161 -70 -306.088 -113 -318.094 -165 c 2
 -338.871 -255 l 2
 -342.565 -271 -331.952 -290 -296.952 -290 c 0
 -261.952 -290 -242.565 -271 -238.871 -255 c 2
 -198.47 -80 l 1
 -108.47 -80 l 1
 -148.871 -255 l 2
 -160.646 -306 -196.804 -350 -310.804 -350 c 0
-403.858 -125 m 0
 -425.858 -125 -448.014 -143 -453.094 -165 c 0
 -458.172 -187 -444.328 -205 -422.328 -205 c 0
 -400.328 -205 -378.172 -187 -373.094 -165 c 0
 -368.014 -143 -381.858 -125 -403.858 -125 c 0
EndSplineSet
Position2: "Vowel Below-Low" dx=0 dy=-200 dh=0 dv=0
EndChar

StartChar: uni0E03
Encoding: 3587 3587 48
Width: 690
VWidth: 0
Flags: W
HStem: -20 100<367.21 501.842> 320 45<211.508 287.815> 455 45<230.36 297.976> 550 60<250.646 337.31> 580 20G<623.903 748.521>
LayerCount: 2
Fore
SplineSet
388.125 490 m 1xe8
 343.125 490 l 1
 343.514 522 331.978 550 301.978 550 c 0
 267.978 550 244.206 525 229.895 489 c 1
 244.511 496 260.434 500 275.434 500 c 0
 325.434 500 356.199 460 344.656 410 c 0
 333.112 360 283.878 320 233.878 320 c 0
 162.878 320 139.577 388 156.199 460 c 0
 168.436 513 222.83 610 310.83 610 c 0
 354.83 610 378.903 580 387.285 547 c 1
 435.83 610 l 1
 464.83 610 l 1xf0
 517.905 593 560.131 542 541.199 460 c 0
 513.033 338 401.107 308 376.174 200 c 2
 362.321 140 l 2
 353.549 102 378.47 80 428.47 80 c 0
 478.47 80 513.549 102 522.321 140 c 2
 628.521 600 l 1
 748.521 600 l 1
 642.321 140 l 2
 631.24 92 573.383 -20 405.383 -20 c 0
 237.383 -20 231.24 92 242.321 140 c 2
 256.174 200 l 2
 287.571 336 432.65 358 456.199 460 c 0
 464.279 495 457.59 518 440.823 545 c 1
 393.125 490 l 1
 388.125 490 l 1xe8
265.045 455 m 0
 240.045 455 215.428 435 209.656 410 c 0
 203.884 385 219.267 365 244.267 365 c 0
 269.267 365 293.884 385 299.656 410 c 0
 305.428 435 290.045 455 265.045 455 c 0
EndSplineSet
EndChar

StartChar: uni0E22
Encoding: 3618 3618 49
Width: 660
VWidth: 0
Flags: W
HStem: -20 95<240.293 465.631> 260 70<286.392 380.025> 395 55<295.921 383.989> 550 60<307.47 394.394> 580 20G<593.903 718.521>
LayerCount: 2
Fore
SplineSet
356.978 550 m 0xf0
 328.978 550 301.898 528 295.434 500 c 0
 288.97 472 305.891 450 333.891 450 c 0
 361.891 450 388.97 472 395.434 500 c 0
 401.898 528 384.978 550 356.978 550 c 0xf0
598.521 600 m 1xe8
 718.521 600 l 1xe8
 598.47 80 l 2
 593.159 57 454.383 -20 315.383 -20 c 0
 174.383 -20 70.1582 44 99.248 170 c 0
 113.792 233 155.027 273 209.799 298 c 1
 163.725 328 146.807 376 161.582 440 c 0
 185.361 543 269.83 610 355.83 610 c 0xf0
 439.83 610 461.516 548 450.434 500 c 0
 437.044 442 379.193 395 321.193 395 c 0
 295.193 395 273.502 405 258.195 421 c 1
 252.496 353 311.187 330 396.187 330 c 1
 380.025 260 l 1
 270.025 260 228.944 212 219.248 170 c 0
 203.779 103 261.315 75 337.315 75 c 0
 415.315 75 465.933 95 485.396 110 c 1
 598.521 600 l 1xe8
EndSplineSet
EndChar

StartChar: uni0E46
Encoding: 3654 3654 50
Width: 660
VWidth: 0
Flags: W
HStem: -290 100<256.135 360.902> 280 55<246.572 320.047> 415 55<252.535 327.187> 550 70<283.199 378.792>
LayerCount: 2
Fore
SplineSet
308.508 470 m 0
 360.508 470 393.581 427 381.575 375 c 0
 369.57 323 316.644 280 264.644 280 c 0
 166.644 280 157.729 380 175.045 455 c 0
 189.82 519 252.139 620 353.139 620 c 0
 412.139 620 438.365 582 448.131 542 c 1
 523.139 620 l 1
 563.139 620 l 1
 633.521 600 672.822 532 653.891 450 c 2
 526.913 -100 l 2
 499.901 -217 380.048 -290 233.048 -290 c 1
 256.135 -190 l 1
 317.135 -190 387.905 -178 406.913 -100 c 1
 533.891 450 l 2
 542.664 488 546.514 522 525.823 545 c 1
 448.508 470 l 1
 378.508 470 l 1
 388.666 514 380.978 550 336.978 550 c 0
 286.978 550 261.127 503 250.045 455 c 0
 249.814 454 249.583 453 249.353 452 c 1
 268.123 464 288.508 470 308.508 470 c 0
295.811 415 m 0
 273.811 415 251.654 397 246.575 375 c 0
 241.496 353 255.341 335 277.341 335 c 0
 299.341 335 321.496 353 326.575 375 c 0
 331.654 397 317.811 415 295.811 415 c 0
EndSplineSet
EndChar

StartChar: uni0E47
Encoding: 3655 3655 51
Width: 0
VWidth: 0
Flags: W
HStem: 690 50<-113.944 -43.8476> 790 20G<-189.698 -117.997> 840 40<-28.8331 27.3482> 910 65<-219.433 32.0801>
VStem: 63.5664 80<1008.38 1055>
LayerCount: 2
Fore
SplineSet
13.1641 880 m 0
 52.1641 880 76.0068 849 67.0029 810 c 0
 52.9199 749 -7.70117 690 -80.7012 690 c 0
 -126.701 690 -156.391 713 -168.772 746 c 1
 -209.547 695 l 1
 -291.547 695 -347.541 747 -327.225 835 c 0
 -306.908 923 -226.903 975 -144.903 975 c 2
 -24.9033 975 l 2
 18.0967 975 54.5625 1016 63.5664 1055 c 1
 143.566 1055 l 1
 126.943 983 42.0898 910 -29.9102 910 c 2
 -159.91 910 l 2
 -207.91 910 -238.222 874 -247.225 835 c 0
 -254.844 802 -246.231 770 -213.078 762 c 1
 -172.997 810 l 1
 -117.997 810 l 1
 -124.461 782 -117.157 740 -69.1572 740 c 0
 -59.1572 740 -50.6953 742 -43.0029 745 c 1
 -66.6943 755 -79.9229 780 -72.9971 810 c 0
 -63.9932 849 -25.8359 880 13.1641 880 c 0
3.92969 840 m 0
 -13.0703 840 -29.0723 827 -32.9971 810 c 0
 -36.9219 793 -26.9229 780 -9.92285 780 c 0
 7.07715 780 23.0781 793 27.0029 810 c 0
 30.9277 827 20.9297 840 3.92969 840 c 0
EndSplineSet
Substitution2: "Thai Tone & Vowel Above-Narrow" uni0E47.narrow
Position2: "Vowel Above-Left" dx=-180 dy=0 dh=0 dv=0
EndChar

StartChar: uni0E0B
Encoding: 3595 3595 52
Width: 710
VWidth: 0
Flags: W
HStem: -20 100<367.21 501.842> 320 45<211.508 287.815> 455 45<230.36 297.976> 550 60<250.646 337.31>
VStem: 716.225 110<647.754 720>
LayerCount: 2
Fore
SplineSet
575.421 370 m 2
 579.808 389 554.425 409 530.119 425 c 1
 491.417 331 398.568 297 376.174 200 c 2
 362.321 140 l 2
 353.549 102 378.47 80 428.47 80 c 0
 478.47 80 513.549 102 522.321 140 c 2
 575.421 370 l 2
265.045 455 m 0
 240.045 455 215.428 435 209.656 410 c 0
 203.884 385 219.267 365 244.267 365 c 0
 269.267 365 293.884 385 299.656 410 c 0
 305.428 435 290.045 455 265.045 455 c 0
388.125 490 m 1
 343.125 490 l 1
 343.514 522 331.978 550 301.978 550 c 0
 267.978 550 244.206 525 229.895 489 c 1
 244.511 496 260.434 500 275.434 500 c 0
 325.434 500 356.199 460 344.656 410 c 0
 333.112 360 283.878 320 233.878 320 c 0
 162.878 320 139.577 388 156.199 460 c 0
 168.436 513 222.83 610 310.83 610 c 0
 354.83 610 378.903 580 387.285 547 c 1
 435.83 610 l 1
 464.83 610 l 1
 508.598 596 545.056 559 545.665 501 c 1
 613.898 528 689.444 604 716.225 720 c 1
 826.225 720 l 1
 794.365 582 701.279 495 595.969 459 c 1
 644.352 439 703.732 406 695.421 370 c 2
 642.321 140 l 2
 631.24 92 573.383 -20 405.383 -20 c 0
 237.383 -20 231.24 92 242.321 140 c 2
 256.174 200 l 2
 287.571 336 432.65 358 456.199 460 c 0
 464.279 495 457.59 518 440.823 545 c 1
 393.125 490 l 1
 388.125 490 l 1
EndSplineSet
Substitution2: "Ascent Substitute" uni0E0B.alt
EndChar

StartChar: uni0E02
Encoding: 3586 3586 53
Width: 660
VWidth: 0
Flags: W
HStem: -20 100<337.21 471.842> 350 45<203.409 279.742> 545 65<279.051 399.38> 580 20G<593.903 718.521>
LayerCount: 2
Fore
SplineSet
355.83 610 m 0xe0
 482.83 610 507.36 530 491.199 460 c 0
 463.033 338 373.646 319 346.174 200 c 2
 332.321 140 l 2
 323.549 102 348.47 80 398.47 80 c 0
 448.47 80 483.549 102 492.321 140 c 2
 598.521 600 l 1
 718.521 600 l 1xd0
 612.321 140 l 2
 601.24 92 543.383 -20 375.383 -20 c 0
 207.383 -20 201.24 92 212.321 140 c 2
 226.174 200 l 2
 257.571 336 379.419 344 406.199 460 c 0
 418.436 513 393.823 545 340.823 545 c 0
 319.823 545 297.669 540 278.129 529 c 1
 321.975 524 347.202 486 336.582 440 c 0
 325.039 390 275.804 350 225.804 350 c 0
 170.804 350 141.193 395 155.045 455 c 0
 174.669 540 260.83 610 355.83 610 c 0xe0
256.971 485 m 0
 231.971 485 207.354 465 201.582 440 c 0
 195.811 415 211.193 395 236.193 395 c 0
 261.193 395 285.811 415 291.582 440 c 0
 297.354 465 281.971 485 256.971 485 c 0
EndSplineSet
EndChar

StartChar: uni0E0A
Encoding: 3594 3594 54
Width: 680
VWidth: 0
Flags: W
HStem: -20 100<337.21 471.842> 350 45<203.409 279.742> 545 65<279.051 400.22>
VStem: 686.225 110<648.157 720>
LayerCount: 2
Fore
SplineSet
545.421 370 m 2
 550.731 393 512.733 419 484.428 435 c 1
 450.341 335 371.569 310 346.174 200 c 2
 332.321 140 l 2
 323.549 102 348.47 80 398.47 80 c 0
 448.47 80 483.549 102 492.321 140 c 2
 545.421 370 l 2
565.969 459 m 1
 614.352 439 673.732 406 665.421 370 c 2
 612.321 140 l 2
 601.24 92 543.383 -20 375.383 -20 c 0
 207.383 -20 201.24 92 212.321 140 c 2
 226.174 200 l 2
 257.571 336 379.419 344 406.199 460 c 0
 418.436 513 393.823 545 340.823 545 c 0
 319.823 545 297.669 540 278.129 529 c 1
 321.975 524 347.202 486 336.582 440 c 0
 325.039 390 275.804 350 225.804 350 c 0
 170.804 350 141.193 395 155.045 455 c 0
 174.669 540 260.83 610 355.83 610 c 0
 461.83 610 496.901 554 495.049 494 c 1
 568.436 513 656.674 592 686.225 720 c 1
 796.225 720 l 1
 764.365 582 671.279 495 565.969 459 c 1
256.971 485 m 0
 231.971 485 207.354 465 201.582 440 c 0
 195.811 415 211.193 395 236.193 395 c 0
 261.193 395 285.811 415 291.582 440 c 0
 297.354 465 281.971 485 256.971 485 c 0
EndSplineSet
Substitution2: "Ascent Substitute" uni0E0A.alt
EndChar

StartChar: uni0E19
Encoding: 3609 3609 55
Width: 690
VWidth: 0
Flags: W
HStem: -20 70<474.074 561.549> 380 65<231.395 247.729> 545 65<241.471 328.738> 580 20G<593.903 718.521>
LayerCount: 2
Fore
SplineSet
404.011 104 m 1xd0
 337.697 55 287.691 -10 287.691 -10 c 1
 224.691 -10 163.463 15 173.853 60 c 2
 247.729 380 l 1
 187.423 383 149.966 433 164.279 495 c 0
 179.056 559 241.83 610 305.83 610 c 0xe0
 369.83 610 409.056 559 394.279 495 c 2
 302.625 98 l 1
 358.323 153 439.482 210 512.176 226 c 1
 598.521 600 l 1
 718.521 600 l 1
 628.482 210 l 1
 610.636 202 l 1
 638.787 181 653.014 143 643.087 100 c 0
 627.85 34 561.383 -20 495.383 -20 c 0
 429.383 -20 387.85 34 403.087 100 c 0
 403.317 101 403.779 103 404.011 104 c 1xd0
290.823 545 m 0
 262.823 545 235.744 523 229.279 495 c 0
 222.815 467 239.736 445 267.736 445 c 0
 295.736 445 322.815 467 329.279 495 c 0
 335.744 523 318.823 545 290.823 545 c 0
534.63 150 m 0
 506.63 150 479.551 128 473.087 100 c 0
 466.622 72 483.543 50 511.543 50 c 0
 539.543 50 566.622 72 573.087 100 c 0
 579.551 128 562.63 150 534.63 150 c 0
EndSplineSet
EndChar

StartChar: uni0E23
Encoding: 3619 3619 56
Width: 570
VWidth: 0
Flags: W
HStem: -10 70<326.383 413.858> 160 70<336.971 403.1> 390 50<272.582 387.51> 535 75<617.807 653.515> 540 80<336.128 527.69>
LayerCount: 2
Fore
SplineSet
588.132 555 m 1xe8
 599.364 569 639.83 610 670.83 610 c 1
 653.515 535 l 1xf0
 622.515 535 586.279 495 569.662 475 c 1
 541.128 516 493.669 540 424.669 540 c 0
 348.669 540 289.587 492 272.582 440 c 1
 461.12 438 567.427 422 541.569 310 c 2
 495.396 110 l 2
 480.158 44 413.691 -10 347.691 -10 c 0
 281.691 -10 240.158 44 255.396 110 c 0
 270.633 176 337.1 230 403.1 230 c 1
 421.569 310 l 2
 439.115 386 377.039 390 140.039 390 c 1
 174.669 540 309.139 620 443.139 620 c 0
 527.139 620 567.596 583 588.132 555 c 1xe8
386.938 160 m 0
 358.938 160 331.859 138 325.396 110 c 0
 318.932 82 335.853 60 363.853 60 c 0
 391.853 60 418.932 82 425.396 110 c 0
 431.859 138 414.938 160 386.938 160 c 0
EndSplineSet
EndChar

StartChar: uni0E07
Encoding: 3591 3591 57
Width: 560
VWidth: 0
Flags: W
HStem: 285 85<135.421 169.141> 380 65<431.395 447.729> 545 65<441.471 528.738>
LayerCount: 2
Fore
SplineSet
378.238 79 m 1
 447.729 380 l 1
 387.423 383 349.966 433 364.279 495 c 0
 379.056 559 441.83 610 505.83 610 c 0
 569.83 610 609.056 559 594.279 495 c 2
 493.853 60 l 2
 483.463 15 380.691 -10 317.691 -10 c 1
 242.251 209 164.798 285 115.798 285 c 1
 135.421 370 l 1
 228.421 370 303.565 271 378.238 79 c 1
490.823 545 m 0
 462.823 545 435.744 523 429.279 495 c 0
 422.815 467 439.736 445 467.736 445 c 0
 495.736 445 522.815 467 529.279 495 c 0
 535.744 523 518.823 545 490.823 545 c 0
EndSplineSet
EndChar

StartChar: uni0E0E
Encoding: 3598 3598 58
Width: 700
VWidth: 0
Flags: W
HStem: -300 65<132.974 253.949> -165 65<137.813 274.039> -10 65<149.783 237.05> 155 64<161.282 215.901> 525 95<379.13 561.071>
LayerCount: 2
Fore
SplineSet
210.784 155 m 0
 182.784 155 155.705 133 149.241 105 c 0
 142.777 77 159.697 55 187.697 55 c 0
 215.697 55 242.777 77 249.241 105 c 0
 255.705 133 238.784 155 210.784 155 c 0
175.746 -235 m 0
 216.746 -235 249.747 -222 274.828 -187 c 1
 246.829 -174 217.907 -165 191.907 -165 c 0
 163.907 -165 139.829 -174 133.826 -200 c 0
 128.055 -225 147.746 -235 175.746 -235 c 0
610 0 m 1
 554.592 -240 l 2
 546.05 -277 444.048 -290 403.048 -290 c 1
 387.666 -270 360.668 -244 328.979 -221 c 1
 285.666 -270 226.739 -300 160.739 -300 c 0
 99.7393 -300 49.2812 -263 63.8262 -200 c 0
 78.6016 -136 145.913 -100 206.913 -100 c 0
 238.913 -100 272.835 -109 305.372 -124 c 1
 308.912 -113 311.451 -102 314.222 -90 c 1
 394.222 -90 l 1
 388.45 -115 379.909 -139 368.83 -161 c 1
 396.443 -180 420.596 -201 438.979 -221 c 1
 490 0 l 1
 582.348 400 l 2
 601.278 482 559.206 525 481.206 525 c 0
 408.206 525 344.818 493 310.352 439 c 1
 434.656 410 l 1
 430.039 390 l 1
 430.039 390 366.114 373 344.644 280 c 2
 335.408 240 l 2
 324.788 194 331.557 180 314.241 105 c 0
 299.466 41 236.691 -10 172.691 -10 c 0
 108.691 -10 69.4658 41 84.2412 105 c 0
 97.8623 164 152.944 212 211.561 219 c 1
 211.945 225 213.562 232 215.408 240 c 2
 224.644 280 l 2
 239.649 345 275.807 376 300.039 390 c 1
 186.965 420 l 1
 207.432 474 327.139 620 503.139 620 c 0
 644.139 620 733.515 535 702.348 400 c 2
 610 0 l 1
EndSplineSet
Substitution2: "Descent Shorten" uni0E0E.shorten
EndChar

StartChar: uni0E2B
Encoding: 3627 3627 59
Width: 700
VWidth: 0
Flags: W
HStem: 0 21G<160 294.617 490 614.617> 380 65<231.395 247.729> 545 65<241.471 328.738 611.471 698.738>
LayerCount: 2
Fore
SplineSet
290.823 545 m 0
 262.823 545 235.744 523 229.279 495 c 0
 222.815 467 239.736 445 267.736 445 c 0
 295.736 445 322.815 467 329.279 495 c 0
 335.744 523 318.823 545 290.823 545 c 0
675.83 610 m 0
 739.83 610 779.056 559 764.279 495 c 0
 754.814 454 724.503 418 687.654 397 c 1
 700.039 390 l 1
 610 0 l 1
 490 0 l 1
 569.419 344 l 1
 475.8 311 326.478 158 310.086 87 c 2
 290 0 l 1
 160 0 l 1
 247.729 380 l 1
 187.423 383 149.966 433 164.279 495 c 0
 179.056 559 241.83 610 305.83 610 c 0
 369.83 610 409.056 559 394.279 495 c 2
 337.486 249 l 1
 372.952 290 465.807 376 551.656 410 c 1
 533.504 431 526.661 462 534.279 495 c 0
 549.056 559 611.83 610 675.83 610 c 0
660.823 545 m 0
 632.823 545 605.744 523 599.279 495 c 0
 592.815 467 609.736 445 637.736 445 c 0
 665.736 445 692.815 467 699.279 495 c 0
 705.744 523 688.823 545 660.823 545 c 0
EndSplineSet
EndChar

StartChar: uni0E3A
Encoding: 3642 3642 60
Width: 0
VWidth: 0
Flags: W
HStem: -220 150<-243.887 -153.065>
VStem: -273.476 150<-190.122 -99.8777>
LayerCount: 2
Fore
SplineSet
-123.476 -145 m 0
 -133.172 -187 -173.791 -220 -215.791 -220 c 0
 -257.791 -220 -283.172 -187 -273.476 -145 c 0
 -263.779 -103 -223.161 -70 -181.161 -70 c 0
 -139.161 -70 -113.779 -103 -123.476 -145 c 0
EndSplineSet
Position2: "Vowel Below-Low" dx=0 dy=-200 dh=0 dv=0
EndChar

StartChar: uni0E53
Encoding: 3667 3667 61
Width: 850
VWidth: 0
Flags: W
HStem: -20 75<289.499 390.028> 0 21G<650 774.617> 185 75<305.006 408.149> 520 100<361.538 470.746>
LayerCount: 2
Fore
SplineSet
420.052 520 m 0x70
 361.052 520 292.506 444 259.261 300 c 0
 249.564 258 242.791 220 241.403 188 c 1
 274.33 231 327.025 260 380.025 260 c 0
 457.025 260 505.481 197 487.704 120 c 0
 469.928 43 392.383 -20 315.383 -20 c 0xb0
 146.383 -20 96.5498 115 139.261 300 c 0
 181.971 485 323.139 620 443.139 620 c 0
 528.139 620 575.133 568 580.97 472 c 1
 693.139 620 l 1
 743.139 620 l 1
 848.905 593 893.283 534 853.112 360 c 2
 770 0 l 1
 650 0 l 1
 733.112 360 l 2
 755.969 459 760.665 501 720.052 520 c 1
 566.187 330 l 1
 466.187 330 l 1
 499.432 474 479.052 520 420.052 520 c 0x70
362.711 185 m 0
 326.711 185 291.016 156 282.704 120 c 0
 274.393 84 296.697 55 332.697 55 c 0
 368.697 55 404.393 84 412.704 120 c 0
 421.016 156 398.711 185 362.711 185 c 0
EndSplineSet
EndChar

StartChar: uni0E24
Encoding: 3620 3620 62
Width: 680
VWidth: 0
Flags: W
HStem: -10 65<209.783 297.05> 155 65<290.791 307.126> 390 20<378.651 410.039> 525 95<359.13 541.071>
LayerCount: 2
Fore
SplineSet
144.241 105 m 2
 184.644 280 l 2
 199.419 344 236.037 377 264.962 394 c 1
 166.965 420 l 1
 187.432 474 307.139 620 483.139 620 c 0
 624.139 620 713.515 535 682.348 400 c 2
 590 0 l 1
 527.666 -270 l 1
 407.666 -270 l 1
 470 0 l 1
 562.348 400 l 2
 581.278 482 539.206 525 461.206 525 c 0
 388.206 525 324.818 493 290.352 439 c 1
 414.656 410 l 1
 410.039 390 l 1
 410.039 390 329.115 386 304.644 280 c 2
 290.791 220 l 1
 351.099 217 388.555 167 374.241 105 c 0
 359.466 41 296.691 -10 232.691 -10 c 0
 168.691 -10 129.466 41 144.241 105 c 2
270.784 155 m 0
 242.784 155 215.705 133 209.241 105 c 0
 202.777 77 219.697 55 247.697 55 c 0
 275.697 55 302.777 77 309.241 105 c 0
 315.705 133 298.784 155 270.784 155 c 0
EndSplineSet
EndChar

StartChar: uni0E26
Encoding: 3622 3622 63
Width: 700
VWidth: 0
Flags: W
HStem: -10 65<149.783 237.05> 155 64<161.282 215.901> 525 95<379.13 561.071>
LayerCount: 2
Fore
SplineSet
210.784 155 m 0
 182.784 155 155.705 133 149.241 105 c 0
 142.777 77 159.697 55 187.697 55 c 0
 215.697 55 242.777 77 249.241 105 c 0
 255.705 133 238.784 155 210.784 155 c 0
490 0 m 1
 582.348 400 l 2
 601.278 482 559.206 525 481.206 525 c 0
 408.206 525 344.818 493 310.352 439 c 1
 434.656 410 l 1
 430.039 390 l 1
 430.039 390 366.114 373 344.644 280 c 2
 335.408 240 l 2
 324.788 194 331.557 180 314.241 105 c 0
 299.466 41 236.691 -10 172.691 -10 c 0
 108.691 -10 69.4658 41 84.2412 105 c 0
 97.8623 164 152.944 212 211.561 219 c 1
 211.945 225 213.562 232 215.408 240 c 2
 224.644 280 l 2
 239.649 345 275.807 376 300.039 390 c 1
 186.965 420 l 1
 207.432 474 327.139 620 503.139 620 c 0
 644.139 620 733.515 535 702.348 400 c 2
 610 0 l 1
 547.666 -270 l 1
 427.666 -270 l 1
 490 0 l 1
EndSplineSet
EndChar

StartChar: uni0E45
Encoding: 3653 3653 64
Width: 320
VWidth: 0
Flags: W
HStem: 525 95<57.5479 191.577>
VStem: -117.652 120<400 465.708>
LayerCount: 2
Fore
SplineSet
202.348 400 m 2
 216.661 462 210.206 525 131.206 525 c 0
 52.2061 525 16.6611 462 2.34766 400 c 1
 -117.652 400 l 1
 -86.0234 537 17.1387 620 153.139 620 c 0
 289.139 620 353.977 537 322.348 400 c 2
 230 0 l 1
 167.666 -270 l 1
 47.666 -270 l 1
 110 0 l 1
 202.348 400 l 2
EndSplineSet
EndChar

StartChar: uni0E50
Encoding: 3664 3664 65
Width: 800
VWidth: 0
Flags: W
HStem: -20 100<323.493 522.716> 520 100<415.805 615.028>
LayerCount: 2
Fore
SplineSet
520.052 520 m 0
 395.052 520 287.195 421 259.261 300 c 0
 231.325 179 293.47 80 418.47 80 c 0
 543.47 80 651.325 179 679.261 300 c 0
 707.195 421 645.052 520 520.052 520 c 0
543.139 620 m 0
 726.139 620 840.124 477 799.261 300 c 0
 758.396 123 578.383 -20 395.383 -20 c 0
 212.383 -20 98.3965 123 139.261 300 c 0
 180.124 477 360.139 620 543.139 620 c 0
EndSplineSet
EndChar

StartChar: uni0E27
Encoding: 3623 3623 66
Width: 560
VWidth: 0
Flags: W
HStem: -10 70<336.383 423.858> 160 70<346.971 413.1> 525 95<297.045 443.76>
VStem: 126.965 120<420 475.713>
LayerCount: 2
Fore
SplineSet
505.396 110 m 2
 490.158 44 423.691 -10 357.691 -10 c 0
 291.691 -10 250.158 44 265.396 110 c 0
 280.633 176 347.1 230 413.1 230 c 1
 456.965 420 l 2
 469.894 476 450.206 525 376.206 525 c 0
 302.206 525 259.894 476 246.965 420 c 1
 126.965 420 l 1
 153.515 535 255.139 620 398.139 620 c 0
 541.139 620 603.515 535 576.965 420 c 2
 505.396 110 l 2
396.938 160 m 0
 368.938 160 341.859 138 335.396 110 c 0
 328.932 82 345.853 60 373.853 60 c 0
 401.853 60 428.932 82 435.396 110 c 0
 441.859 138 424.938 160 396.938 160 c 0
EndSplineSet
EndChar

StartChar: uni0E17
Encoding: 3607 3607 67
Width: 690
VWidth: 0
Flags: W
HStem: 0 21G<160 294.617 500 624.617> 380 65<231.395 247.729> 500 110<533.919 649.83> 545 65<241.471 328.738>
LayerCount: 2
Fore
SplineSet
247.729 380 m 1xe0
 187.423 383 149.966 433 164.279 495 c 0
 179.056 559 241.83 610 305.83 610 c 0xd0
 369.83 610 409.056 559 394.279 495 c 2
 368.884 385 l 1
 409.892 463 506.83 610 610.83 610 c 0
 688.83 610 749.748 562 714.656 410 c 2
 620 0 l 1
 500 0 l 1
 594.656 410 l 2
 608.739 471 611.434 500 565.434 500 c 0
 482.434 500 364.873 268 331.557 180 c 1
 290 0 l 1
 160 0 l 1
 247.729 380 l 1xe0
290.823 545 m 0
 262.823 545 235.744 523 229.279 495 c 0
 222.815 467 239.736 445 267.736 445 c 0
 295.736 445 322.815 467 329.279 495 c 0
 335.744 523 318.823 545 290.823 545 c 0
EndSplineSet
EndChar

StartChar: uni0E2C
Encoding: 3628 3628 68
Width: 810
VWidth: 0
Flags: W
HStem: 380 65<231.395 247.729> 545 65<241.471 328.738> 595 55<662.268 750.333>
VStem: 834.682 80<598.107 670>
AnchorPoint: "thai_above" 1033.27 630 basechar 0
LayerCount: 2
Fore
SplineSet
790.586 479 m 1xb0
 693.853 60 l 2
 688.542 37 665.925 17 636.154 5 c 0
 606.384 -7 558.691 -10 527.691 -10 c 1
 506.575 375 l 1
 307.691 -10 l 1
 276.691 -10 230.384 -7 206.154 5 c 0
 181.925 17 168.542 37 173.853 60 c 2
 247.729 380 l 1
 187.423 383 149.966 433 164.279 495 c 0
 179.056 559 241.83 610 305.83 610 c 0
 369.83 610 409.056 559 394.279 495 c 2
 309.32 127 l 1
 500.125 490 l 1
 566.125 490 l 1
 589.32 127 l 1
 661.812 441 l 1
 612.429 448 583.587 492 595.823 545 c 0xd0
 609.214 603 667.064 650 725.064 650 c 0
 769.064 650 800.831 623 807.827 584 c 1
 817.137 607 826.832 636 834.682 670 c 1
 914.682 670 l 1
 896.212 590 847.59 518 790.586 479 c 1xb0
712.366 595 m 0xb0
 684.366 595 657.287 573 650.823 545 c 0
 644.359 517 661.279 495 689.279 495 c 0
 717.279 495 744.359 517 750.823 545 c 0xd0
 757.287 573 740.366 595 712.366 595 c 0xb0
290.823 545 m 0
 262.823 545 235.744 523 229.279 495 c 0
 222.815 467 239.736 445 267.736 445 c 0
 295.736 445 322.815 467 329.279 495 c 0
 335.744 523 318.823 545 290.823 545 c 0
EndSplineSet
EndChar

StartChar: uni0E18
Encoding: 3608 3608 69
Width: 620
VWidth: 0
Flags: W
HStem: -20 100<254.069 414.821> 390 50<292.582 405.957> 535 75<637.807 673.515> 540 80<356.128 547.69>
LayerCount: 2
Fore
SplineSet
160.039 390 m 1xd0
 194.669 540 329.139 620 463.139 620 c 0xd0
 547.139 620 587.596 583 608.132 555 c 1
 619.364 569 659.83 610 690.83 610 c 1
 673.515 535 l 1xe0
 642.515 535 606.279 495 589.662 475 c 1
 561.128 516 513.669 540 444.669 540 c 0
 368.669 540 309.587 492 292.582 440 c 1
 486.12 438 627.427 422 601.569 310 c 2
 564.63 150 l 2
 536.003 26 417.383 -20 305.383 -20 c 0
 193.383 -20 96.0029 26 124.63 150 c 2
 161.569 310 l 1
 281.569 310 l 1
 244.63 150 l 2
 235.396 110 266.47 80 328.47 80 c 0
 390.47 80 435.396 110 444.63 150 c 2
 481.569 310 l 2
 499.115 386 397.039 390 160.039 390 c 1xd0
EndSplineSet
EndChar

StartChar: uni0E10
Encoding: 3600 3600 70
Width: 600
VWidth: 0
Flags: W
HStem: -340 50<35.8158 125.716> -220 50<39.9718 140.868> -200 35<384.498 398.826> -105 35<389.602 443.655> 120 60<196.936 277.843> 270 60<205.823 285.482> 390 50<292.582 407.51> 535 75<637.807 673.515> 540 80<356.128 547.69>
LayerCount: 2
Fore
SplineSet
608.132 555 m 1x9e80
 619.364 569 659.83 610 690.83 610 c 1
 673.515 535 l 1x9f
 642.515 535 606.279 495 589.662 475 c 1
 561.128 516 513.669 540 444.669 540 c 0
 368.669 540 309.587 492 292.582 440 c 1
 481.12 438 587.427 422 561.569 310 c 2
 503.853 60 l 2
 493.463 15 391.691 -10 347.691 -10 c 1
 358.47 80 351.707 146 332.865 190 c 1
 308.399 149 263.704 120 217.704 120 c 0
 159.704 120 123.555 167 136.945 225 c 0
 150.336 283 208.187 330 266.187 330 c 0
 344.187 330 392.024 247 402.091 139 c 1
 441.569 310 l 2
 459.115 386 397.039 390 160.039 390 c 1
 194.669 540 329.139 620 463.139 620 c 0
 547.139 620 587.596 583 608.132 555 c 1x9e80
252.334 270 m 0
 227.334 270 202.717 250 196.945 225 c 0
 191.174 200 206.557 180 231.557 180 c 0
 256.557 180 281.174 200 286.945 225 c 0
 292.717 250 277.334 270 252.334 270 c 0
141.438 -245 m 1
 128.9 -230 113.209 -220 89.209 -220 c 0xde
 64.209 -220 41.9004 -230 36.1289 -255 c 0
 30.3564 -280 48.0479 -290 73.0479 -290 c 0
 95.0479 -290 120.356 -280 141.438 -245 c 1
285.055 -225 m 1
 233.813 -330 l 1
 178.813 -330 l 1
 174.046 -316 169.277 -302 164.51 -288 c 1
 136.354 -319 101.505 -340 61.5049 -340 c 0
 11.5049 -340 -32.0312 -312 -18.8711 -255 c 0
 -5.71191 -198 50.752 -170 100.752 -170 c 0xde
 126.752 -170 147.675 -179 164.212 -194 c 1
 167.521 -184 170.291 -172 173.062 -160 c 1
 228.062 -160 l 1
 221.828 -187 211.594 -214 197.822 -239 c 1
 203.283 -250 208.743 -261 213.204 -272 c 1
 258.443 -180 l 1
 307.443 -180 l 1
 318.443 -180 l 1
 380.588 -279 l 1
 398.826 -200 l 1xbe
 362.826 -200 340.521 -171 348.833 -135 c 0
 357.145 -99 392.839 -70 428.839 -70 c 0
 464.839 -70 487.145 -99 478.833 -135 c 2
 445.356 -280 l 2
 436.584 -318 389.813 -330 348.813 -330 c 1
 285.055 -225 l 1
420.759 -105 m 0
 403.759 -105 387.758 -118 383.833 -135 c 0
 379.908 -152 389.906 -165 406.906 -165 c 0xbe
 423.906 -165 439.908 -152 443.833 -135 c 0
 447.758 -118 437.759 -105 420.759 -105 c 0
EndSplineSet
Substitution2: "Descent Substitute" uni0E10.descless
EndChar

StartChar: uni0E2F
Encoding: 3631 3631 71
Width: 560
VWidth: 0
Flags: W
HStem: -20 100<248.47 353.237> 360 70<285.45 436.718> 550 50<214.513 287.248>
VStem: 513.903 100<543.615 580>
LayerCount: 2
Fore
SplineSet
268.521 600 m 0
 318.521 600 349.286 560 337.743 510 c 0
 330.816 480 309.583 453 282.89 437 c 1
 300.735 432 322.273 430 344.273 430 c 0
 431.273 430 491.74 484 513.903 580 c 1
 583.903 580 l 1
 613.903 580 l 1
 519.248 170 l 2
 492.236 53 372.383 -20 225.383 -20 c 1
 248.47 80 l 1
 309.47 80 381.24 92 399.248 170 c 2
 450.731 393 l 1
 414.883 372 374.112 360 328.112 360 c 0
 230.112 360 133.271 404 157.743 510 c 0
 169.286 560 218.521 600 268.521 600 c 0
256.978 550 m 0
 234.978 550 212.822 532 207.743 510 c 0
 202.664 488 216.508 470 238.508 470 c 0
 260.508 470 282.664 488 287.743 510 c 0
 292.822 532 278.978 550 256.978 550 c 0
EndSplineSet
EndChar

StartChar: uni0E5A
Encoding: 3674 3674 72
Width: 720
VWidth: 0
Flags: W
HStem: -20 85<255.007 350.923 485.007 540.62> 360 70<295.45 446.718> 550 50<224.513 297.248>
VStem: 523.903 70<543.615 580>
LayerCount: 2
Fore
SplineSet
669.248 170 m 2
 642.236 53 558.383 -20 465.383 -20 c 1
 485.007 65 l 1
 522.007 65 561.24 92 579.248 170 c 2
 673.903 580 l 1
 763.903 580 l 1
 669.248 170 l 2
278.521 600 m 0
 328.521 600 359.286 560 347.743 510 c 0
 340.816 480 319.583 453 292.89 437 c 1
 310.735 432 332.273 430 354.273 430 c 0
 441.273 430 501.74 484 523.903 580 c 1
 593.903 580 l 1
 499.248 170 l 2
 472.236 53 349.383 -20 235.383 -20 c 1
 255.007 65 l 1
 316.007 65 391.24 92 409.248 170 c 2
 460.731 393 l 1
 424.883 372 384.112 360 338.112 360 c 0
 240.112 360 143.271 404 167.743 510 c 0
 179.286 560 228.521 600 278.521 600 c 0
266.978 550 m 0
 244.978 550 222.822 532 217.743 510 c 0
 212.664 488 226.508 470 248.508 470 c 0
 270.508 470 292.664 488 297.743 510 c 0
 302.822 532 288.978 550 266.978 550 c 0
EndSplineSet
EndChar

StartChar: uni0E13
Encoding: 3603 3603 73
Width: 950
VWidth: 0
Flags: W
HStem: -20 70<744.241 831.549> -10 65<209.783 297.05> 155 65<290.791 307.126> 390 20<378.651 410.039> 525 95<359.13 541.071> 580 20G<863.903 988.521>
LayerCount: 2
Fore
SplineSet
804.63 150 m 0xb0
 776.63 150 749.551 128 743.087 100 c 0
 736.622 72 753.543 50 781.543 50 c 0
 809.543 50 836.622 72 843.087 100 c 0
 849.551 128 832.63 150 804.63 150 c 0xb0
270.784 155 m 0
 242.784 155 215.705 133 209.241 105 c 0
 202.777 77 219.697 55 247.697 55 c 0x70
 275.697 55 302.777 77 309.241 105 c 0
 315.705 133 298.784 155 270.784 155 c 0
144.241 105 m 2
 184.644 280 l 2
 199.419 344 236.037 377 264.962 394 c 1
 166.965 420 l 1
 187.432 474 307.139 620 483.139 620 c 0x78
 624.139 620 713.515 535 682.348 400 c 2
 620.013 130 l 1
 614.472 106 l 1
 656.478 158 717.713 211 782.176 226 c 1
 868.521 600 l 1
 988.521 600 l 1
 898.482 210 l 1
 880.636 202 l 1
 908.787 181 923.014 143 913.087 100 c 0
 897.85 34 831.383 -20 765.383 -20 c 0xb4
 700.383 -20 660.157 31 671.933 95 c 1
 625.62 46 597.691 -10 597.691 -10 c 1
 534.691 -10 473.463 15 483.853 60 c 2
 500.013 130 l 1
 562.348 400 l 2
 581.278 482 539.206 525 461.206 525 c 0x78
 388.206 525 324.818 493 290.352 439 c 1
 414.656 410 l 1
 410.039 390 l 1
 410.039 390 329.115 386 304.644 280 c 2
 290.791 220 l 1
 351.099 217 388.555 167 374.241 105 c 0
 359.466 41 296.691 -10 232.691 -10 c 0
 168.691 -10 129.466 41 144.241 105 c 2
EndSplineSet
EndChar

StartChar: uni0E08
Encoding: 3592 3592 74
Width: 600
VWidth: 0
Flags: W
HStem: 150 65<221.722 308.798> 315 65<233.371 319.55> 525 95<303.575 478.4>
VStem: 126.965 120<420 471.499>
LayerCount: 2
Fore
SplineSet
369.945 225 m 1
 343.787 181 294.63 150 244.63 150 c 0
 180.63 150 141.404 201 156.18 265 c 0
 170.956 329 233.729 380 297.729 380 c 0
 389.729 380 428.874 281 437.632 163 c 1
 496.965 420 l 2
 511.048 481 477.206 525 396.206 525 c 0
 315.206 525 261.048 481 246.965 420 c 1
 126.965 420 l 1
 153.515 535 265.139 620 418.139 620 c 0
 571.139 620 643.515 535 616.965 420 c 2
 533.853 60 l 2
 523.463 15 421.691 -10 377.691 -10 c 1
 388.932 82 386.094 165 369.945 225 c 1
282.724 315 m 0
 254.724 315 227.645 293 221.18 265 c 0
 214.716 237 231.637 215 259.637 215 c 0
 287.637 215 314.716 237 321.18 265 c 0
 327.645 293 310.724 315 282.724 315 c 0
EndSplineSet
EndChar

StartChar: uni0E0D
Encoding: 3597 3597 75
Width: 930
VWidth: 0
Flags: W
HStem: -270 70<527.674 688.945> -110 45<487.052 551.336> -20 85<623.943 738.58> -10 65<209.783 297.05> 155 65<290.791 307.126> 390 20<378.651 410.039> 525 95<359.13 541.071> 580 20G<863.903 988.521>
VStem: 749.222 90<-143.858 -90>
LayerCount: 2
Fore
SplineSet
534.993 -65 m 0xcc80
 578.993 -65 606.683 -101 596.524 -145 c 0
 591.906 -165 580.751 -183 564.519 -197 c 1
 577.058 -199 589.826 -200 603.826 -200 c 0
 664.826 -200 731.906 -165 749.222 -90 c 1
 839.222 -90 l 1
 810.133 -216 683.666 -270 587.666 -270 c 0
 476.666 -270 421.287 -211 436.524 -145 c 0
 446.683 -101 490.993 -65 534.993 -65 c 0xcc80
524.604 -110 m 0
 505.604 -110 485.91 -126 481.524 -145 c 0
 477.138 -164 489.443 -180 508.443 -180 c 0
 527.443 -180 547.138 -164 551.524 -145 c 0
 555.91 -126 543.604 -110 524.604 -110 c 0
270.784 155 m 0
 242.784 155 215.705 133 209.241 105 c 0
 202.777 77 219.697 55 247.697 55 c 0xdc80
 275.697 55 302.777 77 309.241 105 c 0
 315.705 133 298.784 155 270.784 155 c 0
868.521 600 m 1xed80
 988.521 600 l 1
 880.013 130 l 2
 871.24 92 820.383 -20 655.383 -20 c 0xed80
 490.383 -20 491.24 92 500.013 130 c 2
 562.348 400 l 2
 581.278 482 539.206 525 461.206 525 c 0
 388.206 525 324.818 493 290.352 439 c 1
 414.656 410 l 1
 410.039 390 l 1
 410.039 390 329.115 386 304.644 280 c 2
 290.791 220 l 1
 351.099 217 388.555 167 374.241 105 c 0
 359.466 41 296.691 -10 232.691 -10 c 0
 168.691 -10 129.466 41 144.241 105 c 2
 184.644 280 l 2
 199.419 344 236.037 377 264.962 394 c 1
 166.965 420 l 1
 187.432 474 307.139 620 483.139 620 c 0xde80
 624.139 620 713.515 535 682.348 400 c 2
 620.013 130 l 2
 612.395 97 622.007 65 675.007 65 c 0
 728.007 65 752.395 97 760.013 130 c 2
 868.521 600 l 1xed80
EndSplineSet
Substitution2: "Descent Substitute" uni0E0D.descless
EndChar

StartChar: uni0E0F
Encoding: 3599 3599 76
Width: 700
VWidth: 0
Flags: W
HStem: -300 50<67.5232 157.118> -170 50<73.7881 176.354> -10 65<149.783 237.05> 155 64<161.282 215.901> 525 95<379.13 561.071>
LayerCount: 2
Fore
SplineSet
181.058 -199 m 1
 163.982 -182 143.752 -170 120.752 -170 c 0
 96.752 -170 73.5205 -184 67.5176 -210 c 0
 61.5146 -236 78.2832 -250 102.283 -250 c 0
 125.283 -250 155.515 -236 181.058 -199 c 1
210.784 155 m 0
 182.784 155 155.705 133 149.241 105 c 0
 142.777 77 159.697 55 187.697 55 c 0
 215.697 55 242.777 77 249.241 105 c 0
 255.705 133 238.784 155 210.784 155 c 0
490 0 m 1
 582.348 400 l 2
 601.278 482 559.206 525 481.206 525 c 0
 408.206 525 344.818 493 310.352 439 c 1
 434.656 410 l 1
 430.039 390 l 1
 430.039 390 366.114 373 344.644 280 c 2
 335.408 240 l 2
 324.788 194 331.557 180 314.241 105 c 0
 299.466 41 236.691 -10 172.691 -10 c 0
 108.691 -10 69.4658 41 84.2412 105 c 0
 97.8623 164 152.944 212 211.561 219 c 1
 211.945 225 213.562 232 215.408 240 c 2
 224.644 280 l 2
 239.649 345 275.807 376 300.039 390 c 1
 186.965 420 l 1
 207.432 474 327.139 620 503.139 620 c 0
 644.139 620 733.515 535 702.348 400 c 2
 610 0 l 1
 554.592 -240 l 2
 545.818 -278 439.048 -290 399.048 -290 c 1
 357.289 -185 l 1
 283.048 -290 l 1
 229.048 -290 l 1
 226.512 -275 219.667 -257 209.822 -239 c 1
 175.28 -276 132.739 -300 90.7393 -300 c 0
 41.7393 -300 -1.87305 -268 11.5176 -210 c 0
 24.9082 -152 83.2959 -120 132.296 -120 c 0
 161.296 -120 184.987 -130 205.293 -146 c 1
 208.141 -138 210.218 -129 212.296 -120 c 1
 272.296 -120 l 1
 266.524 -145 256.983 -169 245.135 -190 c 1
 252.364 -202 259.363 -215 265.131 -229 c 1
 335.987 -130 l 1
 395.987 -130 l 1
 399.987 -130 l 1
 438.517 -223 l 1
 490 0 l 1
EndSplineSet
Substitution2: "Descent Shorten" uni0E0F.shorten
EndChar

StartChar: uni0E4B
Encoding: 3659 3659 77
Width: 0
VWidth: 0
Flags: W
HStem: 1110 70<-27.5752 66.2637 162.425 256.264>
VStem: -43.7363 316.161
LayerCount: 2
Fore
SplineSet
105.512 1280 m 1
 185.512 1280 l 1
 162.425 1180 l 1
 272.425 1180 l 1
 256.264 1110 l 1
 146.264 1110 l 1
 118.56 990 l 1
 48.2559 1032 l 1
 66.2637 1110 l 1
 -43.7363 1110 l 1
 -27.5752 1180 l 1
 82.4248 1180 l 1
 105.512 1280 l 1
EndSplineSet
Position2: "Nikhahit & Tone High-Left" dx=-240 dy=0 dh=0 dv=0
Position2: "Mai Han-Akat & Tone High-Left" dx=-300 dy=0 dh=0 dv=0
Position2: "Tone High-Left" dx=-180 dy=0 dh=0 dv=0
MultipleSubs2: "Tone High-Low" uni0E4B.low
EndChar

StartChar: uni0E0F.shorten
Encoding: 63290 63290 78
Width: 690
VWidth: 0
Flags: W
HStem: -220 50<85.9929 175.587> -90 50<92.2576 194.824> -10 65<149.783 237.05> 155 64<161.282 215.901> 525 95<379.13 561.071>
LayerCount: 2
Fore
SplineSet
199.526 -119 m 1
 182.451 -102 162.222 -90 139.222 -90 c 0
 115.222 -90 91.9893 -104 85.9873 -130 c 0
 79.9844 -156 96.752 -170 120.752 -170 c 0
 143.752 -170 173.984 -156 199.526 -119 c 1
210.784 155 m 0
 182.784 155 155.705 133 149.241 105 c 0
 142.777 77 159.697 55 187.697 55 c 0
 215.697 55 242.777 77 249.241 105 c 0
 255.705 133 238.784 155 210.784 155 c 0
508.47 80 m 1
 582.348 400 l 2
 601.278 482 559.206 525 481.206 525 c 0
 408.206 525 344.818 493 310.352 439 c 1
 434.656 410 l 1
 430.039 390 l 1
 430.039 390 366.114 373 344.644 280 c 2
 335.408 240 l 2
 324.788 194 331.557 180 314.241 105 c 0
 299.466 41 236.691 -10 172.691 -10 c 0
 108.691 -10 69.4658 41 84.2412 105 c 0
 97.8623 164 152.944 212 211.561 219 c 1
 211.945 225 213.562 232 215.408 240 c 2
 224.644 280 l 2
 239.649 345 275.807 376 300.039 390 c 1
 186.965 420 l 1
 207.432 474 327.139 620 503.139 620 c 0
 644.139 620 733.515 535 702.348 400 c 2
 628.47 80 l 1
 610 0 l 1
 573.062 -160 l 2
 564.288 -198 457.518 -210 417.518 -210 c 1
 375.759 -105 l 1
 301.518 -210 l 1
 247.518 -210 l 1
 244.98 -195 238.137 -177 228.292 -159 c 1
 193.75 -196 151.209 -220 109.209 -220 c 0
 60.209 -220 16.5967 -188 29.9873 -130 c 0
 43.3779 -72 101.766 -40 150.766 -40 c 0
 179.766 -40 203.457 -50 223.763 -66 c 1
 226.609 -58 228.688 -49 230.766 -40 c 1
 290.766 -40 l 1
 284.993 -65 275.453 -89 263.604 -110 c 1
 270.834 -122 277.833 -135 283.601 -149 c 1
 354.457 -50 l 1
 414.457 -50 l 1
 418.457 -50 l 1
 456.986 -143 l 1
 490 0 l 1
 508.47 80 l 1
EndSplineSet
EndChar

StartChar: uni0E0E.shorten
Encoding: 63291 63291 79
Width: 690
VWidth: 0
Flags: W
HStem: -220 65<151.443 272.418> -85 65<156.283 292.509> -10 65<149.783 237.05> 155 64<161.282 215.901> 525 95<379.13 561.071>
LayerCount: 2
Fore
SplineSet
194.216 -155 m 0
 235.216 -155 268.217 -142 293.297 -107 c 1
 265.299 -94 236.376 -85 210.376 -85 c 0
 182.376 -85 158.299 -94 152.296 -120 c 0
 146.524 -145 166.216 -155 194.216 -155 c 0
210.784 155 m 0
 182.784 155 155.705 133 149.241 105 c 0
 142.777 77 159.697 55 187.697 55 c 0
 215.697 55 242.777 77 249.241 105 c 0
 255.705 133 238.784 155 210.784 155 c 0
508.47 80 m 1
 582.348 400 l 2
 601.278 482 559.206 525 481.206 525 c 0
 408.206 525 344.818 493 310.352 439 c 1
 434.656 410 l 1
 430.039 390 l 1
 430.039 390 366.114 373 344.644 280 c 2
 335.408 240 l 2
 324.788 194 331.557 180 314.241 105 c 0
 299.466 41 236.691 -10 172.691 -10 c 0
 108.691 -10 69.4658 41 84.2412 105 c 0
 97.8623 164 152.944 212 211.561 219 c 1
 211.945 225 213.562 232 215.408 240 c 2
 224.644 280 l 2
 239.649 345 275.807 376 300.039 390 c 1
 186.965 420 l 1
 207.432 474 327.139 620 503.139 620 c 0
 644.139 620 733.515 535 702.348 400 c 2
 628.47 80 l 1
 610 0 l 1
 573.062 -160 l 2
 564.519 -197 462.518 -210 421.518 -210 c 1
 406.135 -190 379.138 -164 347.447 -141 c 1
 304.135 -190 245.209 -220 179.209 -220 c 0
 118.209 -220 67.751 -183 82.2959 -120 c 0
 97.0713 -56 164.383 -20 225.383 -20 c 0
 257.383 -20 291.305 -29 323.842 -44 c 1
 327.381 -33 329.921 -22 332.691 -10 c 1
 412.691 -10 l 1
 406.92 -35 398.379 -59 387.3 -81 c 1
 414.913 -100 439.064 -121 457.447 -141 c 1
 490 0 l 1
 508.47 80 l 1
EndSplineSet
EndChar

StartChar: uni0E5B
Encoding: 3675 3675 80
Width: 1340
VWidth: 0
Flags: W
HStem: -20 70<302.003 515.535> 150 65<378.506 513.896> 245 55<374.261 446.966> 265 70<1126.27 1321.18> 380 55<379.63 454.107> 550 70<371.238 542.592>
VStem: 823.853 64.2422<178 231.866>
LayerCount: 2
Fore
SplineSet
435.428 435 m 0xee
 487.428 435 520.5 392 508.495 340 c 0
 496.49 288 443.562 245 391.562 245 c 0
 385.562 245 379.794 246 374.024 247 c 1
 384.945 225 406.637 215 439.637 215 c 0
 502.637 215 555.487 262 573.495 340 c 0
 594.966 433 584.978 550 466.978 550 c 0
 353.978 550 267.123 464 229.261 300 c 0xee
 197.4 162 263.543 50 401.543 50 c 0
 619.543 50 731.721 289 798.903 580 c 1
 868.903 580 l 1
 888.095 178 l 1
 1045.05 520 l 1
 1055.05 520 l 1
 1115.05 520 l 1
 1120.05 520 l 1
 1096.73 419 1106.34 335 1177.34 335 c 2
 1337.34 335 l 1
 1321.18 265 l 1
 1161.18 265 l 2xde
 1084.18 265 1050.72 302 1040.65 358 c 1
 903.853 60 l 1
 893.853 60 l 1
 833.853 60 l 1
 823.853 60 l 1
 808.652 371 l 1
 732.478 158 607.383 -20 385.383 -20 c 0
 208.383 -20 108.396 123 149.261 300 c 0
 193.587 492 331.139 620 483.139 620 c 0
 639.139 620 686.278 482 653.495 340 c 0
 628.792 233 536.63 150 424.63 150 c 0
 328.63 150 282.407 227 303.878 320 c 0
 318.884 385 378.428 435 435.428 435 c 0xee
422.729 380 m 0
 400.729 380 378.574 362 373.495 340 c 0
 368.416 318 382.261 300 404.261 300 c 0
 426.261 300 448.416 318 453.495 340 c 0
 458.574 362 444.729 380 422.729 380 c 0
EndSplineSet
EndChar

StartChar: uni0E4E
Encoding: 3662 3662 81
Width: 0
VWidth: 0
Flags: W
HStem: 700 70<-224.511 -125.702> 1060 70<-90.7626 7.60601>
VStem: 10.8682 70<1000 1056.45>
LayerCount: 2
Fore
SplineSet
-115.452 873 m 1
 -123.912 884 -137.527 890 -154.527 890 c 0
 -187.527 890 -220.53 864 -228.379 830 c 0
 -235.998 797 -215.231 770 -182.231 770 c 0
 -165.231 770 -148.615 777 -135.076 788 c 1
 -97.3887 739 l 1
 -125.93 715 -162.393 700 -198.393 700 c 0
 -269.393 700 -314.771 759 -298.379 830 c 0
 -284.989 888 -235.677 937 -180.752 954 c 1
 -182.52 968 -182.826 984 -179.132 1000 c 0
 -162.51 1072 -90.1191 1130 -19.1191 1130 c 0
 52.8809 1130 97.4902 1072 80.8682 1000 c 1
 10.8682 1000 l 1
 18.7178 1034 -1.2793 1060 -35.2793 1060 c 0
 -68.2793 1060 -101.282 1034 -109.132 1000 c 0
 -112.826 984 -109.981 966 -102.521 955 c 1
 -82.9062 949 -66.4453 938 -55.1396 922 c 1
 -115.452 873 l 1
EndSplineSet
EndChar

StartChar: uni0E4F
Encoding: 3663 3663 82
Width: 780
VWidth: 0
Flags: W
HStem: -20 80<300.459 514.698> 140 75<385.709 506.989> 385 75<411.532 532.812> 540 80<403.823 618.063>
LayerCount: 2
Fore
SplineSet
478.884 385 m 0
 431.884 385 385.111 347 374.261 300 c 0
 363.41 253 392.637 215 439.637 215 c 0
 486.637 215 533.41 253 544.261 300 c 0
 555.111 347 525.885 385 478.884 385 c 0
496.199 460 m 0
 584.199 460 639.577 388 619.261 300 c 0
 598.944 212 510.321 140 422.321 140 c 0
 334.321 140 278.944 212 299.261 300 c 0
 319.577 388 408.199 460 496.199 460 c 0
514.669 540 m 0
 381.669 540 249.966 433 219.261 300 c 0
 188.555 167 270.853 60 403.853 60 c 0
 536.853 60 668.555 167 699.261 300 c 0
 729.966 433 647.669 540 514.669 540 c 0
533.139 620 m 0
 710.139 620 820.124 477 779.261 300 c 0
 738.396 123 562.383 -20 385.383 -20 c 0
 208.383 -20 98.3965 123 139.261 300 c 0
 180.124 477 356.139 620 533.139 620 c 0
EndSplineSet
EndChar

StartChar: uni0E51
Encoding: 3665 3665 83
Width: 800
VWidth: 0
Flags: W
HStem: -60 100<409.234 507.938> 90 90<272.221 385.076> 350 70<420.798 508.273> 520 100<410.677 619.604>
LayerCount: 2
Fore
SplineSet
486.965 420 m 0
 552.965 420 594.498 366 579.261 300 c 0
 552.479 184 453.778 90 315.778 90 c 0
 177.778 90 112.479 184 139.261 300 c 0
 180.124 477 349.139 620 543.139 620 c 0
 737.139 620 840.124 477 799.261 300 c 0
 751.701 94 563.147 -60 386.147 -60 c 1
 409.234 40 l 1
 519.234 40 641.629 137 679.261 300 c 0
 707.195 421 658.052 520 520.052 520 c 0
 382.052 520 287.195 421 259.261 300 c 0
 244.023 234 263.557 180 336.557 180 c 0
 354.557 180 371.249 183 387.634 189 c 1
 347.79 207 327.717 250 339.261 300 c 0
 354.498 366 420.965 420 486.965 420 c 0
470.804 350 m 0
 442.804 350 415.725 328 409.261 300 c 0
 402.796 272 419.717 250 447.717 250 c 0
 475.717 250 502.796 272 509.261 300 c 0
 515.725 328 498.804 350 470.804 350 c 0
EndSplineSet
EndChar

StartChar: uni0E52
Encoding: 3666 3666 84
Width: 930
VWidth: 0
Flags: W
HStem: 0 100<243.087 763.087> 180 65<462.56 542.695> 335 65<470.683 551.774> 535 85<504.154 613.609> 790 20G<246.195 367.003>
VStem: 247.003 120<529.688 810>
LayerCount: 2
Fore
SplineSet
517.341 335 m 0
 492.341 335 467.724 315 461.952 290 c 0
 456.18 265 471.562 245 496.562 245 c 0
 521.562 245 546.18 265 551.952 290 c 0
 557.724 315 542.341 335 517.341 335 c 0
247.003 810 m 1
 367.003 810 l 1
 367.003 810 384.609 713 358.521 600 c 2
 243.087 100 l 1
 763.087 100 l 1
 830.039 390 l 2
 852.895 489 854.974 511 813.515 535 c 1
 707.348 400 l 1
 622.348 400 l 1
 617.348 400 l 1
 636.971 485 620.515 535 563.515 535 c 0
 506.515 535 471.971 485 452.348 400 c 0
 449.577 388 447.037 377 445.729 367 c 1
 470.346 387 501.348 400 532.348 400 c 0
 593.348 400 631.035 351 616.952 290 c 0
 602.869 229 542.557 180 481.557 180 c 0
 380.557 180 335.104 282 362.348 400 c 0
 389.59 518 482.139 620 583.139 620 c 0
 650.139 620 694.749 575 708.974 511 c 1
 793.139 620 l 1
 833.139 620 l 1
 938.905 593 984.207 538 950.039 390 c 2
 883.087 100 l 2
 871.543 50 805 0 750 0 c 2
 210 0 l 2
 155 0 111.543 50 123.087 100 c 2
 238.521 600 l 2
 262.993 706 247.003 810 247.003 810 c 1
EndSplineSet
EndChar

StartChar: uni0E54
Encoding: 3668 3668 85
Width: 890
VWidth: 0
Flags: W
HStem: 0 100<318.939 521.087 610.323 780> 160 70<578.599 641.082> 330 70<566.235 653.656> 500 100<398.94 807.435> 790 20G<935.19 1067>
VStem: 947.003 120<745 810>
LayerCount: 2
Fore
SplineSet
632.348 400 m 0
 698.348 400 739.881 346 724.643 280 c 0
 709.406 214 644.17 161 577.938 160 c 1
 598.475 132 625.626 111 651.087 100 c 1
 803.087 100 l 1
 780 0 l 1
 390 0 l 2
 210 0 109.32 127 149.261 300 c 0
 189.2 473 348.521 600 528.521 600 c 2
 708.521 600 l 2
 839.521 600 923.378 712 947.003 810 c 1
 1067 810 l 1
 1025.45 630 865.434 500 685.434 500 c 2
 505.434 500 l 2
 374.434 500 293.963 407 269.261 300 c 0
 244.558 193 282.087 100 413.087 100 c 2
 521.087 100 l 1
 499.396 123 452.711 185 472.334 270 c 0
 489.419 344 559.348 400 632.348 400 c 0
616.187 330 m 0
 588.187 330 561.107 308 554.643 280 c 0
 548.179 252 565.1 230 593.1 230 c 0
 621.1 230 648.179 252 654.643 280 c 0
 661.107 308 644.187 330 616.187 330 c 0
EndSplineSet
EndChar

StartChar: uni0E55
Encoding: 3669 3669 86
Width: 890
VWidth: 0
Flags: W
HStem: 0 100<318.939 521.087 610.323 780> 160 70<578.599 641.082> 330 70<566.235 653.656> 500 100<398.94 539.521 718.521 807.435> 730 70<608.528 696.003> 790 20G<935.421 1067>
VStem: 947.003 120<745 810>
LayerCount: 2
Fore
SplineSet
616.187 330 m 0xf2
 588.187 330 561.107 308 554.643 280 c 0
 548.179 252 565.1 230 593.1 230 c 0
 621.1 230 648.179 252 654.643 280 c 0
 661.107 308 644.187 330 616.187 330 c 0xf2
674.694 800 m 0xfa
 740.694 800 782.228 746 766.99 680 c 0
 759.833 649 742.369 621 718.521 600 c 1
 843.906 606 923.84 714 947.003 810 c 1
 1067 810 l 1xf6
 1025.45 630 865.434 500 685.434 500 c 2
 505.434 500 l 2
 374.434 500 293.963 407 269.261 300 c 0
 244.558 193 282.087 100 413.087 100 c 2
 521.087 100 l 1
 499.396 123 452.711 185 472.334 270 c 0
 489.419 344 559.348 400 632.348 400 c 0
 698.348 400 739.881 346 724.643 280 c 0
 709.406 214 644.17 161 577.938 160 c 1
 598.475 132 625.626 111 651.087 100 c 1
 803.087 100 l 1
 780 0 l 1
 390 0 l 2
 210 0 109.32 127 149.261 300 c 0
 189.2 473 348.521 600 528.521 600 c 2
 539.521 600 l 1
 525.369 621 519.833 649 526.99 680 c 0
 542.228 746 608.694 800 674.694 800 c 0xfa
658.534 730 m 0xfa
 630.534 730 603.455 708 596.99 680 c 0
 590.526 652 607.447 630 635.447 630 c 0
 663.447 630 690.526 652 696.99 680 c 0
 703.455 708 686.534 730 658.534 730 c 0xfa
EndSplineSet
EndChar

StartChar: uni0E56
Encoding: 3670 3670 87
Width: 800
VWidth: 0
Flags: W
HStem: -20 100<323.443 546.45> 160 70<281.979 343.144> 330 70<266.235 353.656> 500 100<373.169 629.582> 790 20G<206.225 347.003>
VStem: 227.003 120<626.719 810>
LayerCount: 2
Fore
SplineSet
332.348 400 m 0
 398.348 400 439.881 346 424.644 280 c 0
 409.637 215 346.632 163 281.938 160 c 1
 300.241 105 351.47 80 438.47 80 c 0
 563.47 80 647.862 164 679.261 300 c 0
 703.963 407 666.434 500 535.434 500 c 2
 435.434 500 l 2
 255.435 500 185.447 630 227.003 810 c 1
 347.003 810 l 1
 325.378 712 327.521 600 458.521 600 c 2
 558.521 600 l 2
 738.521 600 839.201 473 799.261 300 c 0
 754.011 104 595.383 -20 415.383 -20 c 0
 218.383 -20 136.088 113 172.334 270 c 0
 189.419 344 259.348 400 332.348 400 c 0
316.187 330 m 0
 288.187 330 261.107 308 254.644 280 c 0
 248.179 252 265.1 230 293.1 230 c 0
 321.1 230 348.179 252 354.644 280 c 0
 361.107 308 344.187 330 316.187 330 c 0
EndSplineSet
EndChar

StartChar: uni0E57
Encoding: 3671 3671 88
Width: 1050
VWidth: 0
Flags: W
HStem: -20 75<289.499 390.028> 185 75<305.006 408.149> 520 100<361.538 470.746> 580 20G<993.903 1108.52>
LayerCount: 2
Fore
SplineSet
362.711 185 m 0xc0
 326.711 185 291.016 156 282.704 120 c 0
 274.393 84 296.697 55 332.697 55 c 0
 368.697 55 404.393 84 412.704 120 c 0
 421.016 156 398.711 185 362.711 185 c 0xc0
913.1 230 m 2
 998.521 600 l 1
 1108.52 600 l 1xd0
 1023.1 230 l 2
 977.388 32 839.691 -10 657.691 -10 c 1
 678.47 80 l 1
 743.112 360 l 2
 765.969 459 760.665 501 720.052 520 c 1
 566.187 330 l 1
 466.187 330 l 1
 499.432 474 479.052 520 420.052 520 c 0
 361.052 520 292.506 444 259.261 300 c 0
 249.564 258 242.791 220 241.403 188 c 1
 274.33 231 327.025 260 380.025 260 c 0
 457.025 260 505.481 197 487.704 120 c 0
 469.928 43 392.383 -20 315.383 -20 c 0
 146.383 -20 96.5498 115 139.261 300 c 0
 181.971 485 323.139 620 443.139 620 c 0
 528.139 620 575.133 568 580.97 472 c 1
 693.139 620 l 1
 743.139 620 l 1xe0
 848.905 593 893.283 534 853.112 360 c 2
 790.316 88 l 1
 856.317 101 891.859 138 913.1 230 c 2
EndSplineSet
EndChar

StartChar: uni0E58
Encoding: 3672 3672 89
Width: 910
VWidth: 0
Flags: W
HStem: -20 85<585.806 718.679> 160 70<715.63 767.359> 330 70<726.181 813.924> 500 100<388.94 797.435> 790 20G<925.19 1057>
VStem: 937.003 120<745 810>
LayerCount: 2
Fore
SplineSet
792.348 400 m 0
 872.348 400 905.956 329 888.871 255 c 2
 876.174 200 l 2
 847.546 76 756.383 -20 630.383 -20 c 0
 533.383 -20 472.542 37 456.013 130 c 1
 357.691 -10 l 1
 177.691 -10 99.3203 127 139.261 300 c 0
 179.2 473 338.521 600 518.521 600 c 2
 698.521 600 l 2
 829.521 600 913.378 712 937.003 810 c 1
 1057 810 l 1
 1015.45 630 855.434 500 675.434 500 c 2
 495.434 500 l 2
 364.434 500 283.963 407 259.261 300 c 0
 238.713 211 245.628 124 325.625 98 c 1
 454.644 280 l 1
 464.644 280 l 1
 514.643 280 l 1
 564.643 280 l 1
 530.244 131 577.007 65 650.007 65 c 0
 712.007 65 754.704 120 767.862 164 c 1
 757.17 161 746.938 160 736.938 160 c 0
 670.938 160 629.406 214 644.643 280 c 0
 659.881 346 726.348 400 792.348 400 c 0
776.187 330 m 0
 748.187 330 721.107 308 714.643 280 c 0
 708.179 252 725.1 230 753.1 230 c 0
 781.1 230 808.179 252 814.643 280 c 0
 821.107 308 804.187 330 776.187 330 c 0
EndSplineSet
EndChar

StartChar: uni0E59
Encoding: 3673 3673 90
Width: 960
VWidth: 0
Flags: W
HStem: -20 75<289.499 390.028> 0 21G<576.046 695> 185 75<305.006 408.149> 520 100<361.538 473.166> 790 20G<992.386 1107>
LayerCount: 2
Fore
SplineSet
362.711 185 m 0xb8
 326.711 185 291.016 156 282.704 120 c 0
 274.393 84 296.697 55 332.697 55 c 0
 368.697 55 404.393 84 412.704 120 c 0
 421.016 156 398.711 185 362.711 185 c 0xb8
936.978 550 m 2
 997.003 810 l 1
 1107 810 l 1
 1046.98 550 l 2
 1003.8 363 901.261 300 719.261 300 c 1
 733.112 360 l 2
 755.969 459 759.281 508 712.36 530 c 1
 614.502 405 l 1
 695 0 l 1
 580 0 l 1x78
 496.965 420 l 2
 483.664 488 472.052 520 420.052 520 c 0
 361.052 520 292.506 444 259.261 300 c 0
 249.564 258 242.791 220 241.403 188 c 1
 274.33 231 327.025 260 380.025 260 c 0
 457.025 260 505.481 197 487.704 120 c 0
 469.928 43 392.383 -20 315.383 -20 c 0
 146.383 -20 96.5498 115 139.261 300 c 0
 181.971 485 323.139 620 443.139 620 c 0
 515.139 620 566.673 579 593.512 509 c 1
 683.139 620 l 1
 733.139 620 l 1
 829.598 596 868.282 521 845.886 398 c 1
 900.657 423 919.432 474 936.978 550 c 2
EndSplineSet
EndChar

StartChar: uni0E4A
Encoding: 3658 3658 91
Width: 0
VWidth: 0
Flags: W
HStem: 1026 40<-86.6202 -31.4082> 1030 50<53.3379 80.0661> 1126 40<-65.3882 -26.874> 1200 56<-59.4982 2.65785>
VStem: -136.811 149.842<1057 1156.96> 211.662 86<1170.63 1246>
LayerCount: 2
Fore
SplineSet
81.042 1200 m 1x7c
 49.1924 1166 l 1
 3.19238 1166 l 1
 4.11719 1183 -0.958008 1200 -22.958 1200 c 0
 -41.958 1200 -56.6523 1184 -65.7314 1162 c 1
 -58.2695 1164 -49.8076 1166 -40.8076 1166 c 0
 -2.80762 1166 21.8047 1134 13.0312 1096 c 0
 4.02734 1057 -35.1289 1026 -73.1289 1026 c 0xbc
 -129.129 1026 -150.662 1080 -136.811 1140 c 0
 -122.728 1201 -66.0293 1256 -10.0293 1256 c 0
 20.9707 1256 36.8916 1234 43.7354 1216 c 1
 73.9707 1256 l 1
 93.9707 1256 l 2
 149.971 1256 178.427 1206 164.575 1146 c 0
 161.343 1132 156.11 1118 149.34 1106 c 1
 168.88 1117 189.498 1150 211.662 1246 c 1
 297.662 1246 l 1
 272.267 1136 213.794 1030 41.7939 1030 c 1
 53.3379 1080 l 1
 75.3379 1080 89.3398 1106 98.5752 1146 c 0
 104.347 1171 100.195 1192 81.042 1200 c 1x7c
-50.042 1126 m 0
 -67.042 1126 -83.2744 1112 -86.9688 1096 c 0
 -90.8936 1079 -80.8945 1066 -63.8945 1066 c 0
 -47.8945 1066 -30.8936 1079 -26.9688 1096 c 0
 -23.2744 1112 -34.042 1126 -50.042 1126 c 0
EndSplineSet
Substitution2: "Thai Tone & Vowel Above-Narrow" uni0E4A.narrow
Position2: "Nikhahit & Tone High-Left" dx=-190 dy=0 dh=0 dv=0
Position2: "Mai Han-Akat & Tone High-Left" dx=-260 dy=0 dh=0 dv=0
Position2: "Tone High-Left" dx=-180 dy=0 dh=0 dv=0
MultipleSubs2: "Tone High-Low" uni0E4A.low
EndChar

StartChar: uni0E3F
Encoding: 3647 3647 92
Width: 780
VWidth: 0
Flags: W
HStem: 0 100<233.087 330 433.087 560.353> 365 100<317.354 414.267 517.354 609.489> 705 95<372.762 492.762 594.694 659.835>
LayerCount: 2
Fore
SplineSet
549.325 950 m 1
 629.325 950 l 1
 594.694 800 l 1
 786.771 796 828.376 686 803.903 580 c 0
 789.359 517 742.199 460 676.657 423 c 1
 747.808 389 785.032 325 763.1 230 c 0
 729.162 83 613 0 460 0 c 2
 410 0 l 1
 375.37 -150 l 1
 295.37 -150 l 1
 330 0 l 1
 90 0 l 1
 274.694 800 l 1
 514.694 800 l 1
 549.325 950 l 1
453.087 100 m 2
 555.087 100 625.554 154 643.1 230 c 0
 666.187 330 594.267 365 494.267 365 c 1
 433.087 100 l 1
 453.087 100 l 2
572.531 704 m 1
 517.354 465 l 1
 609.354 465 669.128 516 683.903 580 c 0
 702.604 661 672.146 698 572.531 704 c 1
437.354 465 m 1
 492.762 705 l 1
 372.762 705 l 1
 317.354 465 l 1
 437.354 465 l 1
353.087 100 m 1
 414.267 365 l 1
 294.267 365 l 1
 233.087 100 l 1
 353.087 100 l 1
EndSplineSet
EndChar

StartChar: uni0E11
Encoding: 3601 3601 93
Width: 770
VWidth: 0
Flags: W
HStem: 0 21G<230 364.617 570 694.617> 320 45<211.508 287.815> 455 45<230.36 297.976> 500 110<601.168 715.971> 550 60<250.646 337.31>
LayerCount: 2
Fore
SplineSet
265.045 455 m 0xe0
 240.045 455 215.428 435 209.656 410 c 0
 203.884 385 219.267 365 244.267 365 c 0
 269.267 365 293.884 385 299.656 410 c 0
 305.428 435 290.045 455 265.045 455 c 0xe0
388.125 490 m 1
 343.125 490 l 1
 343.514 522 331.978 550 301.978 550 c 0
 267.978 550 244.206 525 229.895 489 c 1
 244.511 496 260.434 500 275.434 500 c 0
 325.434 500 356.199 460 344.656 410 c 0
 333.112 360 283.878 320 233.878 320 c 0
 162.878 320 139.577 388 156.199 460 c 0
 168.436 513 222.83 610 310.83 610 c 0
 354.83 610 378.903 580 387.285 547 c 1
 435.83 610 l 1
 464.83 610 l 1xe8
 499.29 599 529.519 574 540.515 535 c 1
 583.211 577 631.83 610 680.83 610 c 0
 758.83 610 819.748 562 784.656 410 c 2
 690 0 l 1
 570 0 l 1
 664.656 410 l 2
 678.739 471 681.434 500 635.434 500 c 0xd0
 603.434 500 565.585 466 528.965 420 c 1
 494.187 330 428.106 295 406.174 200 c 2
 360 0 l 1
 230 0 l 1
 276.174 200 l 2
 307.571 336 432.65 358 456.199 460 c 0
 464.279 495 457.59 518 440.823 545 c 1
 393.125 490 l 1
 388.125 490 l 1
EndSplineSet
EndChar

StartChar: uni0E12
Encoding: 3602 3602 94
Width: 930
VWidth: 0
Flags: W
HStem: -20 70<494.074 581.549> 230 45<361.159 383.1> 365 45<370.718 447.198> 580 20G<353.639 406.214 530.829 592.639 863.903 988.521>
LayerCount: 2
Fore
SplineSet
414.267 365 m 0
 389.267 365 364.649 345 358.878 320 c 0
 353.106 295 368.488 275 393.488 275 c 0
 418.488 275 443.106 295 448.878 320 c 0
 454.649 345 439.267 365 414.267 365 c 0
868.521 600 m 1
 988.521 600 l 1
 863.853 60 l 2
 853.463 15 780.691 -10 717.691 -10 c 1
 717.691 -10 710.699 68 665.55 115 c 1
 665.396 110 664.241 105 663.087 100 c 0
 647.85 34 581.383 -20 515.383 -20 c 0
 449.383 -20 407.85 34 423.087 100 c 0
 434.169 148 472.865 190 518.252 209 c 1
 564.656 410 l 2
 584.279 495 546.206 525 546.206 525 c 1
 436.199 460 l 1
 356.206 525 l 1
 356.206 525 304.279 495 284.656 410 c 0
 254.412 279 274.716 237 250.013 130 c 1
 293.324 166 343.788 194 383.1 230 c 1
 333.1 230 302.334 270 313.878 320 c 0
 325.421 370 374.656 410 424.656 410 c 0
 474.656 410 505.421 370 493.878 320 c 0
 459.479 171 244.703 107 217.691 -10 c 1
 217.691 -10 79.6152 -6 86.9258 30 c 1
 86.9258 30 118.238 79 132.321 140 c 0
 155.87 242 133.488 275 164.656 410 c 0
 195.592 544 324.139 620 383.139 620 c 1
 458.132 555 l 1
 563.139 620 l 1
 622.139 620 715.592 544 684.656 410 c 2
 638.252 209 l 1
 697.326 192 733.707 146 753.087 100 c 1
 868.521 600 l 1
554.63 150 m 0
 526.63 150 499.551 128 493.087 100 c 0
 486.622 72 503.543 50 531.543 50 c 0
 559.543 50 586.622 72 593.087 100 c 0
 599.551 128 582.63 150 554.63 150 c 0
EndSplineSet
EndChar

StartChar: uni0E0C
Encoding: 3596 3596 95
Width: 930
VWidth: 0
Flags: W
HStem: -20 70<494.074 581.549> -10 65<209.783 297.05> 155 65<290.791 307.126> 390 20<378.651 410.039> 525 95<359.13 541.071> 580 20G<863.903 988.521>
LayerCount: 2
Fore
SplineSet
554.63 150 m 0xb0
 526.63 150 499.551 128 493.087 100 c 0
 486.622 72 503.543 50 531.543 50 c 0
 559.543 50 586.622 72 593.087 100 c 0
 599.551 128 582.63 150 554.63 150 c 0xb0
270.784 155 m 0
 242.784 155 215.705 133 209.241 105 c 0
 202.777 77 219.697 55 247.697 55 c 0x70
 275.697 55 302.777 77 309.241 105 c 0
 315.705 133 298.784 155 270.784 155 c 0
144.241 105 m 2
 184.644 280 l 2
 199.419 344 236.037 377 264.962 394 c 1
 166.965 420 l 1
 187.432 474 307.139 620 483.139 620 c 0x78
 624.139 620 713.515 535 682.348 400 c 2
 638.252 209 l 1
 697.326 192 733.707 146 753.087 100 c 1
 868.521 600 l 1
 988.521 600 l 1
 863.853 60 l 2
 853.463 15 780.691 -10 717.691 -10 c 1x74
 717.691 -10 710.699 68 665.55 115 c 1
 665.396 110 664.241 105 663.087 100 c 0
 647.85 34 581.383 -20 515.383 -20 c 0
 449.383 -20 407.85 34 423.087 100 c 0
 434.169 148 472.865 190 518.252 209 c 1
 562.348 400 l 2
 581.278 482 539.206 525 461.206 525 c 0xb8
 388.206 525 324.818 493 290.352 439 c 1
 414.656 410 l 1
 410.039 390 l 1
 410.039 390 329.115 386 304.644 280 c 2
 290.791 220 l 1
 351.099 217 388.555 167 374.241 105 c 0
 359.466 41 296.691 -10 232.691 -10 c 0
 168.691 -10 129.466 41 144.241 105 c 2
EndSplineSet
EndChar

StartChar: uni0E09
Encoding: 3593 3593 96
Width: 670
VWidth: 0
Flags: W
HStem: -20 70<464.074 551.549> 310 60<190.058 271.19> 525 95<342.374 526.212>
VStem: 166.965 120<420 471.499>
LayerCount: 2
Fore
SplineSet
394.011 104 m 1
 327.697 55 277.691 -10 277.691 -10 c 1
 214.691 -10 163.463 15 173.853 60 c 2
 196.938 160 l 1
 141.632 163 108.251 209 121.18 265 c 0
 134.57 323 192.421 370 250.421 370 c 0
 308.421 370 344.57 323 331.18 265 c 2
 292.625 98 l 1
 348.323 153 429.482 210 502.176 226 c 1
 546.965 420 l 2
 561.048 481 529.206 525 441.206 525 c 0
 353.206 525 301.048 481 286.965 420 c 1
 166.965 420 l 1
 193.515 535 309.139 620 463.139 620 c 0
 617.139 620 693.515 535 666.965 420 c 2
 618.482 210 l 1
 600.636 202 l 1
 628.787 181 643.014 143 633.087 100 c 0
 617.85 34 551.383 -20 485.383 -20 c 0
 419.383 -20 377.85 34 393.087 100 c 0
 393.317 101 393.779 103 394.011 104 c 1
236.569 310 m 0
 211.569 310 186.952 290 181.18 265 c 0
 175.408 240 190.791 220 215.791 220 c 0
 240.791 220 265.408 240 271.18 265 c 0
 276.952 290 261.569 310 236.569 310 c 0
524.63 150 m 0
 496.63 150 469.551 128 463.087 100 c 0
 456.622 72 473.543 50 501.543 50 c 0
 529.543 50 556.622 72 563.087 100 c 0
 569.551 128 552.63 150 524.63 150 c 0
EndSplineSet
EndChar

StartChar: uni0E0A.alt
Encoding: 3681 3681 97
Width: 680
VWidth: 0
Flags: W
HStem: -20 100<337.21 471.842> 350 45<203.409 279.742> 545 65<279.051 398.512> 550 100<677.397 786.978>
LayerCount: 2
Fore
SplineSet
545.421 370 m 2xc0
 550.731 393 512.733 419 484.428 435 c 1
 450.341 335 371.569 310 346.174 200 c 2
 332.321 140 l 2
 323.549 102 348.47 80 398.47 80 c 0
 448.47 80 483.549 102 492.321 140 c 2
 545.421 370 l 2xc0
665.421 370 m 2
 612.321 140 l 2
 601.24 92 543.383 -20 375.383 -20 c 0
 207.383 -20 201.24 92 212.321 140 c 2
 226.174 200 l 2
 257.571 336 379.419 344 406.199 460 c 0
 418.436 513 393.823 545 340.823 545 c 0
 319.823 545 297.669 540 278.129 529 c 1
 321.975 524 347.202 486 336.582 440 c 0
 325.039 390 275.804 350 225.804 350 c 0
 170.804 350 141.193 395 155.045 455 c 0
 174.669 540 260.83 610 355.83 610 c 0xe0
 452.83 610 490.21 564 494.974 511 c 1
 571.596 583 689.064 650 810.064 650 c 1
 786.978 550 l 1xd0
 686.978 550 593.128 516 529.432 474 c 1
 571.969 459 676.272 417 665.421 370 c 2
256.971 485 m 0
 231.971 485 207.354 465 201.582 440 c 0
 195.811 415 211.193 395 236.193 395 c 0
 261.193 395 285.811 415 291.582 440 c 0
 297.354 465 281.971 485 256.971 485 c 0
EndSplineSet
EndChar

StartChar: uni0E0B.alt
Encoding: 3682 3682 98
Width: 710
VWidth: 0
Flags: W
HStem: -20 100<367.21 501.842> 320 45<211.508 287.815> 455 45<230.36 297.976> 550 100<708.888 816.978> 550 60<250.646 337.31>
LayerCount: 2
Fore
SplineSet
575.421 370 m 2xe0
 579.808 389 554.425 409 530.119 425 c 1
 491.417 331 398.568 297 376.174 200 c 2
 362.321 140 l 2
 353.549 102 378.47 80 428.47 80 c 0
 478.47 80 513.549 102 522.321 140 c 2
 575.421 370 l 2xe0
265.045 455 m 0
 240.045 455 215.428 435 209.656 410 c 0
 203.884 385 219.267 365 244.267 365 c 0
 269.267 365 293.884 385 299.656 410 c 0
 305.428 435 290.045 455 265.045 455 c 0
388.125 490 m 1
 343.125 490 l 1
 343.514 522 331.978 550 301.978 550 c 0
 267.978 550 244.206 525 229.895 489 c 1
 244.511 496 260.434 500 275.434 500 c 0
 325.434 500 356.199 460 344.656 410 c 0
 333.112 360 283.878 320 233.878 320 c 0
 162.878 320 139.577 388 156.199 460 c 0
 168.436 513 222.83 610 310.83 610 c 0
 354.83 610 378.903 580 387.285 547 c 1
 435.83 610 l 1
 464.83 610 l 1xe8
 503.828 597 537.672 566 544.359 517 c 1
 615.52 587 723.064 650 840.064 650 c 1
 816.978 550 l 1xf0
 713.978 550 625.666 514 567.739 471 c 1
 614.814 454 705.579 414 695.421 370 c 2
 642.321 140 l 2
 631.24 92 573.383 -20 405.383 -20 c 0
 237.383 -20 231.24 92 242.321 140 c 2
 256.174 200 l 2
 287.571 336 432.65 358 456.199 460 c 0
 464.279 495 457.59 518 440.823 545 c 1
 393.125 490 l 1
 388.125 490 l 1
EndSplineSet
EndChar

StartChar: uni0E28.alt
Encoding: 3683 3683 99
Width: 680
VWidth: 0
Flags: W
HStem: 0 21G<470 594.617> 230 45<360.164 437.037> 365 45<371.476 447.198> 525 95<348.409 542.295> 570 100<722.332 801.595>
LayerCount: 2
Fore
SplineSet
414.267 365 m 0xe0
 389.267 365 364.649 345 358.878 320 c 0
 353.106 295 368.488 275 393.488 275 c 0
 418.488 275 443.106 295 448.878 320 c 0
 454.649 345 439.267 365 414.267 365 c 0xe0
424.656 410 m 0
 474.656 410 505.421 370 493.878 320 c 0
 482.334 270 433.1 230 383.1 230 c 0
 346.1 230 319.179 252 312.566 284 c 1
 282.178 239 260.863 177 247.704 120 c 2
 217.691 -10 l 1
 217.691 -10 79.6152 -6 86.9258 30 c 1
 86.9258 30 118.238 79 132.321 140 c 0
 155.87 242 131.18 265 162.348 400 c 0
 193.977 537 327.139 620 473.139 620 c 0xf0
 536.139 620 589.676 605 626.98 576 c 1
 673.293 625 751.682 670 824.682 670 c 1
 801.595 570 l 1xe8
 752.595 570 704.439 552 671.206 525 c 1
 688.356 491 693.66 449 682.348 400 c 2
 590 0 l 1
 470 0 l 1
 562.348 400 l 2
 581.278 482 542.206 525 451.206 525 c 0xf0
 360.206 525 301.278 482 282.348 400 c 0
 271.266 352 267.186 317 265.259 287 c 1
 303.958 355 359.656 410 424.656 410 c 0
EndSplineSet
EndChar

StartChar: uni0E2A.alt
Encoding: 3684 3684 100
Width: 660
VWidth: 0
Flags: W
HStem: -20 60<186.491 274.024> 140 60<214.895 285.404> 300 80<271.963 456.625> 525 95<343.899 528.152> 570 100<702.905 781.595>
VStem: 166.965 120<420 471.499>
LayerCount: 2
Fore
SplineSet
247.321 140 m 0xe4
 219.321 140 192.242 118 185.778 90 c 0
 179.313 62 196.234 40 224.234 40 c 0
 252.234 40 279.313 62 285.778 90 c 0
 292.242 118 275.321 140 247.321 140 c 0xe4
261.174 200 m 0
 322.174 200 359.861 151 345.778 90 c 0
 331.695 29 271.383 -20 210.383 -20 c 0
 137.383 -20 71.082 48 101.557 180 c 0
 129.261 300 242.729 380 367.729 380 c 0
 441.729 380 492.573 349 520.184 304 c 1
 546.965 420 l 2
 561.048 481 529.206 525 441.206 525 c 0
 353.206 525 301.048 481 286.965 420 c 1
 166.965 420 l 1
 193.515 535 302.139 620 463.139 620 c 0xf4
 528.139 620 577.906 606 612.365 582 c 1
 658.985 628 734.682 670 804.682 670 c 1
 781.595 570 l 1xec
 735.595 570 691.132 555 658.591 531 c 1
 673.434 500 676.661 462 666.965 420 c 2
 576.926 30 l 2
 568.615 -6 437.691 -10 437.691 -10 c 1
 488.021 208 l 1
 485.795 259 451.261 300 369.261 300 c 0
 289.261 300 234.949 264 214.096 191 c 1
 229.481 197 245.174 200 261.174 200 c 0
EndSplineSet
EndChar

StartChar: uni0E2E.alt
Encoding: 3686 3686 101
Width: 660
VWidth: 0
Flags: W
HStem: -20 100<246.023 443.85> 325 55<209.933 296.949> 525 95<334.234 526.26> 570 100<702.402 781.595>
VStem: 156.965 120<420 471.383>
LayerCount: 2
Fore
SplineSet
260.032 325 m 0xc8
 232.032 325 204.953 303 198.488 275 c 0
 192.024 247 208.945 225 236.945 225 c 0
 264.945 225 292.024 247 298.488 275 c 0
 304.953 303 288.032 325 260.032 325 c 0xc8
272.729 380 m 0
 330.729 380 366.879 333 353.488 275 c 0
 341.253 222 292.095 178 239.479 171 c 1
 236.938 160 l 2
 221.933 95 274.47 80 343.47 80 c 0
 412.47 80 474.241 105 489.248 170 c 2
 546.965 420 l 2
 561.048 481 524.206 525 436.206 525 c 0
 348.206 525 291.048 481 276.965 420 c 1
 156.965 420 l 1
 183.515 535 297.139 620 458.139 620 c 0xe8
 524.139 620 575.906 606 611.135 581 c 1
 657.985 628 734.682 670 804.682 670 c 1
 781.595 570 l 1xd8
 735.595 570 689.901 554 657.36 530 c 1
 673.203 499 676.431 461 666.965 420 c 2
 609.248 170 l 2
 577.85 34 462.383 -20 320.383 -20 c 0
 178.383 -20 85.541 24 116.938 160 c 2
 143.488 275 l 2
 156.879 333 214.729 380 272.729 380 c 0
EndSplineSet
EndChar

StartChar: B
Encoding: 66 66 102
Width: 780
VWidth: 0
Flags: W
HStem: 0 100<233.087 560.353> 365 100<317.354 609.489> 705 95<372.762 660.376>
AnchorPoint: "diac_top" 556.238 850 basechar 0
AnchorPoint: "cedilla" 386.238 40 basechar 0
AnchorPoint: "ogonek" 386.238 40 basechar 0
AnchorPoint: "diac_bottom" 327.2 -50 basechar 0
LayerCount: 2
Fore
SplineSet
542.762 705 m 2
 372.762 705 l 1
 317.354 465 l 1
 517.354 465 l 2
 609.354 465 669.128 516 683.903 580 c 0
 704.451 669 665.762 705 542.762 705 c 2
460 0 m 2
 90 0 l 1
 274.694 800 l 1
 584.694 800 l 2
 785.694 800 828.837 688 803.903 580 c 0
 789.359 517 742.199 460 676.657 423 c 1
 747.808 389 785.032 325 763.1 230 c 0
 729.162 83 613 0 460 0 c 2
453.087 100 m 2
 555.087 100 625.554 154 643.1 230 c 0
 666.187 330 594.267 365 494.267 365 c 2
 294.267 365 l 1
 233.087 100 l 1
 453.087 100 l 2
EndSplineSet
EndChar

StartChar: period
Encoding: 46 46 103
Width: 320
VWidth: 0
Flags: W
HStem: 0 160<131.586 225.352>
VStem: 98.4697 160<33.3334 126.667>
LayerCount: 2
Fore
SplineSet
258.47 80 m 0
 248.08 35 205 0 160 0 c 0
 115 0 88.0801 35 98.4697 80 c 0
 108.858 125 151.938 160 196.938 160 c 0
 241.938 160 268.858 125 258.47 80 c 0
EndSplineSet
EndChar

StartChar: x
Encoding: 120 120 104
Width: 650
VWidth: 0
Flags: W
HStem: 0 21G<15 174.595 484.639 635> 580 20G<183.521 333.876 583.93 743.521>
AnchorPoint: "diac_top" 475.064 650 basechar 0
AnchorPoint: "cedilla" 109.234 40 basechar 0
AnchorPoint: "diac_bottom" 313.457 -50 basechar 0
LayerCount: 2
Fore
SplineSet
183.521 600 m 1
 323.521 600 l 1
 420.349 413 l 1
 603.521 600 l 1
 743.521 600 l 1
 468.878 320 l 1
 635 0 l 1
 495 0 l 1
 377.407 227 l 1
 155 0 l 1
 15 0 l 1
 328.878 320 l 1
 183.521 600 l 1
EndSplineSet
EndChar

StartChar: i
Encoding: 105 105 105
Width: 320
VWidth: 0
Flags: W
HStem: 0 21G<100 224.617> 580 20G<233.903 358.521> 700 160<293.194 386.96>
VStem: 260.077 160<733.333 826.667>
AnchorPoint: "diac_bottom" 148.457 -50 basechar 0
AnchorPoint: "ogonek" 179.234 40 basechar 0
AnchorPoint: "cedilla" 186.238 40 basechar 0
LayerCount: 2
Fore
SplineSet
420.077 780 m 0
 409.688 735 366.607 700 321.607 700 c 0
 276.607 700 249.688 735 260.077 780 c 0
 270.466 825 313.547 860 358.547 860 c 0
 403.547 860 430.466 825 420.077 780 c 0
238.521 600 m 1
 358.521 600 l 1
 220 0 l 1
 100 0 l 1
 238.521 600 l 1
EndSplineSet
EndChar

StartChar: o
Encoding: 111 111 106
Width: 660
VWidth: 0
Flags: W
HStem: -20 100<262.238 448.456> 525 95<354.337 535.937>
AnchorPoint: "diac_top" 480.064 650 basechar 0
AnchorPoint: "ogonek" 359.234 40 basechar 0
AnchorPoint: "cedilla" 349.234 40 basechar 0
AnchorPoint: "diac_bottom" 318.457 -50 basechar 0
LayerCount: 2
Fore
SplineSet
451.206 525 m 0
 376.206 525 292.895 489 263.112 360 c 2
 230.791 220 l 2
 205.626 111 283.47 80 348.47 80 c 0
 413.47 80 505.626 111 530.791 220 c 2
 563.112 360 l 2
 592.895 489 526.206 525 451.206 525 c 0
473.139 620 m 0
 627.139 620 721.898 528 683.112 360 c 2
 650.791 220 l 2
 613.159 57 479.383 -20 325.383 -20 c 0
 171.383 -20 73.1592 57 110.791 220 c 2
 143.112 360 l 2
 181.898 528 319.139 620 473.139 620 c 0
EndSplineSet
EndChar

StartChar: O
Encoding: 79 79 107
Width: 800
VWidth: 0
Flags: W
HStem: -20 100<311.115 539.143> 725 95<453.052 667.258>
AnchorPoint: "ring_above" 573.151 750 basechar 0
AnchorPoint: "diac_top" 596.238 850 basechar 0
AnchorPoint: "ogonek" 439.234 40 basechar 0
AnchorPoint: "cedilla" 429.234 40 basechar 0
AnchorPoint: "diac_bottom" 388.457 -50 basechar 0
LayerCount: 2
Fore
SplineSet
730.052 520 m 2
 759.833 649 684.38 725 567.38 725 c 0
 450.38 725 339.833 649 310.052 520 c 2
 252.334 270 l 2
 224.63 150 297.47 80 418.47 80 c 0
 539.47 80 644.63 150 672.334 270 c 2
 730.052 520 l 2
850.052 520 m 2
 792.334 270 l 2
 750.316 88 582.383 -20 395.383 -20 c 0
 208.383 -20 90.3164 88 132.334 270 c 2
 190.052 520 l 2
 232.993 706 402.312 820 589.312 820 c 0
 776.312 820 893.224 707 850.052 520 c 2
EndSplineSet
EndChar

StartChar: I
Encoding: 73 73 108
Width: 320
VWidth: 0
Flags: W
HStem: 0 21G<100 224.617> 780 20G<280.077 404.694>
VStem: 100 304.694
AnchorPoint: "diac_top" 356.238 850 basechar 0
AnchorPoint: "hook_above" 356.238 850 basechar 0
AnchorPoint: "ogonek" 179.234 40 basechar 0
AnchorPoint: "cedilla" 186.238 40 basechar 0
AnchorPoint: "diac_bottom" 148.457 -50 basechar 0
LayerCount: 2
Fore
SplineSet
284.694 800 m 1
 404.694 800 l 1
 220 0 l 1
 100 0 l 1
 284.694 800 l 1
EndSplineSet
EndChar

StartChar: X
Encoding: 88 88 109
Width: 770
VWidth: 0
Flags: W
HStem: 0 21G<5 168.99 610.244 765> 780 20G<229.694 384.468 745.686 909.694>
AnchorPoint: "diac_top" 581.238 850 basechar 0
AnchorPoint: "ring_above" 558.151 750 basechar 0
AnchorPoint: "cedilla" 99.2344 40 basechar 0
AnchorPoint: "diac_bottom" 373.457 -50 basechar 0
LayerCount: 2
Fore
SplineSet
229.694 800 m 1
 374.694 800 l 1
 507.129 529 l 1
 764.694 800 l 1
 909.694 800 l 1
 556.812 428 l 1
 765 0 l 1
 620 0 l 1
 460.494 327 l 1
 150 0 l 1
 5 0 l 1
 410.812 428 l 1
 229.694 800 l 1
EndSplineSet
EndChar

StartChar: H
Encoding: 72 72 110
Width: 800
VWidth: 0
Flags: W
HStem: 0 21G<90 214.617 590 714.617> 350 100<313.891 670.804> 780 20G<270.077 394.694 770.077 894.694>
AnchorPoint: "diac_bottom" 388.457 -50 basechar 0
AnchorPoint: "diac_top" 596.238 850 basechar 0
AnchorPoint: "cedilla" 149.234 40 basechar 0
LayerCount: 2
Fore
SplineSet
710 0 m 1
 590 0 l 1
 670.804 350 l 1
 290.804 350 l 1
 210 0 l 1
 90 0 l 1
 171.958 355 l 1
 192.736 445 l 1
 274.694 800 l 1
 394.694 800 l 1
 313.891 450 l 1
 693.891 450 l 1
 774.694 800 l 1
 894.694 800 l 1
 812.736 445 l 1
 791.958 355 l 1
 710 0 l 1
EndSplineSet
EndChar

StartChar: P
Encoding: 80 80 111
Width: 740
VWidth: 0
Flags: W
HStem: 0 21G<90 214.617> 310 95<303.502 600.232> 705 95<372.762 656.995>
AnchorPoint: "diac_bottom" 327.2 -50 basechar 0
AnchorPoint: "diac_top" 556.238 850 basechar 0
LayerCount: 2
Fore
SplineSet
604.694 800 m 2
 805.694 800 843.065 663 818.132 555 c 0
 793.198 447 692.569 310 491.569 310 c 2
 281.569 310 l 1
 210 0 l 1
 90 0 l 1
 274.694 800 l 1
 604.694 800 l 2
562.762 705 m 2
 372.762 705 l 1
 303.502 405 l 1
 493.502 405 l 2
 616.502 405 681.74 484 698.132 555 c 0
 714.523 626 685.762 705 562.762 705 c 2
EndSplineSet
EndChar

StartChar: p
Encoding: 112 112 112
Width: 710
VWidth: 0
Flags: W
HStem: -20 95<287.45 474.816> 520 100<415.246 571.463> 580 20G<223.903 348.521>
AnchorPoint: "diac_bottom" 408.457 -50 basechar 0
AnchorPoint: "diac_top" 510.064 650 basechar 0
LayerCount: 2
Fore
SplineSet
309.735 432 m 1xc0
 247.862 164 l 1
 260.626 111 302.315 75 377.315 75 c 0
 457.315 75 547.242 118 580.025 260 c 2
 603.112 360 l 2
 629.432 474 565.052 520 480.052 520 c 0
 402.052 520 339.894 476 309.735 432 c 1xc0
147.666 -270 m 1
 27.666 -270 l 1
 228.521 600 l 1
 348.521 600 l 1xa0
 333.283 534 l 1
 381.827 584 448.139 620 523.139 620 c 0
 679.139 620 759.82 519 723.112 360 c 2
 700.025 260 l 2
 656.622 72 519.383 -20 375.383 -20 c 0
 306.383 -20 255.078 9 222.005 52 c 1
 147.666 -270 l 1
EndSplineSet
EndChar

StartChar: K
Encoding: 75 75 113
Width: 730
VWidth: 0
Flags: W
HStem: 0 21G<90 214.617 560.779 710> 370 100<318.508 399.421> 780 20G<270.077 394.694 695.895 844.694>
AnchorPoint: "diac_top" 566.238 850 basechar 0
AnchorPoint: "diac_bottom" 358.457 -50 basechar 0
LayerCount: 2
Fore
SplineSet
714.694 800 m 1
 844.694 800 l 1
 501.582 440 l 1
 710 0 l 1
 570 0 l 1
 399.421 370 l 1
 295.421 370 l 1
 210 0 l 1
 90 0 l 1
 274.694 800 l 1
 394.694 800 l 1
 318.508 470 l 1
 404.508 470 l 1
 714.694 800 l 1
EndSplineSet
EndChar

StartChar: j
Encoding: 106 106 114
Width: 340
VWidth: 0
Flags: W
HStem: -290 100<-53.8652 41.8064> 580 20G<253.903 378.521> 700 160<313.194 406.96>
VStem: 280.077 160<733.333 826.667>
AnchorPoint: "diac_bottom" 347.2 -50 basechar 0
LayerCount: 2
Fore
SplineSet
440.077 780 m 0
 429.688 735 386.607 700 341.607 700 c 0
 296.607 700 269.688 735 280.077 780 c 0
 290.466 825 333.547 860 378.547 860 c 0
 423.547 860 450.466 825 440.077 780 c 0
216.913 -100 m 2
 189.901 -217 90.0479 -290 -76.9521 -290 c 1
 -53.8652 -190 l 1
 17.1348 -190 83.5225 -158 99.2217 -90 c 2
 258.521 600 l 1
 378.521 600 l 1
 216.913 -100 l 2
EndSplineSet
EndChar

StartChar: D
Encoding: 68 68 115
Width: 780
VWidth: 0
Flags: W
HStem: 0 100<233.087 504.087> 705 95<372.762 619.412>
AnchorPoint: "diac_top" 546.238 850 basechar 0
AnchorPoint: "ogonek" 379.234 40 basechar 0
AnchorPoint: "cedilla" 379.234 40 basechar 0
AnchorPoint: "diac_bottom" 327.2 -50 basechar 0
LayerCount: 2
Fore
SplineSet
462.762 705 m 2
 372.762 705 l 1
 233.087 100 l 1
 363.087 100 l 2
 502.087 100 635.323 153 676.187 330 c 2
 703.891 450 l 2
 745.216 629 673.762 705 462.762 705 c 2
504.694 800 m 2
 775.694 800 877.914 684 823.891 450 c 2
 796.187 330 l 2
 743.317 101 601 0 360 0 c 2
 90 0 l 1
 274.694 800 l 1
 504.694 800 l 2
EndSplineSet
EndChar

StartChar: E
Encoding: 69 69 116
Width: 670
VWidth: 0
Flags: W
HStem: 0 100<233.087 610> 350 100<313.891 650.804> 700 100<371.607 761.607>
CounterMasks: 1 e0
AnchorPoint: "hook_above" 531.238 850 basechar 0
AnchorPoint: "diac_top" 531.238 850 basechar 0
AnchorPoint: "cedilla" 369.234 40 basechar 0
AnchorPoint: "ogonek" 549.234 40 basechar 0
AnchorPoint: "diac_bottom" 317.2 -50 basechar 0
LayerCount: 2
Fore
SplineSet
233.087 100 m 1
 633.087 100 l 1
 610 0 l 1
 210 0 l 1
 90 0 l 1
 110.778 90 l 1
 171.958 355 l 1
 192.736 445 l 1
 253.916 710 l 1
 274.694 800 l 1
 394.694 800 l 1
 784.694 800 l 1
 761.607 700 l 1
 371.607 700 l 1
 313.891 450 l 1
 673.891 450 l 1
 650.804 350 l 1
 290.804 350 l 1
 233.087 100 l 1
EndSplineSet
EndChar

StartChar: L
Encoding: 76 76 117
Width: 590
VWidth: 0
Flags: W
HStem: 0 100<233.087 580> 780 20G<270.077 394.694>
AnchorPoint: "diac_top" 346.238 850 basechar 0
AnchorPoint: "diac_bottom" 288.457 -50 basechar 0
LayerCount: 2
Fore
SplineSet
233.087 100 m 1
 603.087 100 l 1
 580 0 l 1
 210 0 l 1
 90 0 l 1
 110.778 90 l 1
 274.694 800 l 1
 394.694 800 l 1
 233.087 100 l 1
EndSplineSet
EndChar

StartChar: F
Encoding: 70 70 118
Width: 650
VWidth: 0
Flags: W
HStem: 0 21G<90 214.617> 350 100<313.891 650.804> 700 100<371.607 761.607>
AnchorPoint: "diac_bottom" 317.2 -50 basechar 0
AnchorPoint: "diac_top" 531.238 850 basechar 0
LayerCount: 2
Fore
SplineSet
210 0 m 1
 90 0 l 1
 171.958 355 l 1
 192.736 445 l 1
 253.916 710 l 1
 274.694 800 l 1
 394.694 800 l 1
 784.694 800 l 1
 761.607 700 l 1
 371.607 700 l 1
 313.891 450 l 1
 673.891 450 l 1
 650.804 350 l 1
 290.804 350 l 1
 210 0 l 1
EndSplineSet
EndChar

StartChar: J
Encoding: 74 74 119
Width: 540
VWidth: 0
Flags: W
HStem: -20 100<197.603 333.103> 780 20G<510.077 634.694>
VStem: 66.9385 120<90.8708 160>
AnchorPoint: "diac_top" 586.238 850 basechar 0
AnchorPoint: "diac_bottom" 228.457 -50 basechar 0
LayerCount: 2
Fore
SplineSet
235.383 -20 m 0
 101.383 -20 42.2363 53 66.9385 160 c 1
 186.938 160 l 1
 176.319 114 202.47 80 258.47 80 c 0
 313.47 80 356.319 114 366.938 160 c 2
 514.694 800 l 1
 634.694 800 l 1
 486.938 160 l 2
 462.236 53 370.383 -20 235.383 -20 c 0
EndSplineSet
EndChar

StartChar: T
Encoding: 84 84 120
Width: 580
VWidth: 0
Flags: W
HStem: 0 21G<230 354.617> 700 100<224.694 391.607 511.607 701.607>
AnchorPoint: "diac_top" 486.238 850 basechar 0
AnchorPoint: "cedilla" 289.234 40 basechar 0
AnchorPoint: "diac_bottom" 278.457 -50 basechar 0
LayerCount: 2
Fore
SplineSet
201.607 700 m 1
 224.694 800 l 1
 414.694 800 l 1
 534.694 800 l 1
 724.694 800 l 1
 701.607 700 l 1
 511.607 700 l 1
 350 0 l 1
 230 0 l 1
 391.607 700 l 1
 201.607 700 l 1
EndSplineSet
EndChar

StartChar: N
Encoding: 78 78 121
Width: 800
VWidth: 0
Flags: W
HStem: 0 21G<90 214.617 582.359 714.617> 780 20G<270.077 402.335 770.077 894.694>
AnchorPoint: "diac_top" 596.238 850 basechar 0
AnchorPoint: "cedilla" 139.234 40 basechar 0
AnchorPoint: "diac_bottom" 388.457 -50 basechar 0
LayerCount: 2
Fore
SplineSet
210 0 m 1
 90 0 l 1
 274.694 800 l 1
 394.694 800 l 1
 631.557 180 l 1
 774.694 800 l 1
 894.694 800 l 1
 710 0 l 1
 590 0 l 1
 353.139 620 l 1
 210 0 l 1
EndSplineSet
EndChar

StartChar: M
Encoding: 77 77 122
Width: 960
VWidth: 0
Flags: W
HStem: 0 21G<90 214.617 446.749 522.486 750 874.617> 780 20G<270.077 427.819 892.335 1054.69>
AnchorPoint: "diac_bottom" 468.457 -50 basechar 0
AnchorPoint: "diac_top" 676.238 850 basechar 0
AnchorPoint: "cedilla" 479.234 40 basechar 0
LayerCount: 2
Fore
SplineSet
870 0 m 1
 750 0 l 1
 890.83 610 l 1
 510 0 l 1
 480 0 l 1
 450 0 l 1
 350.83 610 l 1
 210 0 l 1
 90 0 l 1
 274.694 800 l 1
 394.694 800 l 1
 424.694 800 l 1
 521.557 180 l 1
 904.694 800 l 1
 934.694 800 l 1
 1054.69 800 l 1
 870 0 l 1
EndSplineSet
EndChar

StartChar: U
Encoding: 85 85 123
Width: 800
VWidth: 0
Flags: W
HStem: -20 100<319.458 529.882> 780 20G<260.077 384.694 780.077 904.694>
AnchorPoint: "hook_above" 596.238 850 basechar 0
AnchorPoint: "ring_above" 573.151 750 basechar 0
AnchorPoint: "diac_top" 596.238 850 basechar 0
AnchorPoint: "ogonek" 439.234 40 basechar 0
AnchorPoint: "cedilla" 426.238 40 basechar 0
AnchorPoint: "diac_bottom" 388.457 -50 basechar 0
LayerCount: 2
Fore
SplineSet
264.694 800 m 1
 384.694 800 l 1
 264.644 280 l 2
 230.244 131 325.47 80 418.47 80 c 0
 511.47 80 630.244 131 664.643 280 c 2
 784.694 800 l 1
 904.694 800 l 1
 784.643 280 l 2
 739.624 85 578.383 -20 395.383 -20 c 0
 212.383 -20 99.624 85 144.644 280 c 2
 264.694 800 l 1
EndSplineSet
EndChar

StartChar: b
Encoding: 98 98 124
Width: 710
VWidth: 0
Flags: W
HStem: -20 100<290.746 480.713> 0 21G<90 214.617> 525 95<409.591 568.033> 880 20G<293.164 417.781>
AnchorPoint: "diac_top" 560.064 650 basechar 0
AnchorPoint: "diac_bottom" 348.457 -50 basechar 0
LayerCount: 2
Fore
SplineSet
248.786 168 m 1xb0
 258.628 124 300.47 80 378.47 80 c 0
 463.47 80 549.09 126 575.408 240 c 2
 598.495 340 l 2
 631.278 482 561.206 525 481.206 525 c 0
 406.206 525 347.895 489 310.658 436 c 1
 248.786 168 l 1xb0
417.781 900 m 1
 336.516 548 l 1
 389.443 591 454.139 620 523.139 620 c 0
 667.139 620 761.898 528 718.495 340 c 2
 695.408 240 l 2
 658.7 81 531.383 -20 375.383 -20 c 0xb0
 300.383 -20 250.694 16 225.237 66 c 1
 210 0 l 1
 90 0 l 1x70
 297.781 900 l 1
 417.781 900 l 1
EndSplineSet
EndChar

StartChar: R
Encoding: 82 82 125
Width: 780
VWidth: 0
Flags: W
HStem: 0 21G<90 214.617 602.746 750> 310 95<303.502 497.569> 705 95<372.762 656.995>
AnchorPoint: "diac_top" 556.238 850 basechar 0
AnchorPoint: "diac_bottom" 368.457 -50 basechar 0
LayerCount: 2
Fore
SplineSet
604.694 800 m 2
 805.694 800 843.065 663 818.132 555 c 0
 799.201 473 736.575 375 620.648 332 c 1
 750 0 l 1
 610 0 l 1
 497.569 310 l 1
 495.569 310 493.569 310 491.569 310 c 2
 281.569 310 l 1
 210 0 l 1
 90 0 l 1
 274.694 800 l 1
 604.694 800 l 2
562.762 705 m 2
 372.762 705 l 1
 303.502 405 l 1
 493.502 405 l 2
 616.502 405 681.74 484 698.132 555 c 0
 714.523 626 685.762 705 562.762 705 c 2
EndSplineSet
EndChar

StartChar: V
Encoding: 86 86 126
Width: 800
VWidth: 0
Flags: W
HStem: 0 21G<336.617 472.617> 780 20G<204.694 337.829 822.325 964.694>
AnchorPoint: "diac_top" 596.238 850 basechar 0
AnchorPoint: "diac_bottom" 388.457 -50 basechar 0
LayerCount: 2
Fore
SplineSet
340 0 m 1
 204.694 800 l 1
 334.694 800 l 1
 435.784 155 l 1
 834.694 800 l 1
 964.694 800 l 1
 460 0 l 1
 340 0 l 1
EndSplineSet
EndChar

StartChar: Y
Encoding: 89 89 127
Width: 700
VWidth: 0
Flags: W
HStem: 0 21G<290 414.617> 780 20G<204.694 350.633 709.521 864.694>
AnchorPoint: "hook_above" 546.238 850 basechar 0
AnchorPoint: "diac_bottom" 338.457 -50 basechar 0
AnchorPoint: "ring_above" 523.151 750 basechar 0
AnchorPoint: "diac_top" 546.238 850 basechar 0
LayerCount: 2
Fore
SplineSet
204.694 800 m 1
 344.694 800 l 1
 451.582 440 l 1
 724.694 800 l 1
 864.694 800 l 1
 483.878 320 l 1
 410 0 l 1
 290 0 l 1
 363.878 320 l 1
 204.694 800 l 1
EndSplineSet
EndChar

StartChar: A
Encoding: 65 65 128
Width: 800
VWidth: 0
Flags: W
HStem: 0 21G<20 162.367 646.867 780> 160 100<311.025 609.025> 780 20G<512.077 648.077>
AnchorPoint: "diac_top" 596.238 850 basechar 0
AnchorPoint: "hook_above" 596.238 850 basechar 0
AnchorPoint: "ring_above" 573.151 750 basechar 0
AnchorPoint: "diac_bottom" 388.457 -50 basechar 0
AnchorPoint: "ogonek" 709.234 40 basechar 0
AnchorPoint: "cedilla" 716.238 40 basechar 0
LayerCount: 2
Fore
SplineSet
609.025 260 m 1
 548.91 645 l 1
 311.025 260 l 1
 609.025 260 l 1
780 0 m 1
 650 0 l 1
 624.938 160 l 1
 248.938 160 l 1
 150 0 l 1
 20 0 l 1
 524.694 800 l 1
 644.694 800 l 1
 780 0 l 1
EndSplineSet
EndChar

StartChar: Q
Encoding: 81 81 129
Width: 800
VWidth: 0
Flags: W
HStem: -20 100<311.115 535.025> 725 95<453.052 667.258>
AnchorPoint: "diac_bottom" 388.457 -50 basechar 0
AnchorPoint: "diac_top" 596.238 850 basechar 0
AnchorPoint: "ring_above" 573.151 750 basechar 0
LayerCount: 2
Fore
SplineSet
850.052 520 m 2
 792.334 270 l 2
 775.02 195 736.475 132 683.624 85 c 1
 761.537 -15 l 1
 681.53 -80 l 1
 598.233 27 l 1
 537.076 -4 467.383 -20 395.383 -20 c 0
 208.383 -20 90.3164 88 132.334 270 c 2
 190.052 520 l 2
 232.993 706 402.312 820 589.312 820 c 0
 776.312 820 893.224 707 850.052 520 c 2
457.328 205 m 1
 537.334 270 l 1
 619.324 166 l 1
 644.788 194 662.869 229 672.334 270 c 2
 730.052 520 l 2
 759.833 649 684.38 725 567.38 725 c 0
 450.38 725 339.833 649 310.052 520 c 2
 252.334 270 l 2
 224.63 150 297.47 80 418.47 80 c 0
 460.47 80 500.316 88 536.241 105 c 1
 457.328 205 l 1
EndSplineSet
EndChar

StartChar: Z
Encoding: 90 90 130
Width: 740
VWidth: 0
Flags: W
HStem: 0 110<235.396 690> 700 100<264.694 681.607>
AnchorPoint: "diac_top" 566.238 850 basechar 0
AnchorPoint: "cedilla" 389.234 40 basechar 0
AnchorPoint: "diac_bottom" 358.457 -50 basechar 0
LayerCount: 2
Fore
SplineSet
264.694 800 m 1
 854.694 800 l 1
 831.607 700 l 1
 235.396 110 l 1
 715.396 110 l 1
 690 0 l 1
 50 0 l 1
 75.3955 110 l 1
 681.607 700 l 1
 241.607 700 l 1
 264.694 800 l 1
EndSplineSet
EndChar

StartChar: W
Encoding: 87 87 131
Width: 1100
VWidth: 0
Flags: W
HStem: 0 21G<258.617 390.246 718.988 850.617> 780 20G<204.694 335.81 669.443 790.711 1124.34 1264.69>
AnchorPoint: "diac_top" 746.238 850 basechar 0
AnchorPoint: "diac_bottom" 538.457 -50 basechar 0
AnchorPoint: "ring_above" 723.151 750 basechar 0
LayerCount: 2
Fore
SplineSet
1264.69 800 m 1
 840 0 l 1
 830 0 l 1
 720 0 l 1
 689.444 604 l 1
 380 0 l 1
 270 0 l 1
 260 0 l 1
 204.694 800 l 1
 334.694 800 l 1
 368.558 193 l 1
 679.694 800 l 1
 789.694 800 l 1
 820.558 193 l 1
 1134.69 800 l 1
 1264.69 800 l 1
EndSplineSet
EndChar

StartChar: S
Encoding: 83 83 132
Width: 790
VWidth: 0
Flags: W
HStem: -20 100<297.519 547.791> 720 100<437.77 666.545>
VStem: 127.717 120<127.328 250> 706.212 120<590 683.125>
AnchorPoint: "diac_bottom" 383.457 -50 basechar 0
AnchorPoint: "diac_top" 591.238 850 basechar 0
AnchorPoint: "cedilla" 429.234 40 basechar 0
LayerCount: 2
Fore
SplineSet
773.1 230 m 0
 738.008 78 576.383 -20 390.383 -20 c 0
 193.383 -20 90.3164 88 127.717 250 c 1
 247.717 250 l 1
 223.938 147 275.47 80 413.47 80 c 0
 551.47 80 631.629 137 653.1 230 c 0
 674.801 324 592.42 357 475.421 370 c 0
 370.191 382 186.041 416 226.212 590 c 0
 250.223 694 391.312 820 579.312 820 c 0
 767.312 820 850.223 694 826.212 590 c 1
 706.212 590 l 1
 723.527 665 674.225 720 556.225 720 c 0
 438.225 720 363.527 665 346.212 590 c 0
 329.59 518 403.125 490 500.816 480 c 0
 659.123 464 818.35 426 773.1 230 c 0
EndSplineSet
EndChar

StartChar: u
Encoding: 117 117 133
Width: 660
VWidth: 0
Flags: W
HStem: -20 100<269.528 439.705> 580 20G<213.903 338.521 593.903 718.521>
AnchorPoint: "diac_top" 480.064 650 basechar 0
AnchorPoint: "hook_above" 486.99 680 basechar 0
AnchorPoint: "ring_above" 480.064 650 basechar 0
AnchorPoint: "ogonek" 359.234 40 basechar 0
AnchorPoint: "cedilla" 356.238 40 basechar 0
AnchorPoint: "diac_bottom" 297.2 -50 basechar 0
LayerCount: 2
Fore
SplineSet
246.174 200 m 2
 226.088 113 282.47 80 348.47 80 c 0
 414.47 80 486.088 113 506.174 200 c 2
 598.521 600 l 1
 718.521 600 l 1
 626.174 200 l 2
 593.391 58 476.383 -20 325.383 -20 c 0
 174.383 -20 93.3906 58 126.174 200 c 2
 218.521 600 l 1
 338.521 600 l 1
 246.174 200 l 2
EndSplineSet
EndChar

StartChar: C
Encoding: 67 67 134
Width: 810
VWidth: 0
Flags: W
HStem: -20 100<315.835 549.984> 725 95<457.972 686.221>
AnchorPoint: "diac_top" 601.238 850 basechar 0
AnchorPoint: "ogonek" 436.238 40 basechar 0
AnchorPoint: "diac_bottom" 377.2 -50 basechar 0
AnchorPoint: "cedilla" 434.234 40 basechar 0
LayerCount: 2
Fore
SplineSet
599.312 820 m 0
 796.312 820 904.378 712 864.669 540 c 1
 744.669 540 l 1
 772.373 660 699.38 725 577.38 725 c 0
 455.38 725 352.373 660 324.669 540 c 2
 257.717 250 l 2
 232.321 140 311.47 80 428.47 80 c 0
 545.47 80 652.321 140 677.717 250 c 1
 797.717 250 l 1
 758.008 78 592.383 -20 405.383 -20 c 0
 218.383 -20 98.0078 78 137.717 250 c 2
 204.669 540 l 2
 244.378 712 402.312 820 599.312 820 c 0
EndSplineSet
EndChar

StartChar: d
Encoding: 100 100 135
Width: 710
VWidth: 0
Flags: W
HStem: -20 100<277.058 433.275> 0 21G<500 624.617> 525 95<373.706 561.071> 880 20G<703.164 827.781>
AnchorPoint: "cedilla" 369.234 40 basechar 0
AnchorPoint: "diac_bottom" 338.457 -50 basechar 0
AnchorPoint: "diac_top" 450.064 650 basechar 0
LayerCount: 2
Fore
SplineSet
538.786 168 m 1xb0
 600.658 436 l 1
 587.895 489 546.206 525 471.206 525 c 0
 391.206 525 301.278 482 268.495 340 c 2
 245.408 240 l 2
 219.09 126 283.47 80 368.47 80 c 0
 446.47 80 508.628 124 538.786 168 c 1xb0
707.781 900 m 1
 827.781 900 l 1
 620 0 l 1
 500 0 l 1x70
 515.237 66 l 1
 466.694 16 400.383 -20 325.383 -20 c 0
 169.383 -20 88.7002 81 125.408 240 c 2
 148.495 340 l 2
 191.898 528 329.139 620 473.139 620 c 0
 542.139 620 593.443 591 626.516 548 c 1
 707.781 900 l 1
EndSplineSet
EndChar

StartChar: G
Encoding: 71 71 136
Width: 820
VWidth: 0
Flags: W
HStem: -20 100<313.84 578.081> 315 95<524.656 702.724> 725 95<451.748 692.121>
AnchorPoint: "diac_bottom" 398.457 -50 basechar 0
AnchorPoint: "diac_top" 606.238 850 basechar 0
LayerCount: 2
Fore
SplineSet
428.47 80 m 0
 530.47 80 605.779 103 666.938 160 c 1
 702.724 315 l 1
 502.724 315 l 1
 524.656 410 l 1
 834.656 410 l 1
 772.321 140 l 1
 693.388 32 554.383 -20 405.383 -20 c 0
 218.383 -20 98.0078 78 137.717 250 c 2
 204.669 540 l 2
 244.378 712 402.312 820 599.312 820 c 0
 796.312 820 904.378 712 864.669 540 c 1
 744.669 540 l 1
 773.527 665 699.38 725 577.38 725 c 0
 455.38 725 353.527 665 324.669 540 c 2
 257.717 250 l 2
 231.167 135 311.47 80 428.47 80 c 0
EndSplineSet
EndChar

StartChar: g
Encoding: 103 103 137
Width: 710
VWidth: 0
Flags: W
HStem: -290 100<206.226 417.678> -20 95<280.489 438.931> 520 100<367.808 557.775> 580 20G<633.903 758.521>
AnchorPoint: "diac_top" 500.064 650 basechar 0
LayerCount: 2
Fore
SplineSet
623.283 534 m 1xe0
 638.521 600 l 1
 758.521 600 l 1xd0
 601.53 -80 l 2
 572.21 -207 463.048 -290 283.048 -290 c 0
 103.048 -290 22.21 -207 51.5303 -80 c 1
 181.53 -80 l 1
 161.214 -168 239.135 -190 306.135 -190 c 0
 373.135 -190 461.214 -168 481.53 -80 c 2
 512.005 52 l 1
 459.078 9 394.383 -20 325.383 -20 c 0
 181.383 -20 86.6221 72 130.025 260 c 2
 153.112 360 l 2
 189.82 519 317.139 620 473.139 620 c 0
 548.139 620 597.827 584 623.283 534 c 1xe0
599.735 432 m 1
 589.894 476 548.052 520 470.052 520 c 0xe0
 385.052 520 299.432 474 273.112 360 c 2
 250.025 260 l 2
 217.242 118 287.315 75 367.315 75 c 0
 442.315 75 500.626 111 537.862 164 c 1
 599.735 432 l 1
EndSplineSet
EndChar

StartChar: l
Encoding: 108 108 138
Width: 350
VWidth: 0
Flags: W
HStem: 880 20G<303.164 427.781>
VStem: 123.087 304.694
AnchorPoint: "diac_top" 379.325 950 basechar 0
AnchorPoint: "diac_bottom" 178.457 -50 basechar 0
LayerCount: 2
Fore
SplineSet
267.691 -10 m 1
 155.691 -10 106.003 26 123.087 100 c 2
 307.781 900 l 1
 427.781 900 l 1
 256.938 160 l 2
 244.472 106 253.778 90 290.778 90 c 1
 267.691 -10 l 1
EndSplineSet
EndChar

StartChar: n
Encoding: 110 110 139
Width: 670
VWidth: 0
Flags: W
HStem: 0 21G<80 204.617 480 604.617> 520 100<424.24 563.539> 580 20G<213.903 338.521>
AnchorPoint: "diac_bottom" 328.457 -50 basechar 0
AnchorPoint: "diac_top" 500.064 650 basechar 0
AnchorPoint: "cedilla" 129.234 40 basechar 0
LayerCount: 2
Fore
SplineSet
218.521 600 m 1xa0
 338.521 600 l 1xa0
 318.666 514 l 1
 357.362 556 432.139 620 533.139 620 c 0
 657.139 620 727.208 551 696.965 420 c 2
 600 0 l 1
 480 0 l 1
 576.965 420 l 2
 593.587 492 552.052 520 490.052 520 c 0xc0
 403.052 520 334.354 465 294.194 408 c 1
 200 0 l 1
 80 0 l 1
 218.521 600 l 1xa0
EndSplineSet
EndChar

StartChar: m
Encoding: 109 109 140
Width: 970
VWidth: 0
Flags: W
HStem: 0 21G<80 204.617 430 554.617 780 904.617> 520 100<404.842 521.989 740.049 871.307> 580 20G<213.903 338.521>
AnchorPoint: "diac_top" 640.064 650 basechar 0
AnchorPoint: "diac_bottom" 478.457 -50 basechar 0
AnchorPoint: "cedilla" 489.234 40 basechar 0
LayerCount: 2
Fore
SplineSet
218.521 600 m 1xa0
 338.521 600 l 1xa0
 323.515 535 l 1
 368.441 578 433.139 620 508.139 620 c 0
 579.139 620 627.52 587 645.822 532 c 1
 686.133 568 762.139 620 853.139 620 c 0
 975.139 620 1025.13 542 996.965 420 c 2
 900 0 l 1
 780 0 l 1
 876.965 420 l 2
 894.279 495 868.052 520 800.052 520 c 0
 740.052 520 690.587 492 652.814 454 c 1
 651.274 443 649.735 432 646.965 420 c 2
 550 0 l 1
 430 0 l 1
 526.965 420 l 2
 544.279 495 518.052 520 450.052 520 c 0xc0
 391.052 520 341.895 489 303.429 448 c 1
 200 0 l 1
 80 0 l 1
 218.521 600 l 1xa0
EndSplineSet
EndChar

StartChar: q
Encoding: 113 113 141
Width: 710
VWidth: 0
Flags: W
HStem: -20 95<280.489 438.931> 520 100<367.808 557.775> 580 20G<633.903 758.521>
AnchorPoint: "diac_top" 490.064 650 basechar 0
AnchorPoint: "diac_bottom" 228.457 -50 basechar 0
LayerCount: 2
Fore
SplineSet
599.735 432 m 1xc0
 589.894 476 548.052 520 470.052 520 c 0
 385.052 520 299.432 474 273.112 360 c 2
 250.025 260 l 2
 217.242 118 287.315 75 367.315 75 c 0
 442.315 75 500.626 111 537.862 164 c 1
 599.735 432 l 1xc0
437.666 -270 m 1
 512.005 52 l 1
 459.078 9 394.383 -20 325.383 -20 c 0
 181.383 -20 86.6221 72 130.025 260 c 2
 153.112 360 l 2
 189.82 519 317.139 620 473.139 620 c 0xc0
 548.139 620 597.827 584 623.283 534 c 1
 638.521 600 l 1
 758.521 600 l 1xa0
 557.666 -270 l 1
 437.666 -270 l 1
EndSplineSet
EndChar

StartChar: a
Encoding: 97 97 142
Width: 700
VWidth: 0
Flags: W
HStem: -20 100<254.734 414.552> 280 80<282.996 534.643> 525 95<364.485 544.581>
VStem: 186.965 120<420 468.764>
AnchorPoint: "diac_top" 490.064 650 basechar 0
AnchorPoint: "hook_above" 496.99 680 basechar 0
AnchorPoint: "ring_above" 490.064 650 basechar 0
AnchorPoint: "diac_bottom" 328.457 -50 basechar 0
AnchorPoint: "ogonek" 599.234 40 basechar 0
AnchorPoint: "cedilla" 596.238 40 basechar 0
LayerCount: 2
Fore
SplineSet
111.557 180 m 0
 140.184 304 253.112 360 393.112 360 c 2
 553.112 360 l 1
 566.965 420 l 2
 582.433 487 537.206 525 461.206 525 c 0
 385.206 525 322.433 487 306.965 420 c 1
 186.965 420 l 1
 215.131 542 332.139 620 483.139 620 c 0
 634.139 620 715.131 542 686.965 420 c 2
 626.938 160 l 2
 614.472 106 623.778 90 660.778 90 c 1
 637.691 -10 l 1
 552.691 -10 503.539 11 492.467 54 c 1
 438.309 10 369.383 -20 295.383 -20 c 0
 149.383 -20 86.1611 70 111.557 180 c 0
231.557 180 m 0
 217.242 118 262.47 80 338.47 80 c 0
 409.47 80 467.703 107 505.784 155 c 1
 534.643 280 l 1
 384.644 280 l 2
 308.644 280 247.255 248 231.557 180 c 0
EndSplineSet
EndChar

StartChar: h
Encoding: 104 104 143
Width: 680
VWidth: 0
Flags: W
HStem: 0 21G<90 214.617 490 614.617> 520 100<434.24 573.539> 880 20G<293.164 417.781>
AnchorPoint: "diac_bottom" 338.457 -50 basechar 0
AnchorPoint: "diac_top" 580.064 650 basechar 0
AnchorPoint: "cedilla" 149.234 40 basechar 0
LayerCount: 2
Fore
SplineSet
297.781 900 m 1
 417.781 900 l 1
 348.521 600 l 1
 328.666 514 l 1
 367.362 556 442.139 620 543.139 620 c 0
 667.139 620 737.208 551 706.965 420 c 2
 610 0 l 1
 490 0 l 1
 586.965 420 l 2
 603.587 492 562.052 520 500.052 520 c 0
 413.052 520 344.354 465 304.194 408 c 1
 210 0 l 1
 90 0 l 1
 228.521 600 l 1
 297.781 900 l 1
EndSplineSet
EndChar

StartChar: e
Encoding: 101 101 144
Width: 680
VWidth: 0
Flags: W
HStem: -20 100<266.978 462.453> 278 82<273.112 577.403> 525 95<365.794 544.738>
AnchorPoint: "hook_above" 496.99 680 basechar 0
AnchorPoint: "diac_bottom" 328.457 -50 basechar 0
AnchorPoint: "diac_top" 490.064 650 basechar 0
AnchorPoint: "cedilla" 369.234 40 basechar 0
AnchorPoint: "ogonek" 369.234 40 basechar 0
LayerCount: 2
Fore
SplineSet
693.112 360 m 2
 674.182 278 l 1
 254.182 278 l 1
 236.174 200 l 2
 215.626 111 290.47 80 358.47 80 c 0
 426.47 80 515.626 111 536.174 200 c 1
 656.174 200 l 1
 620.851 47 471.383 -20 335.383 -20 c 0
 199.383 -20 80.8506 47 116.174 200 c 2
 153.112 360 l 2
 191.898 528 333.139 620 483.139 620 c 0
 633.139 620 731.898 528 693.112 360 c 2
573.112 360 m 1
 601.51 483 540.206 525 461.206 525 c 0
 382.206 525 301.51 483 273.112 360 c 1
 573.112 360 l 1
EndSplineSet
EndChar

StartChar: c
Encoding: 99 99 145
Width: 640
VWidth: 0
Flags: W
HStem: -20 100<260.851 457.798> 525 95<354.367 544.989>
AnchorPoint: "diac_top" 480.064 650 basechar 0
AnchorPoint: "diac_bottom" 318.457 -50 basechar 0
AnchorPoint: "cedilla" 349.234 40 basechar 0
LayerCount: 2
Fore
SplineSet
280.039 390 m 2
 233.865 190 l 2
 216.78 116 273.47 80 353.47 80 c 0
 433.47 80 494.472 106 513.865 190 c 1
 633.865 190 l 1
 602.005 52 484.383 -20 330.383 -20 c 0
 175.383 -20 79.6963 42 113.865 190 c 2
 160.039 390 l 2
 194.207 538 324.139 620 478.139 620 c 0
 632.139 620 714.207 538 684.656 410 c 1
 564.656 410 l 1
 581.74 484 541.206 525 456.206 525 c 0
 371.206 525 301.74 484 280.039 390 c 2
EndSplineSet
EndChar

StartChar: w
Encoding: 119 119 146
Width: 850
VWidth: 0
Flags: W
HStem: 0 21G<198.951 319.954 539.281 660.284> 580 20G<168.521 293.915 508.57 609.237 823.892 958.521>
VStem: 168.521 125<439.896 600> 524.504 84.0166<365.367 431> 540 84.0938<165 233.633>
AnchorPoint: "diac_top" 575.064 650 basechar 0
AnchorPoint: "diac_bottom" 413.457 -50 basechar 0
AnchorPoint: "ring_above" 575.064 650 basechar 0
LayerCount: 2
Fore
SplineSet
833.521 600 m 1xe8
 958.521 600 l 1
 650 0 l 1
 630 0 l 1
 545 0 l 1
 540 0 l 1xe8
 524.504 431 l 1
 310 0 l 1
 305 0 l 1
 220 0 l 1
 200 0 l 1
 168.521 600 l 1
 293.521 600 l 1
 302.094 165 l 1
 518.521 600 l 1
 608.521 600 l 1xf0
 624.094 165 l 1
 833.521 600 l 1xe8
EndSplineSet
EndChar

StartChar: v
Encoding: 118 118 147
Width: 660
VWidth: 0
Flags: W
HStem: 0 21G<266.617 402.617> 580 20G<168.521 301.409 626.398 768.521>
AnchorPoint: "diac_bottom" 318.457 -50 basechar 0
AnchorPoint: "diac_top" 480.064 650 basechar 0
LayerCount: 2
Fore
SplineSet
638.521 600 m 1
 768.521 600 l 1
 390 0 l 1
 385 0 l 1
 275 0 l 1
 270 0 l 1
 168.521 600 l 1
 298.521 600 l 1
 363.938 147 l 1
 638.521 600 l 1
EndSplineSet
EndChar

StartChar: z
Encoding: 122 122 148
Width: 620
VWidth: 0
Flags: W
HStem: 0 110<225.396 570> 500 100<208.521 535.434>
AnchorPoint: "diac_bottom" 298.457 -50 basechar 0
AnchorPoint: "diac_top" 460.064 650 basechar 0
AnchorPoint: "cedilla" 329.234 40 basechar 0
LayerCount: 2
Fore
SplineSet
208.521 600 m 1
 698.521 600 l 1
 675.434 500 l 1
 225.396 110 l 1
 595.396 110 l 1
 570 0 l 1
 50 0 l 1
 75.3955 110 l 1
 535.434 500 l 1
 185.435 500 l 1
 208.521 600 l 1
EndSplineSet
EndChar

StartChar: y
Encoding: 121 121 149
Width: 660
VWidth: 0
Flags: W
HStem: -290 100<46.1348 154.672> 580 20G<168.521 301.409 626.398 768.521>
AnchorPoint: "hook_above" 486.99 680 basechar 0
AnchorPoint: "diac_top" 480.064 650 basechar 0
AnchorPoint: "diac_bottom" 497.2 -50 basechar 0
AnchorPoint: "ogonek" 287.2 -50 basechar 0
AnchorPoint: "ring_above" 480.064 650 basechar 0
LayerCount: 2
Fore
SplineSet
638.521 600 m 1
 768.521 600 l 1
 390 0 l 1
 278.443 -180 l 1
 225.051 -264 161.048 -290 23.0479 -290 c 1
 46.1348 -190 l 1
 127.135 -190 145.905 -178 177.679 -140 c 1
 270 0 l 1
 168.521 600 l 1
 298.521 600 l 1
 363.938 147 l 1
 638.521 600 l 1
EndSplineSet
EndChar

StartChar: r
Encoding: 114 114 150
Width: 410
VWidth: 0
Flags: W
HStem: 0 21G<80 204.617> 500 110<421.058 495.434> 580 20G<213.903 338.521>
AnchorPoint: "diac_top" 360.064 650 basechar 0
AnchorPoint: "diac_bottom" 128.457 -50 basechar 0
LayerCount: 2
Fore
SplineSet
218.521 600 m 1xa0
 338.521 600 l 1xa0
 316.127 503 l 1
 358.978 550 430.83 610 520.83 610 c 1
 495.434 500 l 1xc0
 412.434 500 339.507 457 292.578 401 c 1
 200 0 l 1
 80 0 l 1
 218.521 600 l 1xa0
EndSplineSet
EndChar

StartChar: numbersign
Encoding: 35 35 151
Width: 910
VWidth: 0
Flags: W
HStem: 0 21G<190 288.351 480 578.351> 225 80<140.415 283.945 407.415 573.945 697.415 871.945> 495 80<222.749 397.279 520.749 687.279 810.749 954.279> 780 20G<516.344 614.694 806.344 904.694>
LayerCount: 2
Fore
SplineSet
607.415 305 m 1
 687.279 495 l 1
 487.279 495 l 1
 407.415 305 l 1
 607.415 305 l 1
697.415 305 m 1
 890.415 305 l 1
 871.945 225 l 1
 663.945 225 l 1
 570 0 l 1
 480 0 l 1
 573.945 225 l 1
 373.945 225 l 1
 280 0 l 1
 190 0 l 1
 283.945 225 l 1
 121.945 225 l 1
 140.415 305 l 1
 317.415 305 l 1
 397.279 495 l 1
 204.279 495 l 1
 222.749 575 l 1
 430.749 575 l 1
 524.694 800 l 1
 614.694 800 l 1
 520.749 575 l 1
 720.749 575 l 1
 814.694 800 l 1
 904.694 800 l 1
 810.749 575 l 1
 972.749 575 l 1
 954.279 495 l 1
 777.279 495 l 1
 697.415 305 l 1
EndSplineSet
EndChar

StartChar: asterisk
Encoding: 42 42 152
Width: 540
VWidth: 0
Flags: W
HStem: 880 20G<433.164 517.781>
LayerCount: 2
Fore
SplineSet
552.515 535 m 1
 476.664 488 l 1
 412.445 617 l 1
 288.664 488 l 1
 234.515 535 l 1
 358.297 664 l 1
 217.609 713 l 1
 260.155 789 l 1
 400.843 740 l 1
 437.781 900 l 1
 517.781 900 l 1
 480.843 740 l 1
 644.155 789 l 1
 651.609 713 l 1
 488.297 664 l 1
 552.515 535 l 1
EndSplineSet
EndChar

StartChar: s
Encoding: 115 115 153
Width: 680
VWidth: 0
Flags: W
HStem: -20 100<251.362 474.711> 520 100<357.278 549.142>
VStem: 109.248 120<106.648 170> 571.582 120<440 494.916>
AnchorPoint: "diac_bottom" 328.457 -50 basechar 0
AnchorPoint: "diac_top" 490.064 650 basechar 0
AnchorPoint: "cedilla" 369.234 40 basechar 0
LayerCount: 2
Fore
SplineSet
109.248 170 m 1
 229.248 170 l 1
 215.396 110 271.47 80 358.47 80 c 0
 445.47 80 515.396 110 529.248 170 c 0
 544.716 237 475.948 251 400.025 260 c 0
 294.796 272 160.877 307 191.582 440 c 0
 210.514 522 314.139 620 483.139 620 c 0
 652.139 620 710.514 522 691.582 440 c 1
 571.582 440 l 1
 580.586 479 543.052 520 460.052 520 c 0
 377.052 520 320.586 479 311.582 440 c 0
 298.423 383 351.19 369 423.112 360 c 0
 542.649 345 684.57 323 649.248 170 c 0
 626.161 70 520.383 -20 335.383 -20 c 0
 151.383 -20 86.1611 70 109.248 170 c 1
EndSplineSet
EndChar

StartChar: f
Encoding: 102 102 154
Width: 420
VWidth: 0
Flags: W
HStem: 0 21G<130 254.617> 500 100<168.521 245.435 388.521 495.434> 800 100<469.023 564.694>
AnchorPoint: "diac_bottom" 178.457 -50 basechar 0
AnchorPoint: "diac_top" 509.325 950 basechar 0
LayerCount: 2
Fore
SplineSet
145.435 500 m 1
 168.521 600 l 1
 268.521 600 l 1
 293.916 710 l 2
 320.928 827 420.781 900 587.781 900 c 1
 564.694 800 l 1
 493.694 800 427.307 768 411.607 700 c 2
 388.521 600 l 1
 518.521 600 l 1
 495.434 500 l 1
 365.434 500 l 1
 250 0 l 1
 130 0 l 1
 245.435 500 l 1
 145.435 500 l 1
EndSplineSet
EndChar

StartChar: t
Encoding: 116 116 155
Width: 420
VWidth: 0
Flags: W
HStem: 0 21G<150 274.617> 510 90<158.521 267.743 408.521 517.743>
AnchorPoint: "diac_top" 415.473 890 basechar 0
AnchorPoint: "cedilla" 209.234 40 basechar 0
AnchorPoint: "diac_bottom" 198.457 -50 basechar 0
LayerCount: 2
Fore
SplineSet
433.93 840 m 1
 463.93 840 l 1
 408.521 600 l 1
 538.521 600 l 1
 517.743 510 l 1
 387.743 510 l 1
 270 0 l 1
 150 0 l 1
 267.743 510 l 1
 137.743 510 l 1
 158.521 600 l 1
 288.521 600 l 1
 330.077 780 l 1
 433.93 840 l 1
EndSplineSet
EndChar

StartChar: k
Encoding: 107 107 156
Width: 620
VWidth: 0
Flags: W
HStem: 0 21G<90 214.617 450.872 600> 275 100<296.575 334.488> 580 20G<549.592 698.521> 880 20G<293.164 417.781>
AnchorPoint: "diac_top" 540.064 650 basechar 0
AnchorPoint: "diac_bottom" 308.457 -50 basechar 0
LayerCount: 2
Fore
SplineSet
568.521 600 m 1
 698.521 600 l 1
 442.341 335 l 1
 600 0 l 1
 460 0 l 1
 334.488 275 l 1
 273.488 275 l 1
 210 0 l 1
 90 0 l 1
 297.781 900 l 1
 417.781 900 l 1
 296.575 375 l 1
 355.575 375 l 1
 568.521 600 l 1
EndSplineSet
EndChar

StartChar: hyphen
Encoding: 45 45 157
Width: 560
VWidth: 0
Flags: W
HStem: 280 80<153.112 554.643>
LayerCount: 2
Fore
SplineSet
153.112 360 m 1
 573.112 360 l 1
 554.643 280 l 1
 134.644 280 l 1
 153.112 360 l 1
EndSplineSet
EndChar

StartChar: bar
Encoding: 124 124 158
Width: 320
VWidth: 0
Flags: W
HStem: 880 20G<318.164 412.781>
VStem: 73.4434 339.338
LayerCount: 2
Fore
SplineSet
322.781 900 m 1
 412.781 900 l 1
 163.443 -180 l 1
 73.4434 -180 l 1
 322.781 900 l 1
EndSplineSet
EndChar

StartChar: slash
Encoding: 47 47 159
Width: 480
VWidth: 0
Flags: W
HStem: 880 20G<532.979 632.781>
LayerCount: 2
Fore
SplineSet
542.781 900 m 1
 632.781 900 l 1
 103.443 -180 l 1
 13.4434 -180 l 1
 542.781 900 l 1
EndSplineSet
EndChar

StartChar: colon
Encoding: 58 58 160
Width: 320
VWidth: 0
Flags: W
HStem: 0 160<131.586 225.352> 420 160<228.551 322.317>
VStem: 98.4697 256.964
LayerCount: 2
Fore
SplineSet
355.434 500 m 0
 345.045 455 301.965 420 256.965 420 c 0
 211.965 420 185.045 455 195.435 500 c 0
 205.823 545 248.903 580 293.903 580 c 0
 338.903 580 365.823 545 355.434 500 c 0
258.47 80 m 0
 248.08 35 205 0 160 0 c 0
 115 0 88.0801 35 98.4697 80 c 0
 108.858 125 151.938 160 196.938 160 c 0
 241.938 160 268.858 125 258.47 80 c 0
EndSplineSet
EndChar

StartChar: backslash
Encoding: 92 92 161
Width: 480
VWidth: 0
Flags: W
HStem: 880 20G<262.781 353.349>
VStem: 262.781 90<604.13 900> 293.443 90<-180 115.87>
LayerCount: 2
Fore
SplineSet
352.781 900 m 1xc0
 383.443 -180 l 1
 293.443 -180 l 1xa0
 262.781 900 l 1
 352.781 900 l 1xc0
EndSplineSet
EndChar

StartChar: seven
Encoding: 55 55 162
Width: 660
Flags: W
HStem: 0 21G<230 354.617> 700 100<264.694 611.607>
LayerCount: 2
Fore
SplineSet
230 0 m 1
 278.482 210 l 2
 347.743 510 611.607 700 611.607 700 c 1
 241.607 700 l 1
 264.694 800 l 1
 764.694 800 l 1
 741.607 700 l 1
 741.607 700 469.128 516 398.482 210 c 2
 350 0 l 1
 230 0 l 1
EndSplineSet
EndChar

StartChar: exclam
Encoding: 33 33 163
Width: 320
VWidth: 0
Flags: W
HStem: 0 160<131.586 225.352> 880 20G<303.164 427.781>
VStem: 98.4697 160<33.3334 126.667>
LayerCount: 2
Fore
SplineSet
307.781 900 m 1
 427.781 900 l 1
 303.112 360 l 1
 255.408 240 l 1
 175.408 240 l 1
 183.112 360 l 1
 307.781 900 l 1
258.47 80 m 0
 248.08 35 205 0 160 0 c 0
 115 0 88.0801 35 98.4697 80 c 0
 108.858 125 151.938 160 196.938 160 c 0
 241.938 160 268.858 125 258.47 80 c 0
EndSplineSet
EndChar

StartChar: quotedbl
Encoding: 34 34 164
Width: 440
VWidth: 0
Flags: W
HStem: 560 240<244.694 289.286 444.694 489.286>
VStem: 209.286 355.408
LayerCount: 2
Fore
SplineSet
444.694 800 m 1
 564.694 800 l 1
 489.286 560 l 1
 409.286 560 l 1
 444.694 800 l 1
244.694 800 m 1
 364.694 800 l 1
 289.286 560 l 1
 209.286 560 l 1
 244.694 800 l 1
EndSplineSet
EndChar

StartChar: dollar
Encoding: 36 36 165
Width: 790
VWidth: 0
Flags: W
HStem: -18 100<297.8 350.845 453.932 551.042> 718 101<433.448 520.764 623.851 665.553>
VStem: 127.717 120<123.55 250> 706.212 120<590 681.15>
LayerCount: 2
Fore
SplineSet
574.325 950 m 1
 654.325 950 l 1
 623.851 818 l 1
 780.464 799 848.145 685 826.212 590 c 1
 706.212 590 l 1
 721.219 655 686.762 705 600.532 717 c 1
 544.662 475 l 1
 687.275 456 814.194 408 773.1 230 c 0
 740.547 89 599.846 -5 430.845 -18 c 1
 400.37 -150 l 1
 320.37 -150 l 1
 350.845 -18 l 1
 179.846 -5 92.8555 99 127.717 250 c 1
 247.717 250 l 1
 226.478 158 265.701 94 373.932 82 c 1
 441.345 374 l 1
 335.039 390 190.197 434 226.212 590 c 0
 248.606 687 373.618 804 544.081 819 c 1
 574.325 950 l 1
466.74 484 m 1
 520.764 718 l 1
 423.455 708 361.681 657 346.212 590 c 0
 331.668 527 386.741 497 466.74 484 c 1
519.036 364 m 1
 453.932 82 l 1
 567.24 92 633.707 146 653.1 230 c 0
 672.031 312 612.111 347 519.036 364 c 1
EndSplineSet
EndChar

StartChar: percent
Encoding: 37 37 166
Width: 840
VWidth: 0
Flags: W
HStem: -10 70<591.769 687.19> 0 21G<80 208.867> 280 70<631.306 726.727> 450 70<297.968 393.389> 740 70<337.505 432.926> 780 20G<815.827 944.694>
LayerCount: 2
Fore
SplineSet
834.694 800 m 1x74
 944.694 800 l 1
 190 0 l 1
 80 0 l 1
 834.694 800 l 1x74
407.003 810 m 0x38
 501.003 810 548.303 729 525.447 630 c 0
 502.591 531 417.891 450 323.891 450 c 0
 229.891 450 182.591 531 205.447 630 c 0
 228.303 729 313.003 810 407.003 810 c 0x38
390.843 740 m 0
 338.843 740 307.452 682 295.447 630 c 0
 283.441 578 288.052 520 340.052 520 c 0
 392.052 520 423.441 578 435.447 630 c 0
 447.452 682 442.843 740 390.843 740 c 0
700.804 350 m 0
 794.804 350 842.104 269 819.248 170 c 0
 796.392 71 711.691 -10 617.691 -10 c 0xb0
 523.691 -10 476.392 71 499.248 170 c 0
 522.104 269 606.804 350 700.804 350 c 0
684.643 280 m 0
 632.643 280 601.253 222 589.248 170 c 0
 577.242 118 581.853 60 633.853 60 c 0
 685.853 60 717.242 118 729.248 170 c 0
 741.253 222 736.643 280 684.643 280 c 0
EndSplineSet
EndChar

StartChar: quotesingle
Encoding: 39 39 167
Width: 240
VWidth: 0
Flags: W
HStem: 560 240<244.694 289.286>
VStem: 209.286 155.408
LayerCount: 2
Fore
SplineSet
244.694 800 m 1
 364.694 800 l 1
 289.286 560 l 1
 209.286 560 l 1
 244.694 800 l 1
EndSplineSet
EndChar

StartChar: parenleft
Encoding: 40 40 168
Width: 400
VWidth: 0
Flags: W
LayerCount: 2
Fore
SplineSet
163.112 360 m 1
 170.039 390 l 2
 242.993 706 355.776 848 572.398 920 c 1
 560.855 870 l 1
 391.31 794 333.989 667 270.039 390 c 2
 263.112 360 l 1
 256.187 330 l 2
 192.236 53 190.916 -74 325.37 -150 c 1
 313.826 -200 l 1
 130.449 -128 83.2324 14 156.187 330 c 2
 163.112 360 l 1
EndSplineSet
EndChar

StartChar: parenright
Encoding: 41 41 169
Width: 400
VWidth: 0
Flags: W
LayerCount: 2
Fore
SplineSet
403.112 360 m 1
 396.187 330 l 2
 323.232 14 210.449 -128 -6.17383 -200 c 1
 5.37012 -150 l 1
 174.916 -74 232.236 53 296.187 330 c 2
 303.112 360 l 1
 310.039 390 l 2
 373.989 667 375.31 794 240.855 870 c 1
 252.398 920 l 1
 435.776 848 482.993 706 410.039 390 c 2
 403.112 360 l 1
EndSplineSet
EndChar

StartChar: plus
Encoding: 43 43 170
Width: 560
VWidth: 0
Flags: W
HStem: 280 80<153.112 299.644 408.112 554.643>
LayerCount: 2
Fore
SplineSet
352.704 120 m 1
 262.704 120 l 1
 299.644 280 l 1
 134.644 280 l 1
 153.112 360 l 1
 318.112 360 l 1
 355.052 520 l 1
 445.052 520 l 1
 408.112 360 l 1
 573.112 360 l 1
 554.643 280 l 1
 389.644 280 l 1
 352.704 120 l 1
EndSplineSet
EndChar

StartChar: comma
Encoding: 44 44 171
Width: 320
VWidth: 0
Flags: W
HStem: -150 310
VStem: 35.3701 228.482
LayerCount: 2
Fore
SplineSet
196.938 160 m 0
 250.938 160 277.242 118 263.853 60 c 0
 245.845 -18 164.297 -107 95.3701 -150 c 1
 35.3701 -150 l 1
 94.2969 -107 147.303 -55 160 0 c 1
 114 0 88.0801 35 98.4697 80 c 0
 108.858 125 150.938 160 196.938 160 c 0
EndSplineSet
EndChar

StartChar: zero
Encoding: 48 48 172
Width: 660
Flags: W
HStem: -20 100<271.633 438.569> 720 100<406.126 573.062>
LayerCount: 2
Fore
SplineSet
125.408 240 m 2
 199.286 560 l 2
 235.07 715 370.312 820 519.312 820 c 0
 668.312 820 755.07 715 719.286 560 c 2
 645.408 240 l 2
 609.624 85 474.383 -20 325.383 -20 c 0
 176.383 -20 89.624 85 125.408 240 c 2
245.408 240 m 2
 222.553 141 259.47 80 348.47 80 c 0
 437.47 80 502.553 141 525.408 240 c 2
 599.286 560 l 2
 622.143 659 585.225 720 496.225 720 c 0
 407.225 720 342.143 659 319.286 560 c 2
 245.408 240 l 2
EndSplineSet
EndChar

StartChar: one
Encoding: 49 49 173
Width: 660
Flags: W
HStem: 0 21G<360 484.617> 515 105<243.139 366.07> 780 20G<533.844 664.694>
LayerCount: 2
Fore
SplineSet
503.139 620 m 1
 447.594 557 317.897 515 218.897 515 c 1
 243.139 620 l 1
 359.139 620 522.993 706 544.694 800 c 1
 664.694 800 l 1
 480 0 l 1
 360 0 l 1
 503.139 620 l 1
EndSplineSet
EndChar

StartChar: two
Encoding: 50 50 174
Width: 660
Flags: W
HStem: 0 100<213.087 590> 720 100<410.521 568.893>
LayerCount: 2
Fore
SplineSet
596.212 590 m 0
 613.527 665 574.225 720 496.225 720 c 0
 418.225 720 353.527 665 336.212 590 c 1
 216.212 590 l 1
 244.84 714 365.312 820 519.312 820 c 0
 673.312 820 744.84 714 716.212 590 c 0
 690.355 478 596.502 405 488.495 340 c 0
 377.027 273 237.328 205 213.087 100 c 1
 613.087 100 l 1
 590 0 l 1
 70 0 l 1
 93.0869 100 l 2
 120.099 217 244.567 297 355.421 370 c 0
 450.966 433 573.125 490 596.212 590 c 0
EndSplineSet
EndChar

StartChar: three
Encoding: 51 51 175
Width: 660
Flags: W
HStem: -20 100<254.79 434.27> 365 100<337.354 492.169> 720 100<400.521 558.893>
VStem: 101.945 120<112.279 225> 206.212 120<590 646.471>
LayerCount: 2
Fore
SplineSet
101.945 225 m 1xf0
 221.945 225 l 1xf0
 202.783 142 243.47 80 338.47 80 c 0
 433.47 80 502.783 142 521.945 225 c 0
 541.107 308 499.267 365 404.267 365 c 2
 314.267 365 l 1
 337.354 465 l 1
 427.354 465 l 2
 505.354 465 568.897 515 586.212 590 c 0
 603.527 665 564.225 720 486.225 720 c 0
 408.225 720 343.527 665 326.212 590 c 1
 206.212 590 l 1xe8
 234.84 714 355.312 820 509.312 820 c 0
 663.312 820 734.84 714 706.212 590 c 0
 690.282 521 647.199 460 585.733 419 c 1
 639.807 376 660.877 307 641.945 225 c 0
 610.086 87 481.383 -20 315.383 -20 c 0
 149.383 -20 70.0859 87 101.945 225 c 1xf0
EndSplineSet
EndChar

StartChar: four
Encoding: 52 52 176
Width: 660
Flags: W
HStem: 0 21G<400 524.617> 150 100<232.717 434.63 577.717 634.63> 780 20G<567.713 704.694>
LayerCount: 2
Fore
SplineSet
117.717 250 m 1
 584.694 800 l 1
 704.694 800 l 1
 577.717 250 l 1
 657.717 250 l 1
 634.63 150 l 1
 554.63 150 l 1
 520 0 l 1
 400 0 l 1
 434.63 150 l 1
 94.6299 150 l 1
 117.717 250 l 1
232.717 250 m 1
 457.717 250 l 1
 541.984 615 l 1
 232.717 250 l 1
EndSplineSet
EndChar

StartChar: five
Encoding: 53 53 177
Width: 660
Flags: W
HStem: -20 100<271.633 438.569> 400 100<342.53 499.184> 700 100<400.607 711.607>
VStem: 125.408 120<105.515 240>
LayerCount: 2
Fore
SplineSet
325.383 -20 m 0
 176.383 -20 89.624 85 125.408 240 c 1
 245.408 240 l 1
 222.553 141 259.47 80 348.47 80 c 0
 437.47 80 502.553 141 525.408 240 c 0
 548.265 339 511.348 400 422.348 400 c 0
 368.348 400 322.191 382 278.495 340 c 1
 170.804 350 l 1
 324.694 800 l 1
 434.694 800 l 1
 734.694 800 l 1
 711.607 700 l 1
 400.607 700 l 1
 319.661 462 l 1
 356.51 483 400.434 500 445.434 500 c 0
 594.434 500 681.193 395 645.408 240 c 0
 609.624 85 474.383 -20 325.383 -20 c 0
EndSplineSet
EndChar

StartChar: six
Encoding: 54 54 178
Width: 660
Flags: W
HStem: -20 100<271.633 438.569> 400 100<336.677 499.184> 720 100<398.626 570.495>
LayerCount: 2
Fore
SplineSet
525.408 240 m 0
 548.265 339 511.348 400 422.348 400 c 0
 333.348 400 268.265 339 245.408 240 c 0
 222.553 141 259.47 80 348.47 80 c 0
 437.47 80 502.553 141 525.408 240 c 0
514.312 820 m 0
 670.312 820 745.994 719 717.366 595 c 1
 597.366 595 l 1
 614.682 670 573.225 720 491.225 720 c 0
 409.225 720 344.682 670 327.366 595 c 2
 292.736 445 l 1
 334.586 479 385.434 500 445.434 500 c 0
 594.434 500 681.193 395 645.408 240 c 0
 609.624 85 474.383 -20 325.383 -20 c 0
 176.383 -20 89.624 85 125.408 240 c 2
 207.366 595 l 2
 235.994 719 358.312 820 514.312 820 c 0
EndSplineSet
EndChar

StartChar: eight
Encoding: 56 56 179
Width: 660
Flags: W
HStem: -20 100<264.79 444.27> 365 100<360.2 502.169> 720 100<410.521 568.893>
LayerCount: 2
Fore
SplineSet
231.945 225 m 0
 212.783 142 253.47 80 348.47 80 c 0
 443.47 80 512.783 142 531.945 225 c 0
 551.107 308 509.267 365 414.267 365 c 0
 319.267 365 251.107 308 231.945 225 c 0
596.212 590 m 0
 613.527 665 574.225 720 496.225 720 c 0
 418.225 720 353.527 665 336.212 590 c 0
 318.897 515 359.354 465 437.354 465 c 0
 515.354 465 578.897 515 596.212 590 c 0
716.212 590 m 0
 700.282 521 657.199 460 595.733 419 c 1
 649.807 376 670.877 307 651.945 225 c 0
 620.086 87 491.383 -20 325.383 -20 c 0
 159.383 -20 80.0859 87 111.945 225 c 0
 130.877 307 183.807 376 257.733 419 c 1
 215.199 460 200.282 521 216.212 590 c 0
 244.84 714 365.312 820 519.312 820 c 0
 673.312 820 744.84 714 716.212 590 c 0
EndSplineSet
EndChar

StartChar: nine
Encoding: 57 57 180
Width: 660
Flags: W
HStem: -20 100<274.2 446.068> 300 100<345.511 508.017> 720 100<406.126 573.062>
LayerCount: 2
Fore
SplineSet
319.286 560 m 0
 296.431 461 333.348 400 422.348 400 c 0
 511.348 400 576.431 461 599.286 560 c 0
 622.143 659 585.225 720 496.225 720 c 0
 407.225 720 342.143 659 319.286 560 c 0
330.383 -20 m 0
 174.383 -20 98.7002 81 127.328 205 c 1
 247.328 205 l 1
 230.013 130 271.47 80 353.47 80 c 0
 435.47 80 500.013 130 517.328 205 c 2
 551.958 355 l 1
 510.108 321 459.261 300 399.261 300 c 0
 250.261 300 163.502 405 199.286 560 c 0
 235.07 715 370.312 820 519.312 820 c 0
 668.312 820 755.07 715 719.286 560 c 2
 637.328 205 l 2
 608.7 81 486.383 -20 330.383 -20 c 0
EndSplineSet
EndChar

StartChar: semicolon
Encoding: 59 59 181
Width: 320
VWidth: 0
Flags: W
HStem: 420 160<228.551 322.317>
VStem: 35.3701 320.063
LayerCount: 2
Fore
SplineSet
355.434 500 m 0
 345.045 455 301.965 420 256.965 420 c 0
 211.965 420 185.045 455 195.435 500 c 0
 205.823 545 248.903 580 293.903 580 c 0
 338.903 580 365.823 545 355.434 500 c 0
196.938 160 m 0
 250.938 160 277.242 118 263.853 60 c 0
 245.845 -18 164.297 -107 95.3701 -150 c 1
 35.3701 -150 l 1
 94.2969 -107 147.303 -55 160 0 c 1
 114 0 88.0801 35 98.4697 80 c 0
 108.858 125 150.938 160 196.938 160 c 0
EndSplineSet
EndChar

StartChar: less
Encoding: 60 60 182
Width: 600
VWidth: 0
Flags: W
LayerCount: 2
Fore
SplineSet
153.488 275 m 1
 174.267 365 l 1
 642.749 575 l 1
 617.354 465 l 1
 273.878 320 l 1
 550.402 175 l 1
 525.007 65 l 1
 153.488 275 l 1
EndSplineSet
EndChar

StartChar: equal
Encoding: 61 61 183
Width: 560
VWidth: 0
Flags: W
HStem: 175 80<128.871 530.402> 385 80<177.354 578.885>
LayerCount: 2
Fore
SplineSet
177.354 465 m 1
 597.354 465 l 1
 578.885 385 l 1
 158.884 385 l 1
 177.354 465 l 1
128.871 255 m 1
 548.871 255 l 1
 530.402 175 l 1
 110.402 175 l 1
 128.871 255 l 1
EndSplineSet
EndChar

StartChar: greater
Encoding: 62 62 184
Width: 600
VWidth: 0
Flags: W
LayerCount: 2
Fore
SplineSet
573.488 275 m 1
 105.007 65 l 1
 130.402 175 l 1
 473.878 320 l 1
 197.354 465 l 1
 222.749 575 l 1
 594.267 365 l 1
 573.488 275 l 1
EndSplineSet
EndChar

StartChar: question
Encoding: 63 63 185
Width: 640
VWidth: 0
Flags: W
HStem: 0 160<291.586 385.352> 720 100<399.552 561.059>
VStem: 210.435 119.234<537.182 653.266> 258.47 160<33.3334 126.667> 305.408 110<240 319.172>
LayerCount: 2
Fore
SplineSet
329.669 540 m 1xe0
 210.435 500 l 1xe0
 202.591 531 199.748 562 208.521 600 c 0
 239.227 733 366.312 820 509.312 820 c 0
 652.312 820 739.227 733 708.521 600 c 0
 682.895 489 596.812 441 503.884 385 c 0
 447.035 351 432.262 313 415.408 240 c 1
 305.408 240 l 1xc8
 306.794 246 307.948 251 309.333 257 c 0
 330.573 349 345.348 400 457.354 465 c 0
 529.05 507 571.668 527 588.521 600 c 0
 605.374 673 555.225 720 486.225 720 c 0
 417.225 720 345.374 673 328.521 600 c 0
 323.673 579 324.517 561 329.669 540 c 1xe0
418.47 80 m 0xd0
 408.08 35 365 0 320 0 c 0
 275 0 248.08 35 258.47 80 c 0
 268.858 125 311.938 160 356.938 160 c 0
 401.938 160 428.858 125 418.47 80 c 0xd0
EndSplineSet
EndChar

StartChar: at
Encoding: 64 64 186
Width: 1140
VWidth: 0
Flags: W
HStem: -180 70<401.435 704.385> 70 95<525.09 665.522 849.094 978.527> 495 95<590.338 752.096> 770 70<597.283 890.938>
LayerCount: 2
Fore
SplineSet
729.716 237 m 1
 775.658 436 l 1
 763.585 466 732.279 495 674.279 495 c 0
 615.279 495 547.123 464 525.421 370 c 2
 506.952 290 l 2
 485.25 196 536.094 165 598.094 165 c 0
 657.094 165 702.404 201 729.716 237 c 1
806.595 570 m 1
 926.595 570 l 1
 852.717 250 l 2
 835.171 174 859.938 160 896.938 160 c 0
 941.938 160 1030.63 176 1066.19 330 c 0
 1123.67 579 996.769 770 747.769 770 c 0
 498.769 770 283.673 579 226.187 330 c 0
 168.7 81 295.604 -110 544.604 -110 c 1
 656.759 -105 735.068 -82 819.381 -33 c 1
 838.837 -96 l 1
 739.446 -154 629.675 -179 528.443 -180 c 1
 241.443 -180 79.9277 43 146.187 330 c 0
 212.445 617 476.93 840 763.93 840 c 0
 1050.93 840 1212.45 617 1146.19 330 c 0
 1100.71 133 963.161 70 876.161 70 c 0
 802.161 70 748.471 93 728.398 136 c 1
 682.625 98 623.161 70 551.161 70 c 0
 420.161 70 352.553 141 386.952 290 c 2
 405.421 370 l 2
 438.436 513 546.212 590 671.212 590 c 0
 729.212 590 770.672 566 798.053 533 c 1
 806.595 570 l 1
EndSplineSet
EndChar

StartChar: bracketleft
Encoding: 91 91 187
Width: 400
VWidth: 0
Flags: W
HStem: -180 75<155.759 298.443> 825 75<370.466 530.466>
LayerCount: 2
Fore
SplineSet
163.112 360 m 1
 287.781 900 l 1
 547.781 900 l 1
 530.466 825 l 1
 370.466 825 l 1
 263.112 360 l 1
 155.759 -105 l 1
 315.759 -105 l 1
 298.443 -180 l 1
 38.4434 -180 l 1
 163.112 360 l 1
EndSplineSet
EndChar

StartChar: bracketright
Encoding: 93 93 188
Width: 400
VWidth: 0
Flags: W
HStem: -180 75<35.7588 195.759> 825 75<267.781 410.466>
LayerCount: 2
Fore
SplineSet
403.112 360 m 1
 278.443 -180 l 1
 18.4434 -180 l 1
 35.7588 -105 l 1
 195.759 -105 l 1
 303.112 360 l 1
 410.466 825 l 1
 250.466 825 l 1
 267.781 900 l 1
 527.781 900 l 1
 403.112 360 l 1
EndSplineSet
EndChar

StartChar: asciicircum
Encoding: 94 94 189
Width: 540
VWidth: 0
Flags: W
HStem: 560 240<409.286 409.694>
LayerCount: 2
Fore
SplineSet
437.61 726 m 1
 299.286 560 l 1
 179.286 560 l 1
 409.694 800 l 1
 499.694 800 l 1
 619.286 560 l 1
 499.286 560 l 1
 437.61 726 l 1
EndSplineSet
EndChar

StartChar: underscore
Encoding: 95 95 190
Width: 720
VWidth: 0
Flags: W
HStem: -80 80<80 621.53>
LayerCount: 2
Fore
SplineSet
80 0 m 1
 640 0 l 1
 621.53 -80 l 1
 61.5303 -80 l 1
 80 0 l 1
EndSplineSet
EndChar

StartChar: grave
Encoding: 96 96 191
Width: 420
VWidth: 0
Flags: W
HStem: 620 180
VStem: 224.694 298.444
LayerCount: 2
Fore
SplineSet
224.694 800 m 1
 394.694 800 l 1
 523.139 620 l 1
 428.139 620 l 1
 224.694 800 l 1
EndSplineSet
EndChar

StartChar: braceleft
Encoding: 123 123 192
Width: 400
VWidth: 0
Flags: W
HStem: -180 70<221.793 318.443> 830 70<429.097 551.621>
LayerCount: 2
Fore
SplineSet
123.112 360 m 1
 124.267 365 l 1
 167.884 385 249.735 432 270.052 520 c 2
 337.003 810 l 2
 349.932 866 400.781 900 457.781 900 c 2
 567.781 900 l 1
 551.621 830 l 1
 471.621 830 l 2
 443.621 830 429.081 819 422.386 790 c 2
 360.052 520 l 2
 330.731 393 243.112 360 243.112 360 c 1
 243.112 360 315.494 327 286.174 200 c 2
 223.839 -70 l 2
 217.145 -99 226.604 -110 254.604 -110 c 2
 334.604 -110 l 1
 318.443 -180 l 1
 208.443 -180 l 2
 151.443 -180 116.293 -146 129.222 -90 c 2
 196.174 200 l 2
 216.49 288 156.341 335 121.958 355 c 1
 123.112 360 l 1
EndSplineSet
EndChar

StartChar: braceright
Encoding: 125 125 193
Width: 400
VWidth: 0
Flags: W
HStem: -180 70<14.6045 137.128> 830 70<247.781 344.432>
LayerCount: 2
Fore
SplineSet
443.112 360 m 1
 441.958 355 l 1
 398.341 335 316.49 288 296.174 200 c 2
 229.222 -90 l 2
 216.293 -146 165.443 -180 108.443 -180 c 2
 -1.55664 -180 l 1
 14.6045 -110 l 1
 94.6045 -110 l 2
 122.604 -110 137.145 -99 143.839 -70 c 2
 206.174 200 l 2
 235.494 327 323.112 360 323.112 360 c 1
 323.112 360 250.731 393 280.052 520 c 2
 342.386 790 l 2
 349.081 819 339.621 830 311.621 830 c 2
 231.621 830 l 1
 247.781 900 l 1
 357.781 900 l 2
 414.781 900 449.932 866 437.003 810 c 2
 370.052 520 l 2
 349.735 432 409.884 385 444.267 365 c 1
 443.112 360 l 1
EndSplineSet
EndChar

StartChar: asciitilde
Encoding: 126 126 194
Width: 640
VWidth: 0
Flags: W
HStem: 235 80<438.75 560.717> 325 80<227.039 348.99>
LayerCount: 2
Fore
SplineSet
303.502 405 m 0
 359.502 405 385.808 389 418.112 360 c 0
 447.879 333 456.724 315 502.724 315 c 0
 551.724 315 588.882 359 611.193 395 c 1
 656.575 375 l 1
 631.107 308 554.254 235 484.254 235 c 0
 428.254 235 400.179 252 369.644 280 c 0
 338.107 308 331.032 325 285.032 325 c 0
 236.032 325 198.874 281 176.562 245 c 1
 131.18 265 l 1
 156.648 332 233.502 405 303.502 405 c 0
EndSplineSet
EndChar

StartChar: quotedblleft
Encoding: 8220 8220 195
Width: 520
VWidth: 0
Flags: W
HStem: 550 290
LayerCount: 2
Fore
SplineSet
286.978 550 m 0
 235.978 550 215.981 589 227.756 640 c 0
 245.764 718 310.002 797 378.93 840 c 1
 433.93 840 l 1
 374.002 797 331.997 745 319.299 690 c 1
 358.299 690 382.143 659 373.139 620 c 0
 364.135 581 325.978 550 286.978 550 c 0
496.978 550 m 0
 445.978 550 425.981 589 437.756 640 c 0
 455.764 718 520.002 797 588.93 840 c 1
 643.93 840 l 1
 584.002 797 541.997 745 529.299 690 c 1
 568.299 690 592.143 659 583.139 620 c 0
 574.135 581 535.978 550 496.978 550 c 0
EndSplineSet
EndChar

StartChar: quotedblright
Encoding: 8221 8221 196
Width: 520
VWidth: 0
Flags: W
HStem: 550 290
LayerCount: 2
Fore
SplineSet
343.93 840 m 0
 394.93 840 414.926 801 403.151 750 c 0
 385.144 672 320.905 593 251.978 550 c 1
 196.978 550 l 1
 256.905 593 298.91 645 311.607 700 c 1
 272.607 700 248.765 731 257.769 770 c 0
 266.772 809 304.93 840 343.93 840 c 0
553.93 840 m 0
 604.93 840 624.926 801 613.151 750 c 0
 595.144 672 530.905 593 461.978 550 c 1
 406.978 550 l 1
 466.905 593 508.91 645 521.607 700 c 1
 482.607 700 458.765 731 467.769 770 c 0
 476.772 809 514.93 840 553.93 840 c 0
EndSplineSet
EndChar

StartChar: quoteleft
Encoding: 8216 8216 197
Width: 320
VWidth: 0
Flags: W
HStem: 550 290
VStem: 227.756 206.174
LayerCount: 2
Fore
SplineSet
286.978 550 m 0
 235.978 550 215.981 589 227.756 640 c 0
 245.764 718 310.002 797 378.93 840 c 1
 433.93 840 l 1
 374.002 797 331.997 745 319.299 690 c 1
 358.299 690 382.143 659 373.139 620 c 0
 364.135 581 325.978 550 286.978 550 c 0
EndSplineSet
EndChar

StartChar: quoteright
Encoding: 8217 8217 198
Width: 320
VWidth: 0
Flags: W
HStem: 550 290
VStem: 206.978 206.174
LayerCount: 2
Fore
SplineSet
353.93 840 m 0
 404.93 840 424.926 801 413.151 750 c 0
 395.144 672 330.905 593 261.978 550 c 1
 206.978 550 l 1
 266.905 593 308.91 645 321.607 700 c 1
 282.607 700 258.765 731 267.769 770 c 0
 276.772 809 314.93 840 353.93 840 c 0
EndSplineSet
EndChar

StartChar: afii57929
Encoding: 700 700 199
Width: 280
VWidth: 0
Flags: W
HStem: 500 310
VStem: 165.435 228.481
LayerCount: 2
Fore
SplineSet
327.003 810 m 0
 381.003 810 407.307 768 393.916 710 c 0
 375.908 632 294.361 543 225.435 500 c 1
 165.435 500 l 1
 224.361 543 277.366 595 290.064 650 c 1
 244.064 650 218.145 685 228.534 730 c 0
 238.923 775 281.003 810 327.003 810 c 0
EndSplineSet
EndChar

StartChar: Euro
Encoding: 8364 8364 200
Width: 750
Flags: W
HStem: -20 100<388.741 615.137> 280 70<140.804 224.644 360.804 644.643> 450 70<180.052 263.891 400.052 683.891> 725 95<531.218 755.71>
LayerCount: 2
Fore
SplineSet
860.843 740 m 1
 789.682 670 l 1
 759.455 708 711.38 725 647.38 725 c 0
 520.38 725 429.833 649 400.052 520 c 1
 700.052 520 l 1
 683.891 450 l 1
 383.891 450 l 1
 360.804 350 l 1
 660.804 350 l 1
 644.643 280 l 1
 344.644 280 l 1
 342.334 270 l 2
 314.63 150 367.47 80 498.47 80 c 0
 562.47 80 617.24 92 665.013 130 c 1
 702.697 55 l 1
 641.616 7 556.383 -20 475.383 -20 c 0
 298.383 -20 180.316 88 222.334 270 c 2
 224.644 280 l 1
 124.644 280 l 1
 140.804 350 l 1
 240.804 350 l 1
 263.891 450 l 1
 163.891 450 l 1
 180.052 520 l 1
 280.052 520 l 1
 322.993 706 492.312 820 669.312 820 c 0
 750.312 820 821.924 788 860.843 740 c 1
EndSplineSet
EndChar

StartChar: yen
Encoding: 165 165 201
Width: 700
VWidth: 0
Flags: W
HStem: 0 21G<290 414.617> 170 70<105.408 329.248 465.408 689.248> 370 70<151.582 323.582 579.582 735.421> 780 20G<204.694 350.633 709.521 864.694>
LayerCount: 2
Fore
SplineSet
204.694 800 m 1
 344.694 800 l 1
 451.582 440 l 1
 724.694 800 l 1
 864.694 800 l 1
 579.582 440 l 1
 751.582 440 l 1
 735.421 370 l 1
 523.421 370 l 1
 483.878 320 l 1
 465.408 240 l 1
 705.408 240 l 1
 689.248 170 l 1
 449.248 170 l 1
 410 0 l 1
 290 0 l 1
 329.248 170 l 1
 89.248 170 l 1
 105.408 240 l 1
 345.408 240 l 1
 363.878 320 l 1
 347.421 370 l 1
 135.421 370 l 1
 151.582 440 l 1
 323.582 440 l 1
 204.694 800 l 1
EndSplineSet
EndChar

StartChar: sterling
Encoding: 163 163 202
Width: 700
Flags: W
HStem: 0 100<223.087 650> 365 70<170.428 254.267 394.428 584.267> 600 21G<598.521 733.989> 725 95<485.787 594.725>
VStem: 598.521 120<600 719.628>
LayerCount: 2
Fore
SplineSet
276.428 435 m 1
 291.202 486 304.899 541 318.521 600 c 0
 349.457 734 441.312 820 569.312 820 c 0
 697.312 820 749.457 734 718.521 600 c 1
 598.521 600 l 1
 613.989 667 609.38 725 547.38 725 c 0
 485.38 725 453.989 667 438.521 600 c 0
 425.361 543 410.433 487 394.428 435 c 1
 600.428 435 l 1
 584.267 365 l 1
 371.267 365 l 1
 323.176 226 268.396 123 223.087 100 c 1
 673.087 100 l 1
 650 0 l 1
 70 0 l 1
 93.0869 100 l 1
 162.323 153 212.101 243 254.267 365 c 1
 154.267 365 l 1
 170.428 435 l 1
 276.428 435 l 1
EndSplineSet
EndChar

StartChar: cent
Encoding: 162 162 203
Width: 640
VWidth: 0
Flags: W
HStem: 81 102<279.002 313.7 417.249 487.275>
LayerCount: 2
Fore
SplineSet
514.325 950 m 1
 594.325 950 l 1
 540.764 718 l 1
 668.762 705 734.754 627 707.743 510 c 1
 587.743 510 l 1
 602.057 572 575.83 610 518.6 622 c 1
 417.249 183 l 1
 477.096 191 521.021 221 536.952 290 c 1
 656.952 290 l 1
 627.862 164 527.471 93 393.932 82 c 1
 340.37 -150 l 1
 260.37 -150 l 1
 313.7 81 l 1
 182.24 92 105.784 155 136.952 290 c 2
 183.125 490 l 2
 214.293 625 324.762 705 460.764 718 c 1
 514.325 950 l 1
303.125 490 m 2
 256.952 290 l 2
 242.869 229 278.788 194 337.249 183 c 1
 438.6 622 l 1
 372.83 610 321.133 568 303.125 490 c 2
EndSplineSet
EndChar

StartChar: copyright
Encoding: 169 169 204
Width: 940
Flags: W
HStem: -20 70<361.2 615.531> 190 70<468.999 613.649> 540 70<521.046 665.696> 750 70<509.164 763.494>
LayerCount: 2
Fore
SplineSet
615.83 610 m 0
 718.83 610 776.054 546 756.199 460 c 1
 676.199 460 l 1
 687.281 508 655.669 540 599.669 540 c 0
 543.669 540 497.281 508 486.199 460 c 2
 458.495 340 l 2
 447.413 292 479.025 260 535.025 260 c 0
 591.025 260 637.413 292 648.495 340 c 1
 728.495 340 l 1
 708.641 254 621.865 190 518.865 190 c 0
 415.865 190 358.641 254 378.495 340 c 2
 406.199 460 l 2
 426.054 546 512.83 610 615.83 610 c 0
659.312 820 m 0
 891.312 820 1035.91 632 982.348 400 c 0
 928.786 168 697.383 -20 465.383 -20 c 0
 233.383 -20 88.7861 168 142.348 400 c 0
 195.908 632 427.312 820 659.312 820 c 0
643.151 750 m 0
 450.151 750 256.905 593 212.348 400 c 0
 167.79 207 288.543 50 481.543 50 c 0
 674.543 50 867.79 207 912.348 400 c 0
 956.905 593 836.151 750 643.151 750 c 0
EndSplineSet
EndChar

StartChar: registered
Encoding: 174 174 205
Width: 940
Flags: W
HStem: -20 70<361.2 615.531> 350 60<494.656 575.804> 540 60<524.669 669.772> 750 70<509.164 763.494>
LayerCount: 2
Fore
SplineSet
609.669 540 m 2
 524.669 540 l 1
 494.656 410 l 1
 579.656 410 l 2
 640.656 410 666.582 440 674.662 475 c 0
 682.743 510 670.669 540 609.669 540 c 2
643.521 600 m 2
 744.521 600 762.129 529 749.662 475 c 0
 740.658 436 711.577 388 659.267 365 c 1
 716.174 200 l 1
 626.174 200 l 1
 575.804 350 l 1
 480.804 350 l 1
 446.174 200 l 1
 366.174 200 l 1
 458.521 600 l 1
 643.521 600 l 2
659.312 820 m 0
 891.312 820 1035.91 632 982.348 400 c 0
 928.786 168 697.383 -20 465.383 -20 c 0
 233.383 -20 88.7861 168 142.348 400 c 0
 195.908 632 427.312 820 659.312 820 c 0
643.151 750 m 0
 450.151 750 256.905 593 212.348 400 c 0
 167.79 207 288.543 50 481.543 50 c 0
 674.543 50 867.79 207 912.348 400 c 0
 956.905 593 836.151 750 643.151 750 c 0
EndSplineSet
EndChar

StartChar: guillemotleft
Encoding: 171 171 206
Width: 600
Flags: W
LayerCount: 2
Fore
SplineSet
453.878 320 m 1
 550.778 90 l 1
 470.778 90 l 1
 353.878 320 l 1
 576.978 550 l 1
 656.978 550 l 1
 453.878 320 l 1
243.878 320 m 1
 340.778 90 l 1
 260.778 90 l 1
 143.878 320 l 1
 366.978 550 l 1
 446.978 550 l 1
 243.878 320 l 1
EndSplineSet
EndChar

StartChar: guillemotright
Encoding: 187 187 207
Width: 600
Flags: W
LayerCount: 2
Fore
SplineSet
293.878 320 m 1
 196.978 550 l 1
 276.978 550 l 1
 393.878 320 l 1
 170.778 90 l 1
 90.7783 90 l 1
 293.878 320 l 1
503.878 320 m 1
 406.978 550 l 1
 486.978 550 l 1
 603.878 320 l 1
 380.778 90 l 1
 300.778 90 l 1
 503.878 320 l 1
EndSplineSet
EndChar

StartChar: acute
Encoding: 180 180 208
Width: 420
VWidth: 0
Flags: W
HStem: 620 180
VStem: 183.139 381.556
LayerCount: 2
Fore
SplineSet
564.694 800 m 1
 278.139 620 l 1
 183.139 620 l 1
 394.694 800 l 1
 564.694 800 l 1
EndSplineSet
EndChar

StartChar: exclamdown
Encoding: 161 161 209
Width: 310
VWidth: 0
Flags: W
HStem: 470 160<240.094 333.861>
VStem: 206.978 160<503.333 596.667>
LayerCount: 2
Fore
SplineSet
37.666 -270 m 1
 162.334 270 l 1
 210.039 390 l 1
 290.039 390 l 1
 282.334 270 l 1
 157.666 -270 l 1
 37.666 -270 l 1
366.978 550 m 0
 356.589 505 313.508 470 268.508 470 c 0
 223.508 470 196.589 505 206.978 550 c 0
 217.366 595 260.447 630 305.447 630 c 0
 350.447 630 377.366 595 366.978 550 c 0
EndSplineSet
EndChar

StartChar: brokenbar
Encoding: 166 166 210
Width: 320
Flags: W
HStem: 880 20G<318.164 412.781>
VStem: 73.4434 339.338
LayerCount: 2
Fore
SplineSet
179.644 280 m 1
 269.644 280 l 1
 163.443 -180 l 1
 73.4434 -180 l 1
 179.644 280 l 1
322.781 900 m 1
 412.781 900 l 1
 306.582 440 l 1
 216.582 440 l 1
 322.781 900 l 1
EndSplineSet
EndChar

StartChar: section
Encoding: 167 167 211
Width: 680
Flags: W
HStem: -20 100<251.362 474.711> 720 100<403.452 595.315>
VStem: 109.248 120<106.648 170> 617.756 120<640 694.916>
LayerCount: 2
Fore
SplineSet
556.879 333 m 1
 566.419 344 572.189 356 575.421 370 c 0
 590.89 437 522.121 451 446.199 460 c 0
 412.123 464 373.508 470 340.278 482 c 1
 324.277 469 314.814 454 311.582 440 c 0
 298.423 383 351.19 369 423.112 360 c 0
 467.728 354 516.342 348 556.879 333 c 1
253.438 539 m 1
 235.21 564 227.828 597 237.756 640 c 0
 256.687 722 360.312 820 529.312 820 c 0
 698.312 820 756.687 722 737.756 640 c 1
 617.756 640 l 1
 626.76 679 589.225 720 506.225 720 c 0
 423.225 720 366.76 679 357.756 640 c 0
 344.596 583 397.364 569 469.286 560 c 0
 588.823 545 730.744 523 695.421 370 c 0
 687.341 335 669.491 301 640.796 272 c 1
 655.024 247 659.406 214 649.248 170 c 0
 626.161 70 520.383 -20 335.383 -20 c 0
 151.383 -20 86.1611 70 109.248 170 c 1
 229.248 170 l 1
 215.396 110 271.47 80 358.47 80 c 0
 445.47 80 515.396 110 529.248 170 c 0
 544.716 237 475.948 251 400.025 260 c 0
 294.796 272 160.877 307 191.582 440 c 0
 199.2 473 220.281 508 253.438 539 c 1
EndSplineSet
EndChar

StartChar: endash
Encoding: 8211 8211 213
Width: 670
VWidth: 0
Flags: W
HStem: 285 70<171.958 655.798>
LayerCount: 2
Fore
SplineSet
171.958 355 m 1
 671.958 355 l 1
 655.798 285 l 1
 155.798 285 l 1
 171.958 355 l 1
EndSplineSet
EndChar

StartChar: guilsinglleft
Encoding: 8249 8249 214
Width: 390
Flags: W
VStem: 143.878 303.1
LayerCount: 2
Fore
SplineSet
243.878 320 m 1
 340.778 90 l 1
 260.778 90 l 1
 143.878 320 l 1
 366.978 550 l 1
 446.978 550 l 1
 243.878 320 l 1
EndSplineSet
EndChar

StartChar: guilsinglright
Encoding: 8250 8250 215
Width: 390
Flags: W
VStem: 90.7783 303.1
LayerCount: 2
Fore
SplineSet
293.878 320 m 1
 196.978 550 l 1
 276.978 550 l 1
 393.878 320 l 1
 170.778 90 l 1
 90.7783 90 l 1
 293.878 320 l 1
EndSplineSet
EndChar

StartChar: ellipsis
Encoding: 8230 8230 216
Width: 860
VWidth: 0
Flags: W
HStem: 0 160<141.586 235.352 401.586 495.352 661.586 755.352>
VStem: 108.47 160<33.3334 126.667> 368.47 160<33.3334 126.667> 628.47 160<33.3334 126.667>
CounterMasks: 1 70
LayerCount: 2
Fore
SplineSet
528.47 80 m 0
 518.08 35 475 0 430 0 c 0
 385 0 358.08 35 368.47 80 c 0
 378.858 125 421.938 160 466.938 160 c 0
 511.938 160 538.858 125 528.47 80 c 0
788.47 80 m 0
 778.08 35 735 0 690 0 c 0
 645 0 618.08 35 628.47 80 c 0
 638.858 125 681.938 160 726.938 160 c 0
 771.938 160 798.858 125 788.47 80 c 0
268.47 80 m 0
 258.08 35 215 0 170 0 c 0
 125 0 98.0801 35 108.47 80 c 0
 118.858 125 161.938 160 206.938 160 c 0
 251.938 160 278.858 125 268.47 80 c 0
EndSplineSet
LCarets2: 2 0 0 
Ligature2: "'liga' Latin Standard Ligatures-1" period period period
EndChar

StartChar: trademark
Encoding: 8482 8482 217
Width: 830
VWidth: 0
Flags: W
HStem: 910 50<276.634 360.09 420.09 515.09>
LayerCount: 2
Fore
SplineSet
899.286 560 m 1
 839.286 560 l 1
 909.701 865 l 1
 719.286 560 l 1
 704.286 560 l 1
 689.286 560 l 1
 639.701 865 l 1
 569.286 560 l 1
 509.286 560 l 1
 601.634 960 l 1
 661.634 960 l 1
 676.634 960 l 1
 725.064 650 l 1
 916.634 960 l 1
 931.634 960 l 1
 991.634 960 l 1
 899.286 560 l 1
265.09 910 m 1
 276.634 960 l 1
 371.634 960 l 1
 431.634 960 l 1
 526.634 960 l 1
 515.09 910 l 1
 420.09 910 l 1
 339.286 560 l 1
 279.286 560 l 1
 360.09 910 l 1
 265.09 910 l 1
EndSplineSet
EndChar

StartChar: emdash
Encoding: 8212 8212 218
Width: 970
VWidth: 0
Flags: W
HStem: 285 70<171.958 955.798>
LayerCount: 2
Fore
SplineSet
171.958 355 m 1
 971.958 355 l 1
 955.798 285 l 1
 155.798 285 l 1
 171.958 355 l 1
EndSplineSet
EndChar

StartChar: afii00208
Encoding: 8213 8213 219
Width: 970
VWidth: 0
Flags: W
HStem: 285 70<171.958 955.798>
LayerCount: 2
Fore
SplineSet
171.958 355 m 1
 971.958 355 l 1
 955.798 285 l 1
 155.798 285 l 1
 171.958 355 l 1
EndSplineSet
EndChar

StartChar: ordfeminine
Encoding: 170 170 220
Width: 360
VWidth: 0
Flags: W
HStem: 550 50<257.074 368.315 450.287 458.132> 700 40<272.03 405.607> 822 48<306.681 419.67>
VStem: 194.064 287.704
LayerCount: 2
Fore
SplineSet
194.064 650 m 0
 208.378 712 264.843 740 334.843 740 c 2
 414.843 740 l 1
 421.769 770 l 2
 429.618 804 407.773 822 369.773 822 c 0
 331.773 822 299.618 804 291.769 770 c 1
 231.769 770 l 1
 245.852 831 304.855 870 380.355 870 c 0
 455.855 870 495.852 831 481.769 770 c 2
 451.756 640 l 2
 445.522 613 450.675 605 469.675 605 c 1
 458.132 555 l 1
 415.132 555 390.672 566 385.52 587 c 1
 358.44 565 322.978 550 286.978 550 c 0
 212.978 550 181.366 595 194.064 650 c 0
254.064 650 m 0
 246.907 619 270.521 600 308.521 600 c 0
 343.521 600 372.753 614 391.294 638 c 1
 405.607 700 l 1
 331.607 700 l 2
 293.607 700 261.914 684 254.064 650 c 0
EndSplineSet
EndChar

StartChar: uni00AD
Encoding: 173 173 221
Width: 560
VWidth: 0
Flags: W
HStem: 280 80<153.112 554.643>
LayerCount: 2
Fore
SplineSet
153.112 360 m 1
 573.112 360 l 1
 554.643 280 l 1
 134.644 280 l 1
 153.112 360 l 1
EndSplineSet
EndChar

StartChar: degree
Encoding: 176 176 222
Width: 380
VWidth: 0
Flags: W
HStem: 670 65<302.075 429.093> 925 65<334.148 461.166>
LayerCount: 2
Fore
SplineSet
403.553 925 m 0
 351.553 925 298.626 882 286.621 830 c 0
 274.615 778 307.688 735 359.688 735 c 0
 411.688 735 464.615 778 476.621 830 c 0
 488.626 882 455.553 925 403.553 925 c 0
418.56 990 m 0
 506.56 990 561.938 918 541.621 830 c 0
 521.305 742 432.682 670 344.682 670 c 0
 256.682 670 201.305 742 221.621 830 c 0
 241.937 918 330.56 990 418.56 990 c 0
EndSplineSet
EndChar

StartChar: plusminus
Encoding: 177 177 223
Width: 560
VWidth: 0
Flags: W
HStem: 80 70<114.63 498.47> 365 80<172.736 324.267 422.736 574.267>
LayerCount: 2
Fore
SplineSet
370.791 220 m 1
 290.791 220 l 1
 324.267 365 l 1
 154.267 365 l 1
 172.736 445 l 1
 342.736 445 l 1
 376.212 590 l 1
 456.212 590 l 1
 422.736 445 l 1
 592.736 445 l 1
 574.267 365 l 1
 404.267 365 l 1
 370.791 220 l 1
114.63 150 m 1
 514.63 150 l 1
 498.47 80 l 1
 98.4697 80 l 1
 114.63 150 l 1
EndSplineSet
EndChar

StartChar: uni00B2
Encoding: 178 178 224
Width: 360
Flags: W
HStem: 560 50<250.83 439.286> 920 50<334.631 437.92>
VStem: 179.286 323.106
LayerCount: 2
Fore
SplineSet
442.393 855 m 0
 450.935 892 431.398 920 392.398 920 c 0
 353.398 920 320.935 892 312.393 855 c 1
 252.393 855 l 1
 266.706 917 326.942 970 403.942 970 c 0
 480.942 970 516.706 917 502.393 855 c 0
 489.464 799 441.922 762 388.534 730 c 0
 332.685 696 262.835 662 250.83 610 c 1
 450.83 610 l 1
 439.286 560 l 1
 179.286 560 l 1
 190.83 610 l 2
 204.22 668 266.455 708 321.997 745 c 0
 369.153 776 430.849 805 442.393 855 c 0
EndSplineSet
EndChar

StartChar: uni00B3
Encoding: 179 179 225
Width: 360
Flags: W
HStem: 550 50<271.826 387.192> 742 50<322.848 410.44> 920 50<339.631 442.92>
VStem: 205.144 302.249
LayerCount: 2
Fore
SplineSet
205.144 672 m 1
 265.144 672 l 1
 255.678 631 276.521 600 323.521 600 c 0
 370.521 600 405.678 631 415.259 672.5 c 0
 424.84 714 403.305 742 356.305 742 c 2
 311.305 742 l 1
 322.848 792 l 1
 367.848 792 l 2
 406.848 792 438.851 818 447.393 855 c 0
 455.935 892 436.398 920 397.398 920 c 0
 358.398 920 325.935 892 317.393 855 c 1
 257.393 855 l 1
 271.706 917 331.942 970 408.942 970 c 0
 485.942 970 521.706 917 507.393 855 c 0
 499.312 820 478.386 790 447.769 770 c 1
 474.689 748 484.84 714 475.144 672 c 0
 459.444 604 394.978 550 311.978 550 c 0
 228.978 550 189.444 604 205.144 672 c 1
EndSplineSet
EndChar

StartChar: periodcentered
Encoding: 183 183 226
Width: 320
VWidth: 0
Flags: W
HStem: 230 160<184.686 278.452>
VStem: 151.569 160<263.333 356.667>
LayerCount: 2
Fore
SplineSet
311.569 310 m 0
 301.18 265 258.1 230 213.1 230 c 0
 168.1 230 141.18 265 151.569 310 c 0
 161.958 355 205.039 390 250.039 390 c 0
 295.039 390 321.958 355 311.569 310 c 0
EndSplineSet
EndChar

StartChar: uni00B9
Encoding: 185 185 227
Width: 290
Flags: W
HStem: 818 52<240.855 329.31>
VStem: 228.851 222.783
LayerCount: 2
Fore
SplineSet
370.855 870 m 1
 343.468 838 278.851 818 228.851 818 c 1
 240.855 870 l 1
 298.855 870 380.782 913 391.634 960 c 1
 451.634 960 l 1
 359.286 560 l 1
 299.286 560 l 1
 370.855 870 l 1
EndSplineSet
EndChar

StartChar: ordmasculine
Encoding: 186 186 228
Width: 360
VWidth: 0
Flags: W
HStem: 550 50<258.975 379.173> 822 48<302.964 416.398>
LayerCount: 2
Fore
SplineSet
364.773 822 m 0
 327.773 822 285.618 804 270.843 740 c 2
 254.682 670 l 2
 242.215 616 280.521 600 313.521 600 c 0
 346.521 600 392.215 616 404.682 670 c 2
 420.843 740 l 2
 435.618 804 401.773 822 364.773 822 c 0
375.855 870 m 0
 452.855 870 500.235 824 480.843 740 c 2
 464.682 670 l 2
 445.75 588 378.978 550 301.978 550 c 0
 224.978 550 175.751 588 194.682 670 c 2
 210.843 740 l 2
 230.235 824 298.855 870 375.855 870 c 0
EndSplineSet
EndChar

StartChar: questiondown
Encoding: 191 191 229
Width: 600
VWidth: 0
Flags: W
HStem: -20 100<223.635 385.142> 640 160<399.342 493.108>
VStem: 366.225 160<673.333 766.667> 369.286 106.075<480.828 560> 456.174 120<146.734 262.456>
LayerCount: 2
Fore
SplineSet
455.025 260 m 1xc8
 574.261 300 l 1
 582.104 269 584.946 238 576.174 200 c 0xc8
 545.468 67 418.383 -20 275.383 -20 c 0
 132.383 -20 45.4678 67 76.1738 200 c 0
 101.8 311 187.882 359 280.811 415 c 0
 337.66 449 352.433 487 369.286 560 c 1
 479.286 560 l 1
 477.901 554 476.747 549 475.361 543 c 0xd0
 454.121 451 439.348 400 327.341 335 c 0
 255.645 293 213.027 273 196.174 200 c 0
 179.32 127 229.47 80 298.47 80 c 0
 367.47 80 439.32 127 456.174 200 c 0
 461.021 221 460.178 239 455.025 260 c 1xc8
366.225 720 m 0xe0
 376.614 765 419.694 800 464.694 800 c 0
 509.694 800 536.614 765 526.225 720 c 0
 515.836 675 472.756 640 427.756 640 c 0
 382.756 640 355.836 675 366.225 720 c 0xe0
EndSplineSet
EndChar

StartChar: dagger
Encoding: 8224 8224 230
Width: 580
VWidth: 0
Flags: W
HStem: 545 55<188.521 380.823 463.521 655.823> 880 20G<458.164 532.781>
LayerCount: 2
Fore
SplineSet
532.781 900 m 1
 463.521 600 l 1
 668.521 600 l 1
 655.823 545 l 1
 450.823 545 l 1
 262.666 -270 l 1
 192.666 -270 l 1
 380.823 545 l 1
 175.823 545 l 1
 188.521 600 l 1
 393.521 600 l 1
 462.781 900 l 1
 532.781 900 l 1
EndSplineSet
EndChar

StartChar: bullet
Encoding: 8226 8226 231
Width: 440
VWidth: 0
Flags: W
HStem: 180 260<238.959 344.18>
VStem: 161.569 260
LayerCount: 2
Fore
SplineSet
421.569 310 m 0
 404.946 238 333.557 180 261.557 180 c 0
 189.557 180 144.946 238 161.569 310 c 0
 178.191 382 249.582 440 321.582 440 c 0
 393.582 440 438.191 382 421.569 310 c 0
EndSplineSet
EndChar

StartChar: uni2010
Encoding: 8208 8208 232
Width: 560
VWidth: 0
Flags: W
HStem: 280 80<153.112 554.643>
LayerCount: 2
Fore
SplineSet
153.112 360 m 1
 573.112 360 l 1
 554.643 280 l 1
 134.644 280 l 1
 153.112 360 l 1
EndSplineSet
EndChar

StartChar: uni2011
Encoding: 8209 8209 233
Width: 560
VWidth: 0
Flags: W
HStem: 280 80<153.112 554.643>
LayerCount: 2
Fore
SplineSet
153.112 360 m 1
 573.112 360 l 1
 554.643 280 l 1
 134.644 280 l 1
 153.112 360 l 1
EndSplineSet
EndChar

StartChar: perthousand
Encoding: 8240 8240 234
Width: 1170
VWidth: 0
Flags: W
HStem: -10 70<575.785 664.49 935.785 1024.49> 0 21G<80 208.867> 280 70<614.006 702.71 974.006 1062.71> 450 70<297.968 393.389> 740 70<337.505 432.926> 780 20G<815.827 944.694>
LayerCount: 2
Fore
SplineSet
834.694 800 m 1x74
 944.694 800 l 1
 190 0 l 1
 80 0 l 1
 834.694 800 l 1x74
407.003 810 m 0x38
 501.003 810 548.303 729 525.447 630 c 0
 502.591 531 417.891 450 323.891 450 c 0
 229.891 450 182.591 531 205.447 630 c 0
 228.303 729 313.003 810 407.003 810 c 0x38
390.843 740 m 0
 338.843 740 307.452 682 295.447 630 c 0
 283.441 578 288.052 520 340.052 520 c 0
 392.052 520 423.441 578 435.447 630 c 0
 447.452 682 442.843 740 390.843 740 c 0
680.804 350 m 0
 774.804 350 812.104 269 789.248 170 c 0
 766.392 71 691.691 -10 597.691 -10 c 0xb0
 503.691 -10 466.392 71 489.248 170 c 0
 512.104 269 586.804 350 680.804 350 c 0
664.643 280 m 0
 612.643 280 591.253 222 579.248 170 c 0
 567.242 118 561.853 60 613.853 60 c 0
 665.853 60 687.242 118 699.248 170 c 0
 711.253 222 716.643 280 664.643 280 c 0
1040.8 350 m 0
 1134.8 350 1172.1 269 1149.25 170 c 0
 1126.39 71 1051.69 -10 957.691 -10 c 0
 863.691 -10 826.392 71 849.248 170 c 0
 872.104 269 946.804 350 1040.8 350 c 0
1024.64 280 m 0
 972.643 280 951.253 222 939.248 170 c 0
 927.242 118 921.853 60 973.853 60 c 0
 1025.85 60 1047.24 118 1059.25 170 c 0
 1071.25 222 1076.64 280 1024.64 280 c 0
EndSplineSet
EndChar

StartChar: dotlessi
Encoding: 305 305 235
Width: 320
VWidth: 0
Flags: W
HStem: 0 21G<100 224.617> 580 20G<233.903 358.521>
VStem: 100 258.521
AnchorPoint: "hook_above" 316.99 680 basechar 0
AnchorPoint: "diac_top" 310.064 650 basechar 0
AnchorPoint: "ogonek" 179.234 40 basechar 0
AnchorPoint: "diac_bottom" 148.457 -50 basechar 0
LayerCount: 2
Fore
SplineSet
238.521 600 m 1
 358.521 600 l 1
 220 0 l 1
 100 0 l 1
 238.521 600 l 1
EndSplineSet
EndChar

StartChar: uni0237
Encoding: 567 567 236
Width: 340
VWidth: 0
Flags: W
HStem: -290 100<-53.8652 41.8064> 580 20G<253.903 378.521>
AnchorPoint: "diac_top" 330.064 650 basechar 0
AnchorPoint: "diac_bottom" 347.2 -50 basechar 0
LayerCount: 2
Fore
SplineSet
216.913 -100 m 2
 189.901 -217 90.0479 -290 -76.9521 -290 c 1
 -53.8652 -190 l 1
 17.1348 -190 83.5225 -158 99.2217 -90 c 2
 258.521 600 l 1
 378.521 600 l 1
 216.913 -100 l 2
EndSplineSet
EndChar

StartChar: ae
Encoding: 230 230 237
Width: 1060
VWidth: 0
Flags: W
HStem: -20 100<254.734 432.052 661.969 845.908> 278 82<282.685 534.643 673.112 957.516> 525 95<364.485 546.934 758.667 932.544>
VStem: 186.965 120<420 468.764>
AnchorPoint: "diac_top" 680.064 650 basechar 0
AnchorPoint: "diac_bottom" 518.457 -50 basechar 0
LayerCount: 2
Fore
SplineSet
231.557 180 m 0
 217.242 118 262.47 80 338.47 80 c 0
 409.47 80 468.626 111 507.4 162 c 1
 516.174 200 l 1
 534.643 280 l 1
 384.644 280 l 2
 308.644 280 247.255 248 231.557 180 c 0
953.112 360 m 1
 981.51 483 930.206 525 851.206 525 c 0
 772.206 525 701.51 483 673.112 360 c 1
 953.112 360 l 1
1073.11 360 m 2
 1054.18 278 l 1
 654.182 278 l 1
 636.174 200 l 2
 615.626 111 680.47 80 748.47 80 c 0
 816.47 80 895.626 111 916.174 200 c 1
 1036.17 200 l 1
 1000.85 47 861.383 -20 725.383 -20 c 0
 638.383 -20 562.616 7 528.468 67 c 1
 472.694 16 394.383 -20 295.383 -20 c 0
 149.383 -20 86.1611 70 111.557 180 c 0
 140.184 304 253.112 360 393.112 360 c 2
 553.112 360 l 1
 566.965 420 l 2
 582.433 487 537.206 525 461.206 525 c 0
 385.206 525 322.433 487 306.965 420 c 1
 186.965 420 l 1
 215.131 542 332.139 620 483.139 620 c 0
 570.139 620 633.136 594 666.747 549 c 1
 723.598 596 796.139 620 873.139 620 c 0
 1023.14 620 1111.67 527 1073.11 360 c 2
EndSplineSet
EndChar

StartChar: AE
Encoding: 198 198 238
Width: 1000
VWidth: 0
Flags: W
HStem: 0 100<623.087 940> 160 100<337.025 516.938> 350 100<703.891 980.804> 700 100<761.607 1091.61>
AnchorPoint: "diac_top" 836.238 850 basechar 0
AnchorPoint: "diac_bottom" 628.457 -50 basechar 0
LayerCount: 2
Fore
SplineSet
540.025 260 m 1
 561.958 355 l 1
 582.736 445 l 1
 636.298 677 l 1
 337.025 260 l 1
 540.025 260 l 1
623.087 100 m 1
 963.087 100 l 1
 940 0 l 1
 600 0 l 1
 480 0 l 1
 500.778 90 l 1
 516.938 160 l 1
 264.938 160 l 1
 150 0 l 1
 20 0 l 1
 604.694 800 l 1
 664.694 800 l 1
 724.694 800 l 1
 784.694 800 l 1
 1114.69 800 l 1
 1091.61 700 l 1
 761.607 700 l 1
 703.891 450 l 1
 1003.89 450 l 1
 980.804 350 l 1
 680.804 350 l 1
 623.087 100 l 1
EndSplineSet
EndChar

StartChar: Aring
Encoding: 197 197 239
Width: 800
VWidth: 0
HStem: 0 21G<20 162.367 646.867 780> 160 100<311.025 609.025> 960 70<566.427 664.061>
AnchorPoint: "diac_top" 637.794 1030 basechar 0
LayerCount: 2
Fore
SplineSet
609.025 260 m 1
 548.91 645 l 1
 311.025 260 l 1
 609.025 260 l 1
637.794 1030 m 0
 709.794 1030 754.404 972 737.781 900 c 0
 726.699 852 691.003 810 646.693 787 c 1
 780 0 l 1
 650 0 l 1
 624.938 160 l 1
 248.938 160 l 1
 150 0 l 1
 20 0 l 1
 516.693 787 l 1
 483.003 810 466.699 852 477.781 900 c 0
 494.404 972 565.794 1030 637.794 1030 c 0
621.634 960 m 0
 588.634 960 555.4 933 547.781 900 c 0
 540.163 867 560.93 840 593.93 840 c 0
 626.93 840 660.163 867 667.781 900 c 0
 675.4 933 654.634 960 621.634 960 c 0
EndSplineSet
EndChar

StartChar: multiply
Encoding: 215 215 240
Width: 560
VWidth: 0
Flags: W
HStem: 133 375
LayerCount: 2
Fore
SplineSet
509.249 183 m 1
 447.705 133 l 1
 341.565 271 l 1
 171.705 133 l 1
 134.249 183 l 1
 304.108 321 l 1
 197.969 459 l 1
 258.281 508 l 1
 364.421 370 l 1
 534.281 508 l 1
 572.969 459 l 1
 403.108 321 l 1
 509.249 183 l 1
EndSplineSet
EndChar

StartChar: divide
Encoding: 247 247 241
Width: 560
VWidth: 0
Flags: W
HStem: 90 120<273.743 355.517> 285 70<161.958 545.798> 430 120<352.238 434.012>
CounterMasks: 1 e0
LayerCount: 2
Fore
SplineSet
374.63 150 m 0
 367.012 117 333.778 90 300.778 90 c 0
 267.778 90 247.012 117 254.63 150 c 0
 262.249 183 295.482 210 328.482 210 c 0
 361.482 210 382.249 183 374.63 150 c 0
453.125 490 m 0
 445.507 457 412.273 430 379.273 430 c 0
 346.273 430 325.507 457 333.125 490 c 0
 340.744 523 373.978 550 406.978 550 c 0
 439.978 550 460.744 523 453.125 490 c 0
161.958 355 m 1
 561.958 355 l 1
 545.798 285 l 1
 145.798 285 l 1
 161.958 355 l 1
EndSplineSet
EndChar

StartChar: thorn
Encoding: 254 254 242
Width: 710
VWidth: 0
Flags: W
HStem: -20 95<287.45 474.816> 520 100<415.246 571.463> 880 20G<293.164 417.781>
LayerCount: 2
Fore
SplineSet
297.781 900 m 1
 417.781 900 l 1
 348.521 600 l 1
 333.283 534 l 1
 381.827 584 448.139 620 523.139 620 c 0
 679.139 620 759.82 519 723.112 360 c 2
 700.025 260 l 2
 656.622 72 519.383 -20 375.383 -20 c 0
 306.383 -20 255.078 9 222.005 52 c 1
 147.666 -270 l 1
 27.666 -270 l 1
 228.521 600 l 1
 297.781 900 l 1
309.735 432 m 1
 247.862 164 l 1
 260.626 111 302.315 75 377.315 75 c 0
 457.315 75 547.242 118 580.025 260 c 2
 603.112 360 l 2
 629.432 474 565.052 520 480.052 520 c 0
 402.052 520 339.894 476 309.735 432 c 1
EndSplineSet
EndChar

StartChar: germandbls
Encoding: 223 223 243
Width: 850
VWidth: 0
Flags: W
HStem: -270 100<250.752 549.152> 0 21G<130 254.617> 500 100<168.521 245.435 388.521 715.434> 800 100<469.023 564.694>
LayerCount: 2
Fore
SplineSet
293.916 710 m 2
 320.928 827 420.781 900 587.781 900 c 1
 564.694 800 l 1
 493.694 800 427.307 768 411.607 700 c 2
 388.521 600 l 1
 868.521 600 l 1
 845.434 500 l 1
 583.873 268 l 1
 730.41 253 830.171 174 790 0 c 0
 745.212 -194 580.666 -270 407.666 -270 c 2
 227.666 -270 l 1
 250.752 -170 l 1
 430.752 -170 l 2
 526.752 -170 640.91 -126 670 0 c 0
 699.09 126 605.248 170 509.248 170 c 2
 429.248 170 l 1
 440.791 220 l 1
 452.334 270 l 1
 715.434 500 l 1
 365.434 500 l 1
 250 0 l 1
 130 0 l 1
 245.435 500 l 1
 145.435 500 l 1
 168.521 600 l 1
 268.521 600 l 1
 293.916 710 l 2
EndSplineSet
EndChar

StartChar: Oslash
Encoding: 216 216 244
Width: 800
VWidth: 0
Flags: W
HStem: -20 100<310.049 539.143> 0 21G<70 169.163> 725 95<453.052 670.379> 780 20G<815.41 914.694>
AnchorPoint: "diac_top" 596.238 850 basechar 0
AnchorPoint: "diac_bottom" 388.457 -50 basechar 0
LayerCount: 2
Fore
SplineSet
834.694 800 m 1x10
 914.694 800 l 1
 828.916 710 l 1
 858.604 661 867.828 597 850.052 520 c 2
 792.334 270 l 2
 750.316 88 582.383 -20 395.383 -20 c 0x90
 310.383 -20 239.462 2 192.158 44 c 1
 150 0 l 1
 70 0 l 1
 154.316 88 l 1
 124.167 135 115.25 196 132.334 270 c 2
 190.052 520 l 2
 232.993 706 402.312 820 589.312 820 c 0x60
 673.312 820 744.002 797 791.306 755 c 1
 834.694 800 l 1x10
276.705 133 m 1
 306.855 99 356.47 80 418.47 80 c 0
 539.47 80 644.63 150 672.334 270 c 2
 730.052 520 l 2
 737.901 554 738.827 584 732.83 610 c 1
 276.705 133 l 1
249.403 188 m 1
 706.989 667 l 1
 677.531 704 628.38 725 567.38 725 c 0x20
 450.38 725 339.833 649 310.052 520 c 2
 252.334 270 l 2
 245.178 239 244.944 212 249.403 188 c 1
EndSplineSet
EndChar

StartChar: Thorn
Encoding: 222 222 245
Width: 740
VWidth: 0
Flags: W
HStem: 0 21G<90 214.617> 210 95<280.415 571.122> 605 95<371.607 632.374> 780 20G<270.077 394.694>
LayerCount: 2
Fore
SplineSet
581.607 700 m 2
 782.607 700 819.979 563 795.045 455 c 0
 770.111 347 669.482 210 468.482 210 c 2
 258.482 210 l 1
 210 0 l 1
 90 0 l 1
 274.694 800 l 1
 394.694 800 l 1
 371.607 700 l 1
 581.607 700 l 2
539.676 605 m 2
 349.675 605 l 1
 280.415 305 l 1
 470.415 305 l 2
 593.415 305 648.653 384 665.045 455 c 0
 681.437 526 662.676 605 539.676 605 c 2
EndSplineSet
EndChar

StartChar: oslash
Encoding: 248 248 246
Width: 660
VWidth: 0
Flags: W
HStem: -20 100<261.164 448.456> 0 21G<60 155.002> 525 95<354.337 537.789> 580 20G<643.57 738.521>
AnchorPoint: "diac_top" 490.064 650 basechar 0
AnchorPoint: "diac_bottom" 307.2 -50 basechar 0
AnchorPoint: "cedilla" 366.238 40 basechar 0
AnchorPoint: "ogonek" 366.238 40 basechar 0
LayerCount: 2
Fore
SplineSet
663.521 600 m 1x10
 738.521 600 l 1
 667.129 529 l 1
 692.433 487 699.273 430 683.112 360 c 2
 650.791 220 l 2
 613.159 57 479.383 -20 325.383 -20 c 0x90
 257.383 -20 199.846 -5 161.003 26 c 1
 135 0 l 1
 60 0 l 1
 126.007 65 l 1
 102.779 103 95.7842 155 110.791 220 c 2
 143.112 360 l 2
 181.898 528 319.139 620 473.139 620 c 0x60
 539.139 620 595.214 603 633.595 570 c 1
 663.521 600 l 1x10
451.206 525 m 0x20
 376.206 525 292.895 489 263.112 360 c 2
 230.791 220 l 2
 225.942 199 224.787 181 227.324 166 c 1
 549.433 487 l 1
 527.897 515 490.206 525 451.206 525 c 0x20
569.735 432 m 1
 250.55 115 l 1
 274.547 89 313.47 80 348.47 80 c 0x80
 413.47 80 505.626 111 530.791 220 c 2
 563.112 360 l 2
 569.577 388 571.117 412 569.735 432 c 1
EndSplineSet
EndChar

StartChar: cedilla
Encoding: 184 184 247
Width: 560
VWidth: 0
Flags: W
HStem: -350 65<40.4593 230.118> -155 65<103.222 249.34>
VStem: -60.791 90<-270.224 -220>
LayerCount: 2
Fore
SplineSet
169.234 40 m 1
 249.234 40 l 1
 103.222 -90 l 1
 174.222 -90 l 2
 303.222 -90 367.217 -142 349.209 -220 c 0
 331.201 -298 248.196 -350 114.196 -350 c 0
 -19.8037 -350 -78.7988 -298 -60.791 -220 c 1
 29.209 -220 l 1
 18.5889 -266 69.2021 -285 129.202 -285 c 0
 189.202 -285 248.589 -266 259.209 -220 c 0
 269.829 -174 219.216 -155 159.216 -155 c 2
 24.2158 -155 l 1
 19.2217 -90 l 1
 169.234 40 l 1
EndSplineSet
EndChar

StartChar: ampersand
Encoding: 38 38 248
Width: 800
VWidth: 0
Flags: W
HStem: -20 100<275.485 482.095> 0 21G<618.744 770> 720 100<473.597 598.481>
VStem: 677.729 120<298.549 380>
LayerCount: 2
Fore
SplineSet
421.114 373 m 1xb0
 316.032 325 253.258 274 238.482 210 c 0
 221.167 135 271.47 80 368.47 80 c 0
 434.47 80 496.011 104 547.169 148 c 1
 421.114 373 l 1xb0
546.225 720 m 0
 492.225 720 448.837 688 435.447 630 c 0
 421.595 570 452.898 528 478.665 501 c 1
 547.822 532 590.44 565 605.447 630 c 0
 618.837 688 592.225 720 546.225 720 c 0
569.312 820 m 0
 692.312 820 749.688 735 725.447 630 c 0
 703.745 536 622.97 472 534.119 425 c 1
 630.179 252 l 1
 650.721 289 666.648 332 677.729 380 c 1
 797.729 380 l 1
 778.106 295 738.867 216 685.861 151 c 1
 770 0 l 1
 630 0 l 1x70
 594.545 63 l 1
 522.539 11 437.383 -20 345.383 -20 c 0
 167.383 -20 88.4697 80 118.482 210 c 0
 146.648 332 255.809 402 369.814 454 c 1
 341.664 488 296.978 550 315.447 630 c 0
 339.688 735 444.312 820 569.312 820 c 0
EndSplineSet
EndChar

StartChar: currency
Encoding: 164 164 249
Width: 1040
VWidth: 0
Flags: W
HStem: -20 120<429.865 667.031> 700 120<558.293 795.368>
LayerCount: 2
Fore
SplineSet
681.607 700 m 0
 516.607 700 350.44 565 312.348 400 c 0
 274.023 234 378.087 100 543.087 100 c 0
 709.087 100 874.023 234 912.348 400 c 0
 950.44 565 847.607 700 681.607 700 c 0
365.852 831 m 1
 438.919 736 l 1
 521.155 789 615.312 820 709.312 820 c 0
 804.312 820 884.155 789 941.919 736 c 1
 1058.85 831 l 1
 1124.23 746 l 1
 1007.29 651 l 1
 1043.13 581 1054.05 494 1032.35 400 c 0
 1010.42 305 959.329 218 891.169 148 c 1
 964.236 53 l 1
 859.612 -32 l 1
 786.545 63 l 1
 704.539 11 610.383 -20 515.383 -20 c 0
 421.383 -20 341.539 11 283.545 63 c 1
 166.612 -32 l 1
 101.236 53 l 1
 218.169 148 l 1
 181.329 218 170.415 305 192.348 400 c 0
 214.049 494 265.135 581 334.295 651 c 1
 261.228 746 l 1
 365.852 831 l 1
EndSplineSet
EndChar

StartChar: uni00B5
Encoding: 181 181 250
Width: 680
VWidth: 0
Flags: W
HStem: -20 100<310.204 484.914> 580 20G<223.903 348.521 623.903 748.521>
LayerCount: 2
Fore
SplineSet
210 0 m 1
 147.666 -270 l 1
 27.666 -270 l 1
 90 0 l 1
 228.521 600 l 1
 348.521 600 l 1
 254.327 192 l 1
 268.167 135 311.47 80 398.47 80 c 0
 460.47 80 514.934 108 531.557 180 c 2
 628.521 600 l 1
 748.521 600 l 1
 651.557 180 l 2
 621.312 49 519.383 -20 395.383 -20 c 0
 294.383 -20 249.158 44 229.854 86 c 1
 210 0 l 1
EndSplineSet
EndChar

StartChar: paragraph
Encoding: 182 182 251
Width: 740
VWidth: 0
Flags: W
HStem: 0 21G<300 424.617 530 654.617> 310 98<338.986 371.569> 705 95<402.055 462.069 582.762 692.762>
LayerCount: 2
Fore
SplineSet
394.194 408 m 1
 462.069 702 l 1
 367.376 686 322.445 617 308.132 555 c 0
 293.818 493 306.888 424 394.194 408 c 1
582.762 705 m 1
 420 0 l 1
 300 0 l 1
 371.569 310 l 1
 188.646 319 153.891 450 178.132 555 c 0
 203.065 663 303.694 800 504.694 800 c 2
 834.694 800 l 1
 650 0 l 1
 530 0 l 1
 692.762 705 l 1
 582.762 705 l 1
EndSplineSet
EndChar

StartChar: macron
Encoding: 175 175 252
Width: 560
VWidth: 0
Flags: W
HStem: 730 70<254.694 658.534>
LayerCount: 2
Fore
SplineSet
254.694 800 m 1
 674.694 800 l 1
 658.534 730 l 1
 238.534 730 l 1
 254.694 800 l 1
EndSplineSet
EndChar

StartChar: logicalnot
Encoding: 172 172 253
Width: 600
VWidth: 0
Flags: W
HStem: 530 70<198.521 542.36>
LayerCount: 2
Fore
SplineSet
198.521 600 m 1
 668.521 600 l 1
 624.656 410 l 1
 514.656 410 l 1
 542.36 530 l 1
 182.36 530 l 1
 198.521 600 l 1
EndSplineSet
EndChar

